<ttFont>
    <TTGlyph name="ampersand" xMin="82" yMin="-20" xMax="1475" yMax="1483">
      <contour>
        <pt x="1475" y="0" on="1"/>
        <pt x="1098" y="0" on="1"/>
        <pt x="1001" y="100" on="1"/>
        <pt x="921" y="45" on="0"/>
        <pt x="728" y="-20" on="0"/>
        <pt x="612" y="-20" on="1"/>
        <pt x="492" y="-20" on="0"/>
        <pt x="297" y="40" on="0"/>
        <pt x="158" y="149" on="0"/>
        <pt x="82" y="302" on="0"/>
        <pt x="82" y="395" on="1"/>
        <pt x="82" y="472" on="0"/>
        <pt x="119" y="593" on="0"/>
        <pt x="187" y="691" on="0"/>
        <pt x="284" y="771" on="0"/>
        <pt x="344" y="807" on="1"/>
        <pt x="306" y="853" on="0"/>
        <pt x="253" y="938" on="0"/>
        <pt x="221" y="1021" on="0"/>
        <pt x="207" y="1104" on="0"/>
        <pt x="207" y="1149" on="1"/>
        <pt x="207" y="1227" on="0"/>
        <pt x="268" y="1350" on="0"/>
        <pt x="377" y="1437" on="0"/>
        <pt x="528" y="1483" on="0"/>
        <pt x="618" y="1483" on="1"/>
        <pt x="704" y="1483" on="0"/>
        <pt x="849" y="1441" on="0"/>
        <pt x="954" y="1360" on="0"/>
        <pt x="1014" y="1241" on="0"/>
        <pt x="1014" y="1165" on="1"/>
        <pt x="1014" y="1096" on="0"/>
        <pt x="969" y="981" on="0"/>
        <pt x="893" y="883" on="0"/>
        <pt x="790" y="801" on="0"/>
        <pt x="731" y="766" on="1"/>
        <pt x="991" y="498" on="1"/>
        <pt x="1026" y="564" on="0"/>
        <pt x="1079" y="710" on="0"/>
        <pt x="1098" y="784" on="1"/>
        <pt x="1415" y="784" on="1"/>
        <pt x="1400" y="727" on="0"/>
        <pt x="1359" y="601" on="0"/>
        <pt x="1305" y="474" on="0"/>
        <pt x="1235" y="348" on="0"/>
        <pt x="1192" y="291" on="1"/>
      </contour>
      <contour>
        <pt x="403" y="424" on="1"/>
        <pt x="403" y="380" on="0"/>
        <pt x="435" y="310" on="0"/>
        <pt x="492" y="262" on="0"/>
        <pt x="569" y="236" on="0"/>
        <pt x="614" y="236" on="1"/>
        <pt x="674" y="236" on="0"/>
        <pt x="776" y="267" on="0"/>
        <pt x="819" y="295" on="1"/>
        <pt x="510" y="625" on="1"/>
        <pt x="459" y="583" on="0"/>
        <pt x="403" y="487" on="0"/>
      </contour>
      <contour>
        <pt x="731" y="1124" on="1"/>
        <pt x="731" y="1155" on="0"/>
        <pt x="711" y="1198" on="0"/>
        <pt x="678" y="1226" on="0"/>
        <pt x="637" y="1239" on="0"/>
        <pt x="616" y="1239" on="1"/>
        <pt x="594" y="1239" on="0"/>
        <pt x="549" y="1227" on="0"/>
        <pt x="512" y="1200" on="0"/>
        <pt x="489" y="1155" on="0"/>
        <pt x="489" y="1122" on="1"/>
        <pt x="489" y="1070" on="0"/>
        <pt x="535" y="978" on="0"/>
        <pt x="575" y="932" on="1"/>
        <pt x="652" y="976" on="0"/>
        <pt x="731" y="1064" on="0"/>
      </contour>
    </TTGlyph>
    <TTGlyph name="asciitilde" xMin="88" yMin="551" xMax="1040" yMax="893">
      <contour>
        <pt x="528" y="616" on="1"/>
        <pt x="491" y="632" on="0"/>
        <pt x="434" y="654" on="0"/>
        <pt x="387" y="667" on="0"/>
        <pt x="345" y="672" on="0"/>
        <pt x="322" y="672" on="1"/>
        <pt x="293" y="672" on="0"/>
        <pt x="231" y="653" on="0"/>
        <pt x="171" y="620" on="0"/>
        <pt x="114" y="576" on="0"/>
        <pt x="88" y="551" on="1"/>
        <pt x="88" y="782" on="1"/>
        <pt x="139" y="836" on="0"/>
        <pt x="266" y="891" on="0"/>
        <pt x="344" y="891" on="1"/>
        <pt x="374" y="891" on="0"/>
        <pt x="425" y="886" on="0"/>
        <pt x="482" y="872" on="0"/>
        <pt x="552" y="847" on="0"/>
        <pt x="600" y="827" on="1"/>
        <pt x="638" y="811" on="0"/>
        <pt x="695" y="790" on="0"/>
        <pt x="743" y="777" on="0"/>
        <pt x="785" y="772" on="0"/>
        <pt x="807" y="772" on="1"/>
        <pt x="836" y="772" on="0"/>
        <pt x="898" y="791" on="0"/>
        <pt x="958" y="823" on="0"/>
        <pt x="1015" y="868" on="0"/>
        <pt x="1040" y="893" on="1"/>
        <pt x="1040" y="662" on="1"/>
        <pt x="939" y="553" on="0"/>
        <pt x="784" y="553" on="1"/>
        <pt x="754" y="553" on="0"/>
        <pt x="703" y="558" on="0"/>
        <pt x="646" y="571" on="0"/>
        <pt x="576" y="596" on="0"/>
      </contour>
    </TTGlyph>
    <TTGlyph name="asterisk" xMin="63" yMin="598" xMax="1053" yMax="1556">
      <contour>
        <pt x="688" y="1556" on="1"/>
        <pt x="647" y="1188" on="1"/>
        <pt x="1020" y="1292" on="1"/>
        <pt x="1053" y="1040" on="1"/>
        <pt x="713" y="1016" on="1"/>
        <pt x="936" y="719" on="1"/>
        <pt x="709" y="598" on="1"/>
        <pt x="553" y="911" on="1"/>
        <pt x="416" y="600" on="1"/>
        <pt x="180" y="719" on="1"/>
        <pt x="401" y="1016" on="1"/>
        <pt x="63" y="1042" on="1"/>
        <pt x="102" y="1292" on="1"/>
        <pt x="467" y="1188" on="1"/>
        <pt x="426" y="1556" on="1"/>
      </contour>
    </TTGlyph>
    <TTGlyph name="at" xMin="102" yMin="-154" xMax="1673" yMax="1481">
      <contour>
        <pt x="1673" y="752" on="1"/>
        <pt x="1673" y="657" on="0"/>
        <pt x="1628" y="471" on="0"/>
        <pt x="1536" y="324" on="0"/>
        <pt x="1397" y="233" on="0"/>
        <pt x="1303" y="233" on="1"/>
        <pt x="1265" y="233" on="0"/>
        <pt x="1198" y="252" on="0"/>
        <pt x="1142" y="287" on="0"/>
        <pt x="1101" y="334" on="0"/>
        <pt x="1090" y="362" on="1"/>
        <pt x="1075" y="362" on="1"/>
        <pt x="1056" y="337" on="0"/>
        <pt x="1006" y="290" on="0"/>
        <pt x="944" y="254" on="0"/>
        <pt x="869" y="233" on="0"/>
        <pt x="825" y="233" on="1"/>
        <pt x="742" y="233" on="0"/>
        <pt x="613" y="290" on="0"/>
        <pt x="525" y="395" on="0"/>
        <pt x="479" y="542" on="0"/>
        <pt x="479" y="631" on="1"/>
        <pt x="479" y="734" on="0"/>
        <pt x="541" y="906" on="0"/>
        <pt x="657" y="1031" on="0"/>
        <pt x="823" y="1100" on="0"/>
        <pt x="926" y="1100" on="1"/>
        <pt x="971" y="1100" on="0"/>
        <pt x="1067" y="1090" on="0"/>
        <pt x="1156" y="1074" on="0"/>
        <pt x="1234" y="1054" on="0"/>
        <pt x="1262" y="1044" on="1"/>
        <pt x="1241" y="625" on="1"/>
        <pt x="1239" y="603" on="0"/>
        <pt x="1239" y="561" on="0"/>
        <pt x="1239" y="555" on="1"/>
        <pt x="1239" y="513" on="0"/>
        <pt x="1252" y="459" on="0"/>
        <pt x="1273" y="428" on="0"/>
        <pt x="1300" y="416" on="0"/>
        <pt x="1315" y="416" on="1"/>
        <pt x="1350" y="416" on="0"/>
        <pt x="1402" y="470" on="0"/>
        <pt x="1436" y="562" on="0"/>
        <pt x="1454" y="685" on="0"/>
        <pt x="1454" y="754" on="1"/>
        <pt x="1454" y="882" on="0"/>
        <pt x="1378" y="1082" on="0"/>
        <pt x="1243" y="1220" on="0"/>
        <pt x="1057" y="1292" on="0"/>
        <pt x="948" y="1292" on="1"/>
        <pt x="795" y="1292" on="0"/>
        <pt x="562" y="1190" on="0"/>
        <pt x="405" y="1007" on="0"/>
        <pt x="324" y="757" on="0"/>
        <pt x="324" y="608" on="1"/>
        <pt x="324" y="470" on="0"/>
        <pt x="394" y="257" on="0"/>
        <pt x="532" y="112" on="0"/>
        <pt x="734" y="37" on="0"/>
        <pt x="866" y="37" on="1"/>
        <pt x="922" y="37" on="0"/>
        <pt x="1040" y="51" on="0"/>
        <pt x="1157" y="75" on="0"/>
        <pt x="1270" y="109" on="0"/>
        <pt x="1321" y="129" on="1"/>
        <pt x="1321" y="-63" on="1"/>
        <pt x="1227" y="-105" on="0"/>
        <pt x="998" y="-154" on="0"/>
        <pt x="868" y="-154" on="1"/>
        <pt x="687" y="-154" on="0"/>
        <pt x="402" y="-51" on="0"/>
        <pt x="206" y="143" on="0"/>
        <pt x="102" y="424" on="0"/>
        <pt x="102" y="602" on="1"/>
        <pt x="102" y="726" on="0"/>
        <pt x="156" y="953" on="0"/>
        <pt x="258" y="1148" on="0"/>
        <pt x="405" y="1307" on="0"/>
        <pt x="593" y="1420" on="0"/>
        <pt x="819" y="1481" on="0"/>
        <pt x="948" y="1481" on="1"/>
        <pt x="1106" y="1481" on="0"/>
        <pt x="1372" y="1380" on="0"/>
        <pt x="1565" y="1191" on="0"/>
        <pt x="1673" y="921" on="0"/>
      </contour>
      <contour>
        <pt x="711" y="627" on="1"/>
        <pt x="711" y="515" on="0"/>
        <pt x="787" y="416" on="0"/>
        <pt x="850" y="416" on="1"/>
        <pt x="892" y="416" on="0"/>
        <pt x="953" y="455" on="0"/>
        <pt x="992" y="526" on="0"/>
        <pt x="1013" y="625" on="0"/>
        <pt x="1016" y="686" on="1"/>
        <pt x="1028" y="907" on="1"/>
        <pt x="1008" y="912" on="0"/>
        <pt x="954" y="918" on="0"/>
        <pt x="926" y="918" on="1"/>
        <pt x="867" y="918" on="0"/>
        <pt x="785" y="868" on="0"/>
        <pt x="734" y="786" on="0"/>
        <pt x="711" y="681" on="0"/>
      </contour>
    </TTGlyph>
    <TTGlyph name="bar" xMin="455" yMin="-465" xMax="674" yMax="1550">
      <contour>
        <pt x="455" y="1550" on="1"/>
        <pt x="674" y="1550" on="1"/>
        <pt x="674" y="-465" on="1"/>
        <pt x="455" y="-465" on="1"/>
      </contour>
    </TTGlyph>
    <TTGlyph name="braceleft" xMin="31" yMin="-324" xMax="725" yMax="1462">
      <contour>
        <pt x="287" y="367" on="0"/>
        <pt x="156" y="449" on="0"/>
        <pt x="31" y="449" on="1"/>
        <pt x="31" y="688" on="1"/>
        <pt x="93" y="688" on="0"/>
        <pt x="190" y="707" on="0"/>
        <pt x="256" y="750" on="0"/>
        <pt x="289" y="818" on="0"/>
        <pt x="287" y="866" on="1"/>
        <pt x="287" y="1184" on="1"/>
        <pt x="287" y="1258" on="0"/>
        <pt x="325" y="1363" on="0"/>
        <pt x="424" y="1430" on="0"/>
        <pt x="594" y="1462" on="0"/>
        <pt x="725" y="1462" on="1"/>
        <pt x="725" y="1237" on="1"/>
        <pt x="685" y="1236" on="0"/>
        <pt x="620" y="1224" on="0"/>
        <pt x="575" y="1193" on="0"/>
        <pt x="551" y="1139" on="0"/>
        <pt x="551" y="1096" on="1"/>
        <pt x="551" y="797" on="1"/>
        <pt x="545" y="610" on="0"/>
        <pt x="317" y="575" on="1"/>
        <pt x="317" y="563" on="1"/>
        <pt x="432" y="546" on="0"/>
        <pt x="554" y="436" on="0"/>
        <pt x="551" y="342" on="1"/>
        <pt x="551" y="43" on="1"/>
        <pt x="551" y="0" on="0"/>
        <pt x="575" y="-54" on="0"/>
        <pt x="620" y="-85" on="0"/>
        <pt x="685" y="-97" on="0"/>
        <pt x="725" y="-98" on="1"/>
        <pt x="725" y="-324" on="1"/>
        <pt x="594" y="-324" on="0"/>
        <pt x="424" y="-292" on="0"/>
        <pt x="325" y="-225" on="0"/>
        <pt x="287" y="-119" on="0"/>
        <pt x="287" y="-45" on="1"/>
        <pt x="287" y="270" on="1"/>
      </contour>
    </TTGlyph>
    <TTGlyph name="braceright" xMin="31" yMin="-324" xMax="725" yMax="1462">
      <contour>
        <pt x="469" y="-45" on="1"/>
        <pt x="469" y="-119" on="0"/>
        <pt x="431" y="-225" on="0"/>
        <pt x="332" y="-292" on="0"/>
        <pt x="162" y="-324" on="0"/>
        <pt x="31" y="-324" on="1"/>
        <pt x="31" y="-98" on="1"/>
        <pt x="71" y="-97" on="0"/>
        <pt x="135" y="-85" on="0"/>
        <pt x="180" y="-54" on="0"/>
        <pt x="205" y="0" on="0"/>
        <pt x="205" y="43" on="1"/>
        <pt x="205" y="342" on="1"/>
        <pt x="202" y="436" on="0"/>
        <pt x="324" y="546" on="0"/>
        <pt x="438" y="563" on="1"/>
        <pt x="438" y="575" on="1"/>
        <pt x="211" y="610" on="0"/>
        <pt x="205" y="797" on="1"/>
        <pt x="205" y="1096" on="1"/>
        <pt x="205" y="1139" on="0"/>
        <pt x="180" y="1193" on="0"/>
        <pt x="135" y="1224" on="0"/>
        <pt x="71" y="1236" on="0"/>
        <pt x="31" y="1237" on="1"/>
        <pt x="31" y="1462" on="1"/>
        <pt x="162" y="1462" on="0"/>
        <pt x="332" y="1430" on="0"/>
        <pt x="431" y="1363" on="0"/>
        <pt x="469" y="1258" on="0"/>
        <pt x="469" y="1184" on="1"/>
        <pt x="469" y="866" on="1"/>
        <pt x="468" y="818" on="0"/>
        <pt x="500" y="750" on="0"/>
        <pt x="566" y="707" on="0"/>
        <pt x="663" y="688" on="0"/>
        <pt x="725" y="688" on="1"/>
        <pt x="725" y="449" on="1"/>
        <pt x="600" y="449" on="0"/>
        <pt x="469" y="367" on="0"/>
        <pt x="469" y="270" on="1"/>
      </contour>
    </TTGlyph>
    <TTGlyph name="colon" xMin="117" yMin="-27" xMax="467" yMax="1139">
      <contour>
        <pt x="117" y="143" on="1"/>
        <pt x="117" y="190" on="0"/>
        <pt x="144" y="255" on="0"/>
        <pt x="192" y="295" on="0"/>
        <pt x="256" y="313" on="0"/>
        <pt x="293" y="313" on="1"/>
        <pt x="328" y="313" on="0"/>
        <pt x="391" y="295" on="0"/>
        <pt x="439" y="255" on="0"/>
        <pt x="467" y="190" on="0"/>
        <pt x="467" y="143" on="1"/>
        <pt x="467" y="98" on="0"/>
        <pt x="439" y="34" on="0"/>
        <pt x="391" y="-8" on="0"/>
        <pt x="328" y="-27" on="0"/>
        <pt x="293" y="-27" on="1"/>
        <pt x="256" y="-27" on="0"/>
        <pt x="192" y="-8" on="0"/>
        <pt x="144" y="34" on="0"/>
        <pt x="117" y="98" on="0"/>
      </contour>
      <contour>
        <pt x="117" y="969" on="1"/>
        <pt x="117" y="1016" on="0"/>
        <pt x="144" y="1081" on="0"/>
        <pt x="192" y="1121" on="0"/>
        <pt x="256" y="1139" on="0"/>
        <pt x="293" y="1139" on="1"/>
        <pt x="328" y="1139" on="0"/>
        <pt x="391" y="1121" on="0"/>
        <pt x="439" y="1081" on="0"/>
        <pt x="467" y="1016" on="0"/>
        <pt x="467" y="969" on="1"/>
        <pt x="467" y="924" on="0"/>
        <pt x="439" y="859" on="0"/>
        <pt x="391" y="818" on="0"/>
        <pt x="328" y="799" on="0"/>
        <pt x="293" y="799" on="1"/>
        <pt x="256" y="799" on="0"/>
        <pt x="192" y="818" on="0"/>
        <pt x="144" y="859" on="0"/>
        <pt x="117" y="924" on="0"/>
      </contour>
    </TTGlyph>
    <TTGlyph name="comma" xMin="63" yMin="-264" xMax="459" yMax="238">
      <contour>
        <pt x="459" y="215" on="1"/>
        <pt x="445" y="161" on="0"/>
        <pt x="406" y="39" on="0"/>
        <pt x="359" y="-85" on="0"/>
        <pt x="308" y="-208" on="0"/>
        <pt x="283" y="-264" on="1"/>
        <pt x="63" y="-264" on="1"/>
        <pt x="78" y="-203" on="0"/>
        <pt x="107" y="-71" on="0"/>
        <pt x="134" y="60" on="0"/>
        <pt x="156" y="185" on="0"/>
        <pt x="164" y="238" on="1"/>
        <pt x="444" y="238" on="1"/>
      </contour>
    </TTGlyph>
    <TTGlyph name="dollar" xMin="98" yMin="-119" xMax="1061" yMax="1556">
      <contour>
        <pt x="1061" y="457" on="1"/>
        <pt x="1061" y="382" on="0"/>
        <pt x="1008" y="254" on="0"/>
        <pt x="903" y="158" on="0"/>
        <pt x="747" y="96" on="0"/>
        <pt x="645" y="86" on="1"/>
        <pt x="645" y="-119" on="1"/>
        <pt x="508" y="-119" on="1"/>
        <pt x="508" y="82" on="1"/>
        <pt x="442" y="84" on="0"/>
        <pt x="330" y="96" on="0"/>
        <pt x="232" y="118" on="0"/>
        <pt x="143" y="149" on="0"/>
        <pt x="100" y="168" on="1"/>
        <pt x="100" y="432" on="1"/>
        <pt x="142" y="411" on="0"/>
        <pt x="241" y="373" on="0"/>
        <pt x="347" y="342" on="0"/>
        <pt x="456" y="320" on="0"/>
        <pt x="508" y="317" on="1"/>
        <pt x="508" y="635" on="1"/>
        <pt x="500" y="638" on="0"/>
        <pt x="491" y="642" on="1"/>
        <pt x="483" y="645" on="0"/>
        <pt x="467" y="651" on="0"/>
        <pt x="461" y="653" on="1"/>
        <pt x="370" y="688" on="0"/>
        <pt x="234" y="764" on="0"/>
        <pt x="143" y="858" on="0"/>
        <pt x="98" y="972" on="0"/>
        <pt x="98" y="1044" on="1"/>
        <pt x="98" y="1119" on="0"/>
        <pt x="155" y="1242" on="0"/>
        <pt x="261" y="1333" on="0"/>
        <pt x="413" y="1390" on="0"/>
        <pt x="508" y="1399" on="1"/>
        <pt x="508" y="1556" on="1"/>
        <pt x="645" y="1556" on="1"/>
        <pt x="645" y="1405" on="1"/>
        <pt x="732" y="1400" on="0"/>
        <pt x="914" y="1360" on="0"/>
        <pt x="1014" y="1317" on="1"/>
        <pt x="913" y="1083" on="1"/>
        <pt x="848" y="1109" on="0"/>
        <pt x="707" y="1150" on="0"/>
        <pt x="645" y="1155" on="1"/>
        <pt x="645" y="862" on="1"/>
        <pt x="684" y="848" on="1"/>
        <pt x="779" y="813" on="0"/>
        <pt x="921" y="739" on="0"/>
        <pt x="1015" y="647" on="0"/>
        <pt x="1061" y="533" on="0"/>
      </contour>
      <contour>
        <pt x="760" y="451" on="1"/>
        <pt x="760" y="475" on="0"/>
        <pt x="747" y="511" on="0"/>
        <pt x="719" y="541" on="0"/>
        <pt x="676" y="566" on="0"/>
        <pt x="645" y="580" on="1"/>
        <pt x="645" y="328" on="1"/>
        <pt x="704" y="337" on="0"/>
        <pt x="760" y="397" on="0"/>
      </contour>
      <contour>
        <pt x="399" y="1051" on="1"/>
        <pt x="399" y="1004" on="0"/>
        <pt x="451" y="941" on="0"/>
        <pt x="508" y="920" on="1"/>
        <pt x="508" y="1153" on="1"/>
        <pt x="454" y="1147" on="0"/>
        <pt x="399" y="1099" on="0"/>
      </contour>
    </TTGlyph>
    <TTGlyph name="eight" xMin="72" yMin="-20" xMax="1057" yMax="1481">
      <contour>
        <pt x="565" y="1481" on="1"/>
        <pt x="656" y="1481" on="0"/>
        <pt x="818" y="1437" on="0"/>
        <pt x="940" y="1349" on="0"/>
        <pt x="1012" y="1217" on="0"/>
        <pt x="1012" y="1128" on="1"/>
        <pt x="1012" y="1062" on="0"/>
        <pt x="972" y="955" on="0"/>
        <pt x="902" y="868" on="0"/>
        <pt x="806" y="800" on="0"/>
        <pt x="750" y="772" on="1"/>
        <pt x="808" y="741" on="0"/>
        <pt x="919" y="665" on="0"/>
        <pt x="1005" y="570" on="0"/>
        <pt x="1057" y="452" on="0"/>
        <pt x="1057" y="379" on="1"/>
        <pt x="1057" y="288" on="0"/>
        <pt x="985" y="140" on="0"/>
        <pt x="855" y="36" on="0"/>
        <pt x="674" y="-20" on="0"/>
        <pt x="565" y="-20" on="1"/>
        <pt x="447" y="-20" on="0"/>
        <pt x="263" y="34" on="0"/>
        <pt x="137" y="134" on="0"/>
        <pt x="72" y="280" on="0"/>
        <pt x="72" y="371" on="1"/>
        <pt x="72" y="446" on="0"/>
        <pt x="116" y="566" on="0"/>
        <pt x="192" y="662" on="0"/>
        <pt x="294" y="736" on="0"/>
        <pt x="352" y="764" on="1"/>
        <pt x="303" y="795" on="0"/>
        <pt x="217" y="868" on="0"/>
        <pt x="154" y="957" on="0"/>
        <pt x="117" y="1065" on="0"/>
        <pt x="117" y="1130" on="1"/>
        <pt x="117" y="1217" on="0"/>
        <pt x="190" y="1348" on="0"/>
        <pt x="314" y="1437" on="0"/>
        <pt x="476" y="1481" on="0"/>
      </contour>
      <contour>
        <pt x="358" y="389" on="1"/>
        <pt x="358" y="349" on="0"/>
        <pt x="384" y="282" on="0"/>
        <pt x="435" y="234" on="0"/>
        <pt x="511" y="207" on="0"/>
        <pt x="561" y="207" on="1"/>
        <pt x="666" y="207" on="0"/>
        <pt x="770" y="306" on="0"/>
        <pt x="770" y="387" on="1"/>
        <pt x="770" y="429" on="0"/>
        <pt x="735" y="496" on="0"/>
        <pt x="680" y="553" on="0"/>
        <pt x="610" y="601" on="0"/>
        <pt x="575" y="623" on="1"/>
        <pt x="553" y="637" on="1"/>
        <pt x="509" y="615" on="0"/>
        <pt x="437" y="564" on="0"/>
        <pt x="386" y="503" on="0"/>
        <pt x="358" y="431" on="0"/>
      </contour>
      <contour>
        <pt x="563" y="1255" on="1"/>
        <pt x="530" y="1255" on="0"/>
        <pt x="473" y="1235" on="0"/>
        <pt x="432" y="1197" on="0"/>
        <pt x="408" y="1141" on="0"/>
        <pt x="408" y="1106" on="1"/>
        <pt x="408" y="1064" on="0"/>
        <pt x="433" y="1003" on="0"/>
        <pt x="476" y="956" on="0"/>
        <pt x="533" y="919" on="0"/>
        <pt x="565" y="901" on="1"/>
        <pt x="596" y="917" on="0"/>
        <pt x="652" y="955" on="0"/>
        <pt x="695" y="1004" on="0"/>
        <pt x="721" y="1066" on="0"/>
        <pt x="721" y="1106" on="1"/>
        <pt x="721" y="1141" on="0"/>
        <pt x="697" y="1197" on="0"/>
        <pt x="655" y="1235" on="0"/>
        <pt x="597" y="1255" on="0"/>
      </contour>
    </TTGlyph>
    <TTGlyph name="equal" xMin="88" yMin="418" xMax="1040" yMax="1024">
      <contour>
        <pt x="88" y="807" on="1"/>
        <pt x="88" y="1024" on="1"/>
        <pt x="1040" y="1024" on="1"/>
        <pt x="1040" y="807" on="1"/>
      </contour>
      <contour>
        <pt x="88" y="418" on="1"/>
        <pt x="88" y="637" on="1"/>
        <pt x="1040" y="637" on="1"/>
        <pt x="1040" y="418" on="1"/>
      </contour>
    </TTGlyph>
    <TTGlyph name="exclam" xMin="117" yMin="-27" xMax="467" yMax="1462">
      <contour>
        <pt x="416" y="485" on="1"/>
        <pt x="172" y="485" on="1"/>
        <pt x="121" y="1462" on="1"/>
        <pt x="467" y="1462" on="1"/>
      </contour>
      <contour>
        <pt x="117" y="143" on="1"/>
        <pt x="117" y="190" on="0"/>
        <pt x="144" y="255" on="0"/>
        <pt x="192" y="295" on="0"/>
        <pt x="256" y="313" on="0"/>
        <pt x="293" y="313" on="1"/>
        <pt x="328" y="313" on="0"/>
        <pt x="391" y="295" on="0"/>
        <pt x="439" y="255" on="0"/>
        <pt x="467" y="190" on="0"/>
        <pt x="467" y="143" on="1"/>
        <pt x="467" y="98" on="0"/>
        <pt x="439" y="34" on="0"/>
        <pt x="391" y="-8" on="0"/>
        <pt x="328" y="-27" on="0"/>
        <pt x="293" y="-27" on="1"/>
        <pt x="256" y="-27" on="0"/>
        <pt x="192" y="-8" on="0"/>
        <pt x="144" y="34" on="0"/>
        <pt x="117" y="98" on="0"/>
      </contour>
    </TTGlyph>
    <TTGlyph name="five" xMin="86" yMin="-20" xMax="1042" yMax="1462">
      <contour>
        <pt x="598" y="934" on="1"/>
        <pt x="692" y="934" on="0"/>
        <pt x="854" y="876" on="0"/>
        <pt x="974" y="764" on="0"/>
        <pt x="1042" y="597" on="0"/>
        <pt x="1042" y="489" on="1"/>
        <pt x="1042" y="370" on="0"/>
        <pt x="968" y="181" on="0"/>
        <pt x="824" y="50" on="0"/>
        <pt x="611" y="-20" on="0"/>
        <pt x="473" y="-20" on="1"/>
        <pt x="418" y="-20" on="0"/>
        <pt x="310" y="-10" on="0"/>
        <pt x="211" y="9" on="0"/>
        <pt x="122" y="39" on="0"/>
        <pt x="86" y="59" on="1"/>
        <pt x="86" y="326" on="1"/>
        <pt x="121" y="306" on="0"/>
        <pt x="213" y="271" on="0"/>
        <pt x="312" y="246" on="0"/>
        <pt x="412" y="231" on="0"/>
        <pt x="457" y="231" on="1"/>
        <pt x="591" y="231" on="0"/>
        <pt x="731" y="342" on="0"/>
        <pt x="731" y="463" on="1"/>
        <pt x="731" y="571" on="0"/>
        <pt x="594" y="684" on="0"/>
        <pt x="451" y="684" on="1"/>
        <pt x="425" y="684" on="0"/>
        <pt x="366" y="678" on="0"/>
        <pt x="309" y="668" on="0"/>
        <pt x="257" y="657" on="0"/>
        <pt x="238" y="651" on="1"/>
        <pt x="115" y="717" on="1"/>
        <pt x="170" y="1462" on="1"/>
        <pt x="942" y="1462" on="1"/>
        <pt x="942" y="1200" on="1"/>
        <pt x="438" y="1200" on="1"/>
        <pt x="414" y="913" on="1"/>
        <pt x="446" y="920" on="0"/>
        <pt x="531" y="934" on="0"/>
      </contour>
    </TTGlyph>
    <TTGlyph name="four" xMin="4" yMin="0" xMax="1085" yMax="1462">
      <contour>
        <pt x="1085" y="303" on="1"/>
        <pt x="909" y="303" on="1"/>
        <pt x="909" y="0" on="1"/>
        <pt x="608" y="0" on="1"/>
        <pt x="608" y="303" on="1"/>
        <pt x="4" y="303" on="1"/>
        <pt x="4" y="518" on="1"/>
        <pt x="625" y="1462" on="1"/>
        <pt x="909" y="1462" on="1"/>
        <pt x="909" y="543" on="1"/>
        <pt x="1085" y="543" on="1"/>
      </contour>
      <contour>
        <pt x="608" y="543" on="1"/>
        <pt x="608" y="791" on="1"/>
        <pt x="608" y="804" on="0"/>
        <pt x="609" y="853" on="0"/>
        <pt x="611" y="915" on="0"/>
        <pt x="614" y="981" on="0"/>
        <pt x="617" y="1041" on="0"/>
        <pt x="620" y="1086" on="0"/>
        <pt x="621" y="1096" on="1"/>
        <pt x="612" y="1096" on="1"/>
        <pt x="594" y="1054" on="0"/>
        <pt x="549" y="960" on="0"/>
        <pt x="520" y="913" on="1"/>
        <pt x="276" y="543" on="1"/>
      </contour>
    </TTGlyph>
    <TTGlyph name="greater" xMin="88" yMin="203" xMax="1040" yMax="1280">
      <contour>
        <pt x="88" y="442" on="1"/>
        <pt x="731" y="723" on="1"/>
        <pt x="88" y="1040" on="1"/>
        <pt x="88" y="1280" on="1"/>
        <pt x="1040" y="784" on="1"/>
        <pt x="1040" y="641" on="1"/>
        <pt x="88" y="203" on="1"/>
      </contour>
    </TTGlyph>
    <TTGlyph name="guillemotleft" xMin="82" yMin="94" xMax="1116" yMax="1028">
      <contour>
        <pt x="82" y="573" on="1"/>
        <pt x="391" y="1028" on="1"/>
        <pt x="610" y="909" on="1"/>
        <pt x="393" y="561" on="1"/>
        <pt x="610" y="213" on="1"/>
        <pt x="391" y="94" on="1"/>
        <pt x="82" y="547" on="1"/>
      </contour>
      <contour>
        <pt x="588" y="573" on="1"/>
        <pt x="897" y="1028" on="1"/>
        <pt x="1116" y="909" on="1"/>
        <pt x="899" y="561" on="1"/>
        <pt x="1116" y="213" on="1"/>
        <pt x="897" y="94" on="1"/>
        <pt x="588" y="547" on="1"/>
      </contour>
    </TTGlyph>
    <TTGlyph name="guillemotright" xMin="84" yMin="94" xMax="1118" yMax="1028">
      <contour>
        <pt x="1118" y="547" on="1"/>
        <pt x="809" y="94" on="1"/>
        <pt x="590" y="213" on="1"/>
        <pt x="807" y="561" on="1"/>
        <pt x="590" y="909" on="1"/>
        <pt x="809" y="1028" on="1"/>
        <pt x="1118" y="573" on="1"/>
      </contour>
      <contour>
        <pt x="612" y="547" on="1"/>
        <pt x="303" y="94" on="1"/>
        <pt x="84" y="213" on="1"/>
        <pt x="301" y="561" on="1"/>
        <pt x="84" y="909" on="1"/>
        <pt x="303" y="1028" on="1"/>
        <pt x="612" y="573" on="1"/>
      </contour>
    </TTGlyph>
    <TTGlyph name="hyphen" xMin="61" yMin="424" xMax="598" yMax="674">
      <contour>
        <pt x="61" y="424" on="1"/>
        <pt x="61" y="674" on="1"/>
        <pt x="598" y="674" on="1"/>
        <pt x="598" y="424" on="1"/>
      </contour>
    </TTGlyph>
    <TTGlyph name="less" xMin="88" yMin="203" xMax="1040" yMax="1280">
      <contour>
        <pt x="1040" y="203" on="1"/>
        <pt x="88" y="641" on="1"/>
        <pt x="88" y="784" on="1"/>
        <pt x="1040" y="1280" on="1"/>
        <pt x="1040" y="1040" on="1"/>
        <pt x="397" y="723" on="1"/>
        <pt x="1040" y="442" on="1"/>
      </contour>
    </TTGlyph>
    <TTGlyph name="nine" xMin="63" yMin="-20" xMax="1055" yMax="1479">
      <contour>
        <pt x="1055" y="838" on="1"/>
        <pt x="1055" y="733" on="0"/>
        <pt x="1032" y="524" on="0"/>
        <pt x="973" y="334" on="0"/>
        <pt x="872" y="169" on="0"/>
        <pt x="717" y="49" on="0"/>
        <pt x="500" y="-20" on="0"/>
        <pt x="354" y="-20" on="1"/>
        <pt x="333" y="-20" on="0"/>
        <pt x="283" y="-18" on="0"/>
        <pt x="232" y="-15" on="0"/>
        <pt x="184" y="-10" on="0"/>
        <pt x="166" y="-6" on="1"/>
        <pt x="166" y="242" on="1"/>
        <pt x="203" y="232" on="0"/>
        <pt x="288" y="221" on="0"/>
        <pt x="332" y="221" on="1"/>
        <pt x="467" y="221" on="0"/>
        <pt x="641" y="288" on="0"/>
        <pt x="743" y="409" on="0"/>
        <pt x="786" y="577" on="0"/>
        <pt x="791" y="678" on="1"/>
        <pt x="778" y="678" on="1"/>
        <pt x="758" y="642" on="0"/>
        <pt x="702" y="580" on="0"/>
        <pt x="626" y="534" on="0"/>
        <pt x="530" y="508" on="0"/>
        <pt x="471" y="508" on="1"/>
        <pt x="376" y="508" on="0"/>
        <pt x="224" y="570" on="0"/>
        <pt x="119" y="688" on="0"/>
        <pt x="63" y="860" on="0"/>
        <pt x="63" y="971" on="1"/>
        <pt x="63" y="1090" on="0"/>
        <pt x="130" y="1278" on="0"/>
        <pt x="254" y="1409" on="0"/>
        <pt x="431" y="1479" on="0"/>
        <pt x="541" y="1479" on="1"/>
        <pt x="649" y="1479" on="0"/>
        <pt x="837" y="1402" on="0"/>
        <pt x="975" y="1244" on="0"/>
        <pt x="1055" y="1002" on="0"/>
      </contour>
      <contour>
        <pt x="547" y="1231" on="1"/>
        <pt x="506" y="1231" on="0"/>
        <pt x="438" y="1201" on="0"/>
        <pt x="389" y="1138" on="0"/>
        <pt x="362" y="1041" on="0"/>
        <pt x="362" y="975" on="1"/>
        <pt x="362" y="869" on="0"/>
        <pt x="452" y="745" on="0"/>
        <pt x="543" y="745" on="1"/>
        <pt x="589" y="745" on="0"/>
        <pt x="665" y="781" on="0"/>
        <pt x="719" y="839" on="0"/>
        <pt x="748" y="911" on="0"/>
        <pt x="748" y="948" on="1"/>
        <pt x="748" y="999" on="0"/>
        <pt x="723" y="1100" on="0"/>
        <pt x="672" y="1181" on="0"/>
        <pt x="597" y="1231" on="0"/>
      </contour>
    </TTGlyph>
    <TTGlyph name="numbersign" xMin="45" yMin="0" xMax="1278" yMax="1460">
      <contour>
        <pt x="999" y="844" on="1"/>
        <pt x="952" y="612" on="1"/>
        <pt x="1210" y="612" on="1"/>
        <pt x="1210" y="406" on="1"/>
        <pt x="913" y="406" on="1"/>
        <pt x="836" y="0" on="1"/>
        <pt x="616" y="0" on="1"/>
        <pt x="694" y="406" on="1"/>
        <pt x="500" y="406" on="1"/>
        <pt x="424" y="0" on="1"/>
        <pt x="209" y="0" on="1"/>
        <pt x="283" y="406" on="1"/>
        <pt x="45" y="406" on="1"/>
        <pt x="45" y="612" on="1"/>
        <pt x="322" y="612" on="1"/>
        <pt x="369" y="844" on="1"/>
        <pt x="117" y="844" on="1"/>
        <pt x="117" y="1053" on="1"/>
        <pt x="406" y="1053" on="1"/>
        <pt x="483" y="1460" on="1"/>
        <pt x="702" y="1460" on="1"/>
        <pt x="625" y="1053" on="1"/>
        <pt x="823" y="1053" on="1"/>
        <pt x="901" y="1460" on="1"/>
        <pt x="1116" y="1460" on="1"/>
        <pt x="1038" y="1053" on="1"/>
        <pt x="1278" y="1053" on="1"/>
        <pt x="1278" y="844" on="1"/>
      </contour>
      <contour>
        <pt x="539" y="612" on="1"/>
        <pt x="735" y="612" on="1"/>
        <pt x="782" y="844" on="1"/>
        <pt x="586" y="844" on="1"/>
      </contour>
    </TTGlyph>
    <TTGlyph name="one" xMin="92" yMin="0" xMax="817" yMax="1462">
      <contour>
        <pt x="817" y="0" on="1"/>
        <pt x="508" y="0" on="1"/>
        <pt x="508" y="846" on="1"/>
        <pt x="508" y="872" on="0"/>
        <pt x="509" y="945" on="0"/>
        <pt x="512" y="1024" on="0"/>
        <pt x="515" y="1104" on="0"/>
        <pt x="516" y="1137" on="1"/>
        <pt x="511" y="1131" on="0"/>
        <pt x="487" y="1107" on="0"/>
        <pt x="457" y="1078" on="0"/>
        <pt x="425" y="1048" on="0"/>
        <pt x="410" y="1036" on="1"/>
        <pt x="242" y="901" on="1"/>
        <pt x="92" y="1087" on="1"/>
        <pt x="563" y="1462" on="1"/>
        <pt x="817" y="1462" on="1"/>
      </contour>
    </TTGlyph>
    <TTGlyph name="parenleft" xMin="82" yMin="-324" xMax="633" yMax="1462">
      <contour>
        <pt x="82" y="561" on="1"/>
        <pt x="82" y="686" on="0"/>
        <pt x="118" y="929" on="0"/>
        <pt x="192" y="1158" on="0"/>
        <pt x="305" y="1369" on="0"/>
        <pt x="383" y="1462" on="1"/>
        <pt x="633" y="1462" on="1"/>
        <pt x="492" y="1269" on="0"/>
        <pt x="348" y="807" on="0"/>
        <pt x="348" y="563" on="1"/>
        <pt x="348" y="444" on="0"/>
        <pt x="384" y="208" on="0"/>
        <pt x="456" y="-18" on="0"/>
        <pt x="562" y="-230" on="0"/>
        <pt x="631" y="-324" on="1"/>
        <pt x="383" y="-324" on="1"/>
        <pt x="305" y="-234" on="0"/>
        <pt x="192" y="-28" on="0"/>
        <pt x="118" y="197" on="0"/>
        <pt x="82" y="437" on="0"/>
      </contour>
    </TTGlyph>
    <TTGlyph name="parenright" xMin="61" yMin="-324" xMax="612" yMax="1462">
      <contour>
        <pt x="612" y="561" on="1"/>
        <pt x="612" y="437" on="0"/>
        <pt x="576" y="197" on="0"/>
        <pt x="502" y="-28" on="0"/>
        <pt x="389" y="-234" on="0"/>
        <pt x="311" y="-324" on="1"/>
        <pt x="63" y="-324" on="1"/>
        <pt x="132" y="-230" on="0"/>
        <pt x="238" y="-18" on="0"/>
        <pt x="310" y="208" on="0"/>
        <pt x="346" y="444" on="0"/>
        <pt x="346" y="563" on="1"/>
        <pt x="346" y="807" on="0"/>
        <pt x="202" y="1269" on="0"/>
        <pt x="61" y="1462" on="1"/>
        <pt x="311" y="1462" on="1"/>
        <pt x="389" y="1369" on="0"/>
        <pt x="502" y="1158" on="0"/>
        <pt x="576" y="929" on="0"/>
        <pt x="612" y="686" on="0"/>
      </contour>
    </TTGlyph>
    <TTGlyph name="percent" xMin="63" yMin="-18" xMax="1741" yMax="1483">
      <contour>
        <pt x="315" y="1024" on="1"/>
        <pt x="315" y="897" on="0"/>
        <pt x="360" y="772" on="0"/>
        <pt x="410" y="772" on="1"/>
        <pt x="459" y="772" on="0"/>
        <pt x="506" y="896" on="0"/>
        <pt x="506" y="1024" on="1"/>
        <pt x="506" y="1274" on="0"/>
        <pt x="410" y="1274" on="1"/>
        <pt x="360" y="1274" on="0"/>
        <pt x="315" y="1151" on="0"/>
      </contour>
      <contour>
        <pt x="758" y="1026" on="1"/>
        <pt x="758" y="918" on="0"/>
        <pt x="717" y="746" on="0"/>
        <pt x="631" y="628" on="0"/>
        <pt x="499" y="565" on="0"/>
        <pt x="408" y="565" on="1"/>
        <pt x="323" y="565" on="0"/>
        <pt x="194" y="628" on="0"/>
        <pt x="107" y="746" on="0"/>
        <pt x="63" y="918" on="0"/>
        <pt x="63" y="1026" on="1"/>
        <pt x="63" y="1134" on="0"/>
        <pt x="103" y="1304" on="0"/>
        <pt x="188" y="1421" on="0"/>
        <pt x="318" y="1483" on="0"/>
        <pt x="408" y="1483" on="1"/>
        <pt x="494" y="1483" on="0"/>
        <pt x="625" y="1421" on="0"/>
        <pt x="713" y="1304" on="0"/>
        <pt x="758" y="1134" on="0"/>
      </contour>
      <contour>
        <pt x="1425" y="1462" on="1"/>
        <pt x="614" y="0" on="1"/>
        <pt x="375" y="0" on="1"/>
        <pt x="1186" y="1462" on="1"/>
      </contour>
      <contour>
        <pt x="1298" y="440" on="1"/>
        <pt x="1298" y="313" on="0"/>
        <pt x="1343" y="188" on="0"/>
        <pt x="1393" y="188" on="1"/>
        <pt x="1442" y="188" on="0"/>
        <pt x="1489" y="312" on="0"/>
        <pt x="1489" y="440" on="1"/>
        <pt x="1489" y="690" on="0"/>
        <pt x="1393" y="690" on="1"/>
        <pt x="1343" y="690" on="0"/>
        <pt x="1298" y="567" on="0"/>
      </contour>
      <contour>
        <pt x="1741" y="442" on="1"/>
        <pt x="1741" y="334" on="0"/>
        <pt x="1700" y="163" on="0"/>
        <pt x="1614" y="45" on="0"/>
        <pt x="1482" y="-18" on="0"/>
        <pt x="1391" y="-18" on="1"/>
        <pt x="1306" y="-18" on="0"/>
        <pt x="1178" y="45" on="0"/>
        <pt x="1091" y="163" on="0"/>
        <pt x="1047" y="334" on="0"/>
        <pt x="1047" y="442" on="1"/>
        <pt x="1047" y="550" on="0"/>
        <pt x="1087" y="720" on="0"/>
        <pt x="1171" y="837" on="0"/>
        <pt x="1301" y="899" on="0"/>
        <pt x="1391" y="899" on="1"/>
        <pt x="1477" y="899" on="0"/>
        <pt x="1608" y="837" on="0"/>
        <pt x="1696" y="720" on="0"/>
        <pt x="1741" y="550" on="0"/>
      </contour>
    </TTGlyph>
    <TTGlyph name="period" xMin="117" yMin="-27" xMax="467" yMax="313">
      <contour>
        <pt x="117" y="143" on="1"/>
        <pt x="117" y="190" on="0"/>
        <pt x="144" y="255" on="0"/>
        <pt x="192" y="295" on="0"/>
        <pt x="256" y="313" on="0"/>
        <pt x="293" y="313" on="1"/>
        <pt x="328" y="313" on="0"/>
        <pt x="391" y="295" on="0"/>
        <pt x="439" y="255" on="0"/>
        <pt x="467" y="190" on="0"/>
        <pt x="467" y="143" on="1"/>
        <pt x="467" y="98" on="0"/>
        <pt x="439" y="34" on="0"/>
        <pt x="391" y="-8" on="0"/>
        <pt x="328" y="-27" on="0"/>
        <pt x="293" y="-27" on="1"/>
        <pt x="256" y="-27" on="0"/>
        <pt x="192" y="-8" on="0"/>
        <pt x="144" y="34" on="0"/>
        <pt x="117" y="98" on="0"/>
      </contour>
    </TTGlyph>
    <TTGlyph name="plus" xMin="88" yMin="248" xMax="1040" yMax="1200">
      <contour>
        <pt x="455" y="612" on="1"/>
        <pt x="88" y="612" on="1"/>
        <pt x="88" y="831" on="1"/>
        <pt x="455" y="831" on="1"/>
        <pt x="455" y="1200" on="1"/>
        <pt x="674" y="1200" on="1"/>
        <pt x="674" y="831" on="1"/>
        <pt x="1040" y="831" on="1"/>
        <pt x="1040" y="612" on="1"/>
        <pt x="674" y="612" on="1"/>
        <pt x="674" y="248" on="1"/>
        <pt x="455" y="248" on="1"/>
      </contour>
    </TTGlyph>
    <TTGlyph name="question" xMin="25" yMin="-27" xMax="885" yMax="1483">
      <contour>
        <pt x="264" y="485" on="1"/>
        <pt x="264" y="559" on="1"/>
        <pt x="264" y="610" on="0"/>
        <pt x="285" y="693" on="0"/>
        <pt x="328" y="768" on="0"/>
        <pt x="396" y="839" on="0"/>
        <pt x="444" y="877" on="1"/>
        <pt x="486" y="910" on="0"/>
        <pt x="544" y="962" on="0"/>
        <pt x="580" y="1013" on="0"/>
        <pt x="596" y="1069" on="0"/>
        <pt x="596" y="1106" on="1"/>
        <pt x="596" y="1163" on="0"/>
        <pt x="519" y="1237" on="0"/>
        <pt x="440" y="1237" on="1"/>
        <pt x="371" y="1237" on="0"/>
        <pt x="212" y="1179" on="0"/>
        <pt x="127" y="1137" on="1"/>
        <pt x="25" y="1358" on="1"/>
        <pt x="68" y="1383" on="0"/>
        <pt x="169" y="1428" on="0"/>
        <pt x="278" y="1463" on="0"/>
        <pt x="390" y="1483" on="0"/>
        <pt x="444" y="1483" on="1"/>
        <pt x="546" y="1483" on="0"/>
        <pt x="710" y="1434" on="0"/>
        <pt x="824" y="1340" on="0"/>
        <pt x="885" y="1206" on="0"/>
        <pt x="885" y="1120" on="1"/>
        <pt x="885" y="1057" on="0"/>
        <pt x="857" y="958" on="0"/>
        <pt x="802" y="873" on="0"/>
        <pt x="719" y="794" on="0"/>
        <pt x="664" y="750" on="1"/>
        <pt x="622" y="717" on="0"/>
        <pt x="569" y="668" on="0"/>
        <pt x="539" y="624" on="0"/>
        <pt x="528" y="577" on="0"/>
        <pt x="528" y="545" on="1"/>
        <pt x="528" y="485" on="1"/>
      </contour>
      <contour>
        <pt x="231" y="143" on="1"/>
        <pt x="231" y="190" on="0"/>
        <pt x="258" y="255" on="0"/>
        <pt x="306" y="295" on="0"/>
        <pt x="371" y="313" on="0"/>
        <pt x="408" y="313" on="1"/>
        <pt x="443" y="313" on="0"/>
        <pt x="506" y="295" on="0"/>
        <pt x="554" y="255" on="0"/>
        <pt x="582" y="190" on="0"/>
        <pt x="582" y="143" on="1"/>
        <pt x="582" y="98" on="0"/>
        <pt x="554" y="34" on="0"/>
        <pt x="506" y="-8" on="0"/>
        <pt x="443" y="-27" on="0"/>
        <pt x="408" y="-27" on="1"/>
        <pt x="371" y="-27" on="0"/>
        <pt x="306" y="-8" on="0"/>
        <pt x="258" y="34" on="0"/>
        <pt x="231" y="98" on="0"/>
      </contour>
    </TTGlyph>
    <TTGlyph name="quotedbl" xMin="133" yMin="934" xMax="834" yMax="1462">
      <contour>
        <pt x="412" y="1462" on="1"/>
        <pt x="371" y="934" on="1"/>
        <pt x="174" y="934" on="1"/>
        <pt x="133" y="1462" on="1"/>
      </contour>
      <contour>
        <pt x="834" y="1462" on="1"/>
        <pt x="793" y="934" on="1"/>
        <pt x="596" y="934" on="1"/>
        <pt x="555" y="1462" on="1"/>
      </contour>
    </TTGlyph>
    <TTGlyph name="quotesingle" xMin="133" yMin="934" xMax="412" yMax="1462">
      <contour>
        <pt x="412" y="1462" on="1"/>
        <pt x="371" y="934" on="1"/>
        <pt x="174" y="934" on="1"/>
        <pt x="133" y="1462" on="1"/>
      </contour>
    </TTGlyph>
    <TTGlyph name="semicolon" xMin="63" yMin="-264" xMax="467" yMax="1139">
      <contour>
        <pt x="444" y="238" on="1"/>
        <pt x="459" y="215" on="1"/>
        <pt x="445" y="161" on="0"/>
        <pt x="406" y="39" on="0"/>
        <pt x="359" y="-85" on="0"/>
        <pt x="308" y="-208" on="0"/>
        <pt x="283" y="-264" on="1"/>
        <pt x="63" y="-264" on="1"/>
        <pt x="78" y="-203" on="0"/>
        <pt x="107" y="-71" on="0"/>
        <pt x="134" y="60" on="0"/>
        <pt x="156" y="185" on="0"/>
        <pt x="164" y="238" on="1"/>
      </contour>
      <contour>
        <pt x="117" y="969" on="1"/>
        <pt x="117" y="1016" on="0"/>
        <pt x="144" y="1081" on="0"/>
        <pt x="192" y="1121" on="0"/>
        <pt x="256" y="1139" on="0"/>
        <pt x="293" y="1139" on="1"/>
        <pt x="328" y="1139" on="0"/>
        <pt x="391" y="1121" on="0"/>
        <pt x="439" y="1081" on="0"/>
        <pt x="467" y="1016" on="0"/>
        <pt x="467" y="969" on="1"/>
        <pt x="467" y="924" on="0"/>
        <pt x="439" y="859" on="0"/>
        <pt x="391" y="818" on="0"/>
        <pt x="328" y="799" on="0"/>
        <pt x="293" y="799" on="1"/>
        <pt x="256" y="799" on="0"/>
        <pt x="192" y="818" on="0"/>
        <pt x="144" y="859" on="0"/>
        <pt x="117" y="924" on="0"/>
      </contour>
    </TTGlyph>
    <TTGlyph name="seven" xMin="55" yMin="0" xMax="1063" yMax="1460">
      <contour>
        <pt x="207" y="0" on="1"/>
        <pt x="727" y="1200" on="1"/>
        <pt x="55" y="1200" on="1"/>
        <pt x="55" y="1460" on="1"/>
        <pt x="1063" y="1460" on="1"/>
        <pt x="1063" y="1266" on="1"/>
        <pt x="530" y="0" on="1"/>
      </contour>
    </TTGlyph>
    <TTGlyph name="six" xMin="76" yMin="-20" xMax="1067" yMax="1479">
      <contour>
        <pt x="76" y="621" on="1"/>
        <pt x="76" y="726" on="0"/>
        <pt x="99" y="934" on="0"/>
        <pt x="158" y="1125" on="0"/>
        <pt x="259" y="1289" on="0"/>
        <pt x="414" y="1410" on="0"/>
        <pt x="631" y="1479" on="0"/>
        <pt x="776" y="1479" on="1"/>
        <pt x="797" y="1479" on="0"/>
        <pt x="847" y="1477" on="0"/>
        <pt x="898" y="1474" on="0"/>
        <pt x="946" y="1468" on="0"/>
        <pt x="965" y="1464" on="1"/>
        <pt x="965" y="1217" on="1"/>
        <pt x="927" y="1226" on="0"/>
        <pt x="842" y="1237" on="0"/>
        <pt x="799" y="1237" on="1"/>
        <pt x="664" y="1237" on="0"/>
        <pt x="490" y="1170" on="0"/>
        <pt x="388" y="1050" on="0"/>
        <pt x="345" y="882" on="0"/>
        <pt x="340" y="780" on="1"/>
        <pt x="352" y="780" on="1"/>
        <pt x="372" y="816" on="0"/>
        <pt x="429" y="879" on="0"/>
        <pt x="505" y="924" on="0"/>
        <pt x="600" y="950" on="0"/>
        <pt x="659" y="950" on="1"/>
        <pt x="754" y="950" on="0"/>
        <pt x="906" y="888" on="0"/>
        <pt x="1011" y="770" on="0"/>
        <pt x="1067" y="598" on="0"/>
        <pt x="1067" y="487" on="1"/>
        <pt x="1067" y="368" on="0"/>
        <pt x="1000" y="180" on="0"/>
        <pt x="876" y="49" on="0"/>
        <pt x="700" y="-20" on="0"/>
        <pt x="590" y="-20" on="1"/>
        <pt x="482" y="-20" on="0"/>
        <pt x="294" y="57" on="0"/>
        <pt x="155" y="215" on="0"/>
        <pt x="76" y="456" on="0"/>
      </contour>
      <contour>
        <pt x="584" y="227" on="1"/>
        <pt x="625" y="227" on="0"/>
        <pt x="692" y="258" on="0"/>
        <pt x="741" y="321" on="0"/>
        <pt x="768" y="417" on="0"/>
        <pt x="768" y="483" on="1"/>
        <pt x="768" y="590" on="0"/>
        <pt x="679" y="713" on="0"/>
        <pt x="588" y="713" on="1"/>
        <pt x="542" y="713" on="0"/>
        <pt x="466" y="677" on="0"/>
        <pt x="412" y="619" on="0"/>
        <pt x="383" y="547" on="0"/>
        <pt x="383" y="510" on="1"/>
        <pt x="383" y="459" on="0"/>
        <pt x="408" y="358" on="0"/>
        <pt x="459" y="277" on="0"/>
        <pt x="534" y="227" on="0"/>
      </contour>
    </TTGlyph>
    <TTGlyph name="slash" xMin="14" yMin="0" xMax="836" yMax="1462">
      <contour>
        <pt x="836" y="1462" on="1"/>
        <pt x="291" y="0" on="1"/>
        <pt x="14" y="0" on="1"/>
        <pt x="559" y="1462" on="1"/>
      </contour>
    </TTGlyph>
    <TTGlyph name="three" xMin="57" yMin="-20" xMax="1049" yMax="1483">
      <contour>
        <pt x="1006" y="1135" on="1"/>
        <pt x="1006" y="1059" on="0"/>
        <pt x="957" y="938" on="0"/>
        <pt x="872" y="847" on="0"/>
        <pt x="757" y="786" on="0"/>
        <pt x="690" y="770" on="1"/>
        <pt x="690" y="764" on="1"/>
        <pt x="867" y="742" on="0"/>
        <pt x="1049" y="571" on="0"/>
        <pt x="1049" y="426" on="1"/>
        <pt x="1049" y="330" on="0"/>
        <pt x="980" y="167" on="0"/>
        <pt x="837" y="47" on="0"/>
        <pt x="620" y="-20" on="0"/>
        <pt x="473" y="-20" on="1"/>
        <pt x="355" y="-20" on="0"/>
        <pt x="147" y="19" on="0"/>
        <pt x="57" y="59" on="1"/>
        <pt x="57" y="322" on="1"/>
        <pt x="102" y="298" on="0"/>
        <pt x="202" y="262" on="0"/>
        <pt x="302" y="237" on="0"/>
        <pt x="399" y="225" on="0"/>
        <pt x="442" y="225" on="1"/>
        <pt x="528" y="225" on="0"/>
        <pt x="642" y="257" on="0"/>
        <pt x="710" y="315" on="0"/>
        <pt x="739" y="396" on="0"/>
        <pt x="739" y="444" on="1"/>
        <pt x="739" y="489" on="0"/>
        <pt x="702" y="562" on="0"/>
        <pt x="619" y="613" on="0"/>
        <pt x="485" y="641" on="0"/>
        <pt x="387" y="641" on="1"/>
        <pt x="283" y="641" on="1"/>
        <pt x="283" y="858" on="1"/>
        <pt x="385" y="858" on="1"/>
        <pt x="477" y="858" on="0"/>
        <pt x="599" y="891" on="0"/>
        <pt x="672" y="948" on="0"/>
        <pt x="702" y="1024" on="0"/>
        <pt x="702" y="1067" on="1"/>
        <pt x="702" y="1145" on="0"/>
        <pt x="605" y="1233" on="0"/>
        <pt x="500" y="1233" on="1"/>
        <pt x="452" y="1233" on="0"/>
        <pt x="369" y="1214" on="0"/>
        <pt x="298" y="1185" on="0"/>
        <pt x="239" y="1150" on="0"/>
        <pt x="215" y="1133" on="1"/>
        <pt x="59" y="1339" on="1"/>
        <pt x="101" y="1370" on="0"/>
        <pt x="200" y="1422" on="0"/>
        <pt x="316" y="1461" on="0"/>
        <pt x="450" y="1483" on="0"/>
        <pt x="526" y="1483" on="1"/>
        <pt x="634" y="1483" on="0"/>
        <pt x="811" y="1436" on="0"/>
        <pt x="937" y="1347" on="0"/>
        <pt x="1006" y="1218" on="0"/>
      </contour>
    </TTGlyph>
    <TTGlyph name="two" xMin="78" yMin="0" xMax="1063" yMax="1483">
      <contour>
        <pt x="1063" y="0" on="1"/>
        <pt x="82" y="0" on="1"/>
        <pt x="82" y="215" on="1"/>
        <pt x="426" y="586" on="1"/>
        <pt x="491" y="656" on="0"/>
        <pt x="597" y="774" on="0"/>
        <pt x="673" y="886" on="0"/>
        <pt x="715" y="1002" on="0"/>
        <pt x="715" y="1069" on="1"/>
        <pt x="715" y="1143" on="0"/>
        <pt x="626" y="1225" on="0"/>
        <pt x="551" y="1225" on="1"/>
        <pt x="472" y="1225" on="0"/>
        <pt x="326" y="1147" on="0"/>
        <pt x="246" y="1075" on="1"/>
        <pt x="78" y="1274" on="1"/>
        <pt x="123" y="1315" on="0"/>
        <pt x="221" y="1390" on="0"/>
        <pt x="339" y="1448" on="0"/>
        <pt x="481" y="1483" on="0"/>
        <pt x="569" y="1483" on="1"/>
        <pt x="674" y="1483" on="0"/>
        <pt x="841" y="1425" on="0"/>
        <pt x="959" y="1318" on="0"/>
        <pt x="1022" y="1166" on="0"/>
        <pt x="1022" y="1071" on="1"/>
        <pt x="1022" y="985" on="0"/>
        <pt x="962" y="828" on="0"/>
        <pt x="858" y="677" on="0"/>
        <pt x="721" y="528" on="0"/>
        <pt x="643" y="451" on="1"/>
        <pt x="467" y="274" on="1"/>
        <pt x="467" y="260" on="1"/>
        <pt x="1063" y="260" on="1"/>
      </contour>
    </TTGlyph>
    <TTGlyph name="uni00AD" xMin="61" yMin="424" xMax="598" yMax="674">
      <contour>
        <pt x="61" y="424" on="1"/>
        <pt x="61" y="674" on="1"/>
        <pt x="598" y="674" on="1"/>
        <pt x="598" y="424" on="1"/>
      </contour>
    </TTGlyph>
    <TTGlyph name="uni1780" xMin="150" yMin="0" xMax="1150" yMax="1200">
      <contour>
        <pt x="1150" y="1200" on="1"/>
        <pt x="1150" y="1012" on="1"/>
        <pt x="150" y="1012" on="1"/>
        <pt x="150" y="1200" on="1"/>
      </contour>
      <contour>
        <pt x="438" y="570" on="1"/>
        <pt x="438" y="0" on="1"/>
        <pt x="150" y="0" on="1"/>
        <pt x="150" y="570" on="1"/>
        <pt x="150" y="893" on="0"/>
        <pt x="650" y="893" on="1"/>
        <pt x="1150" y="893" on="0"/>
        <pt x="1150" y="570" on="1"/>
        <pt x="1150" y="0" on="1"/>
        <pt x="862" y="0" on="1"/>
        <pt x="862" y="570" on="1"/>
        <pt x="862" y="705" on="0"/>
        <pt x="650" y="705" on="1"/>
        <pt x="438" y="705" on="0"/>
      </contour>
    </TTGlyph>
    <TTGlyph name="uni1781" xMin="150" yMin="0" xMax="1150" yMax="1200">
      <contour>
        <pt x="438" y="453" on="1"/>
        <pt x="438" y="323" on="1"/>
        <pt x="438" y="188" on="0"/>
        <pt x="650" y="188" on="1"/>
        <pt x="862" y="188" on="0"/>
        <pt x="862" y="323" on="1"/>
        <pt x="862" y="480" on="1"/>
        <pt x="1150" y="480" on="1"/>
        <pt x="1150" y="323" on="1"/>
        <pt x="1150" y="0" on="0"/>
        <pt x="650" y="0" on="1"/>
        <pt x="150" y="0" on="0"/>
        <pt x="150" y="323" on="1"/>
        <pt x="150" y="586" on="1"/>
        <pt x="556" y="656" on="1"/>
        <pt x="862" y="717" on="0"/>
        <pt x="862" y="877" on="1"/>
        <pt x="862" y="1012" on="0"/>
        <pt x="650" y="1012" on="1"/>
        <pt x="438" y="1012" on="0"/>
        <pt x="438" y="897" on="1"/>
        <pt x="438" y="863" on="0"/>
        <pt x="538" y="863" on="1"/>
        <pt x="538" y="719" on="1"/>
        <pt x="338" y="719" on="1"/>
        <pt x="150" y="719" on="0"/>
        <pt x="150" y="863" on="1"/>
        <pt x="150" y="897" on="1"/>
        <pt x="150" y="1200" on="0"/>
        <pt x="650" y="1200" on="1"/>
        <pt x="1150" y="1200" on="0"/>
        <pt x="1150" y="877" on="1"/>
        <pt x="1150" y="575" on="0"/>
        <pt x="566" y="479" on="1"/>
      </contour>
    </TTGlyph>
    <TTGlyph name="uni1782" xMin="150" yMin="0" xMax="1150" yMax="1200">
      <contour>
        <pt x="1150" y="1200" on="1"/>
        <pt x="1150" y="1012" on="1"/>
        <pt x="150" y="1012" on="1"/>
        <pt x="150" y="1200" on="1"/>
      </contour>
      <contour>
        <pt x="438" y="377" on="1"/>
        <pt x="495" y="450" on="0"/>
        <pt x="573" y="450" on="1"/>
        <pt x="700" y="450" on="1"/>
        <pt x="700" y="262" on="1"/>
        <pt x="596" y="262" on="1"/>
        <pt x="493" y="262" on="0"/>
        <pt x="451" y="197" on="1"/>
        <pt x="444" y="186" on="0"/>
        <pt x="438" y="176" on="1"/>
        <pt x="438" y="0" on="1"/>
        <pt x="150" y="0" on="1"/>
        <pt x="150" y="570" on="1"/>
        <pt x="150" y="893" on="0"/>
        <pt x="650" y="893" on="1"/>
        <pt x="1150" y="893" on="0"/>
        <pt x="1150" y="570" on="1"/>
        <pt x="1150" y="0" on="1"/>
        <pt x="862" y="0" on="1"/>
        <pt x="862" y="570" on="1"/>
        <pt x="862" y="705" on="0"/>
        <pt x="650" y="705" on="1"/>
        <pt x="438" y="705" on="0"/>
        <pt x="438" y="570" on="1"/>
      </contour>
    </TTGlyph>
    <TTGlyph name="uni1783" xMin="59" yMin="0" xMax="1750" yMax="1200">
      <contour>
        <pt x="812" y="806" on="1"/>
        <pt x="707" y="905" on="1"/>
        <pt x="655" y="955" on="1"/>
        <pt x="624" y="984" on="0"/>
        <pt x="624" y="1012" on="1"/>
        <pt x="624" y="1033" on="0"/>
        <pt x="640" y="1053" on="1"/>
        <pt x="677" y="1102" on="1"/>
        <pt x="752" y="1200" on="1"/>
        <pt x="1100" y="1200" on="1"/>
        <pt x="1100" y="1012" on="1"/>
        <pt x="802" y="1012" on="1"/>
        <pt x="1100" y="840" on="1"/>
        <pt x="1100" y="323" on="1"/>
        <pt x="1100" y="188" on="0"/>
        <pt x="1281" y="188" on="1"/>
        <pt x="1462" y="188" on="0"/>
        <pt x="1462" y="323" on="1"/>
        <pt x="1462" y="806" on="1"/>
        <pt x="1357" y="905" on="1"/>
        <pt x="1305" y="955" on="1"/>
        <pt x="1274" y="984" on="0"/>
        <pt x="1274" y="1012" on="1"/>
        <pt x="1274" y="1033" on="0"/>
        <pt x="1290" y="1053" on="1"/>
        <pt x="1327" y="1102" on="1"/>
        <pt x="1402" y="1200" on="1"/>
        <pt x="1750" y="1200" on="1"/>
        <pt x="1750" y="1012" on="1"/>
        <pt x="1452" y="1012" on="1"/>
        <pt x="1750" y="840" on="1"/>
        <pt x="1750" y="323" on="1"/>
        <pt x="1750" y="0" on="0"/>
        <pt x="1281" y="0" on="1"/>
        <pt x="1062" y="0" on="0"/>
        <pt x="956" y="98" on="1"/>
        <pt x="850" y="0" on="0"/>
        <pt x="625" y="0" on="1"/>
        <pt x="150" y="0" on="0"/>
        <pt x="150" y="323" on="1"/>
        <pt x="150" y="965" on="1"/>
        <pt x="150" y="1012" on="0"/>
        <pt x="59" y="1012" on="1"/>
        <pt x="59" y="1200" on="1"/>
        <pt x="238" y="1200" on="1"/>
        <pt x="438" y="1200" on="0"/>
        <pt x="438" y="1098" on="1"/>
        <pt x="438" y="323" on="1"/>
        <pt x="438" y="188" on="0"/>
        <pt x="625" y="188" on="1"/>
        <pt x="812" y="188" on="0"/>
        <pt x="812" y="323" on="1"/>
      </contour>
    </TTGlyph>
    <TTGlyph name="uni1784" xMin="60" yMin="0" xMax="1150" yMax="1400">
      <contour>
        <pt x="150" y="485" on="1"/>
        <pt x="150" y="526" on="0"/>
        <pt x="60" y="526" on="1"/>
        <pt x="60" y="720" on="1"/>
        <pt x="250" y="720" on="1"/>
        <pt x="438" y="720" on="0"/>
        <pt x="438" y="526" on="1"/>
        <pt x="438" y="261" on="1"/>
        <pt x="651" y="455" on="1"/>
        <pt x="862" y="263" on="1"/>
        <pt x="862" y="720" on="1"/>
        <pt x="862" y="769" on="0"/>
        <pt x="828" y="834" on="1"/>
        <pt x="686" y="785" on="0"/>
        <pt x="530" y="785" on="1"/>
        <pt x="150" y="785" on="0"/>
        <pt x="150" y="1039" on="1"/>
        <pt x="150" y="1400" on="1"/>
        <pt x="438" y="1400" on="1"/>
        <pt x="438" y="1039" on="1"/>
        <pt x="438" y="943" on="0"/>
        <pt x="530" y="943" on="1"/>
        <pt x="604" y="943" on="0"/>
        <pt x="705" y="973" on="1"/>
        <pt x="630" y="1004" on="0"/>
        <pt x="630" y="1056" on="1"/>
        <pt x="630" y="1200" on="0"/>
        <pt x="820" y="1200" on="1"/>
        <pt x="1050" y="1200" on="0"/>
        <pt x="1050" y="1056" on="1"/>
        <pt x="1050" y="994" on="0"/>
        <pt x="982" y="937" on="1"/>
        <pt x="1003" y="930" on="0"/>
        <pt x="1025" y="920" on="1"/>
        <pt x="1150" y="867" on="0"/>
        <pt x="1150" y="720" on="1"/>
        <pt x="1150" y="0" on="1"/>
        <pt x="882" y="0" on="1"/>
        <pt x="651" y="210" on="1"/>
        <pt x="419" y="0" on="1"/>
        <pt x="150" y="0" on="1"/>
      </contour>
    </TTGlyph>
    <TTGlyph name="uni1785" xMin="50" yMin="0" xMax="1150" yMax="1200">
      <contour>
        <pt x="862" y="610" on="1"/>
        <pt x="862" y="732" on="1"/>
        <pt x="800" y="732" on="0"/>
        <pt x="800" y="671" on="1"/>
        <pt x="800" y="610" on="0"/>
      </contour>
      <contour>
        <pt x="150" y="786" on="1"/>
        <pt x="122" y="822" on="1"/>
        <pt x="50" y="914" on="0"/>
        <pt x="50" y="955" on="1"/>
        <pt x="50" y="992" on="0"/>
        <pt x="68" y="1017" on="1"/>
        <pt x="218" y="1200" on="1"/>
        <pt x="1150" y="1200" on="1"/>
        <pt x="1150" y="1012" on="1"/>
        <pt x="263" y="1012" on="1"/>
        <pt x="242" y="987" on="1"/>
        <pt x="237" y="982" on="0"/>
        <pt x="237" y="974" on="1"/>
        <pt x="237" y="942" on="0"/>
        <pt x="438" y="820" on="1"/>
        <pt x="438" y="323" on="1"/>
        <pt x="438" y="138" on="0"/>
        <pt x="650" y="138" on="1"/>
        <pt x="862" y="138" on="0"/>
        <pt x="862" y="323" on="1"/>
        <pt x="862" y="472" on="1"/>
        <pt x="652" y="472" on="0"/>
        <pt x="652" y="671" on="1"/>
        <pt x="652" y="870" on="0"/>
        <pt x="912" y="870" on="1"/>
        <pt x="1150" y="870" on="0"/>
        <pt x="1150" y="748" on="1"/>
        <pt x="1150" y="323" on="1"/>
        <pt x="1150" y="0" on="0"/>
        <pt x="650" y="0" on="1"/>
        <pt x="150" y="0" on="0"/>
        <pt x="150" y="323" on="1"/>
      </contour>
    </TTGlyph>
    <TTGlyph name="uni1786" xMin="50" yMin="0" xMax="1150" yMax="1200">
      <contour>
        <pt x="862" y="610" on="1"/>
        <pt x="862" y="732" on="1"/>
        <pt x="800" y="732" on="0"/>
        <pt x="800" y="671" on="1"/>
        <pt x="800" y="610" on="0"/>
      </contour>
      <contour>
        <pt x="150" y="786" on="1"/>
        <pt x="122" y="822" on="1"/>
        <pt x="50" y="914" on="0"/>
        <pt x="50" y="955" on="1"/>
        <pt x="50" y="992" on="0"/>
        <pt x="68" y="1017" on="1"/>
        <pt x="218" y="1200" on="1"/>
        <pt x="1150" y="1200" on="1"/>
        <pt x="1150" y="1012" on="1"/>
        <pt x="263" y="1012" on="1"/>
        <pt x="242" y="987" on="1"/>
        <pt x="237" y="982" on="0"/>
        <pt x="237" y="974" on="1"/>
        <pt x="237" y="942" on="0"/>
        <pt x="438" y="820" on="1"/>
        <pt x="438" y="400" on="1"/>
        <pt x="537" y="400" on="1"/>
        <pt x="636" y="400" on="0"/>
        <pt x="678" y="323" on="1"/>
        <pt x="728" y="231" on="0"/>
        <pt x="795" y="188" on="0"/>
        <pt x="820" y="188" on="1"/>
        <pt x="845" y="188" on="0"/>
        <pt x="862" y="231" on="0"/>
        <pt x="862" y="323" on="1"/>
        <pt x="862" y="472" on="1"/>
        <pt x="652" y="472" on="0"/>
        <pt x="652" y="671" on="1"/>
        <pt x="652" y="870" on="0"/>
        <pt x="912" y="870" on="1"/>
        <pt x="1150" y="870" on="0"/>
        <pt x="1150" y="748" on="1"/>
        <pt x="1150" y="323" on="1"/>
        <pt x="1150" y="145" on="0"/>
        <pt x="990" y="0" on="0"/>
        <pt x="820" y="0" on="1"/>
        <pt x="690" y="0" on="0"/>
        <pt x="615" y="93" on="1"/>
        <pt x="514" y="212" on="1"/>
        <pt x="438" y="212" on="1"/>
        <pt x="438" y="0" on="1"/>
        <pt x="150" y="0" on="1"/>
        <pt x="50" y="162" on="0"/>
        <pt x="50" y="281" on="1"/>
        <pt x="50" y="400" on="0"/>
        <pt x="150" y="400" on="1"/>
      </contour>
    </TTGlyph>
    <TTGlyph name="uni1787" xMin="50" yMin="0" xMax="1150" yMax="1400">
      <contour>
        <pt x="862" y="893" on="1"/>
        <pt x="1150" y="893" on="1"/>
        <pt x="1150" y="0" on="1"/>
        <pt x="882" y="0" on="1"/>
        <pt x="651" y="210" on="1"/>
        <pt x="419" y="0" on="1"/>
        <pt x="150" y="0" on="1"/>
        <pt x="150" y="786" on="1"/>
        <pt x="122" y="822" on="1"/>
        <pt x="50" y="914" on="0"/>
        <pt x="50" y="955" on="1"/>
        <pt x="50" y="992" on="0"/>
        <pt x="68" y="1017" on="1"/>
        <pt x="218" y="1200" on="1"/>
        <pt x="800" y="1200" on="1"/>
        <pt x="862" y="1200" on="0"/>
        <pt x="862" y="1250" on="1"/>
        <pt x="862" y="1400" on="1"/>
        <pt x="1150" y="1400" on="1"/>
        <pt x="1150" y="1250" on="1"/>
        <pt x="1150" y="1012" on="0"/>
        <pt x="930" y="1012" on="1"/>
        <pt x="263" y="1012" on="1"/>
        <pt x="242" y="987" on="1"/>
        <pt x="237" y="982" on="0"/>
        <pt x="237" y="974" on="1"/>
        <pt x="237" y="942" on="0"/>
        <pt x="438" y="820" on="1"/>
        <pt x="438" y="261" on="1"/>
        <pt x="651" y="455" on="1"/>
        <pt x="862" y="263" on="1"/>
      </contour>
    </TTGlyph>
    <TTGlyph name="uni1788" xMin="150" yMin="0" xMax="2412" yMax="1200">
      <contour>
        <pt x="438" y="310" on="1"/>
        <pt x="438" y="138" on="1"/>
        <pt x="530" y="138" on="0"/>
        <pt x="530" y="249" on="1"/>
        <pt x="530" y="310" on="0"/>
      </contour>
      <contour>
        <pt x="2124" y="806" on="1"/>
        <pt x="2019" y="905" on="1"/>
        <pt x="1967" y="955" on="1"/>
        <pt x="1936" y="984" on="0"/>
        <pt x="1936" y="1012" on="1"/>
        <pt x="1936" y="1033" on="0"/>
        <pt x="1952" y="1053" on="1"/>
        <pt x="1989" y="1102" on="1"/>
        <pt x="2064" y="1200" on="1"/>
        <pt x="2412" y="1200" on="1"/>
        <pt x="2412" y="1012" on="1"/>
        <pt x="2114" y="1012" on="1"/>
        <pt x="2412" y="840" on="1"/>
        <pt x="2412" y="323" on="1"/>
        <pt x="2412" y="0" on="0"/>
        <pt x="1943" y="0" on="1"/>
        <pt x="1724" y="0" on="0"/>
        <pt x="1618" y="98" on="1"/>
        <pt x="1512" y="0" on="0"/>
        <pt x="1287" y="0" on="1"/>
        <pt x="812" y="0" on="0"/>
        <pt x="812" y="323" on="1"/>
        <pt x="812" y="877" on="1"/>
        <pt x="812" y="1012" on="0"/>
        <pt x="625" y="1012" on="1"/>
        <pt x="438" y="1012" on="0"/>
        <pt x="438" y="877" on="1"/>
        <pt x="438" y="448" on="1"/>
        <pt x="648" y="448" on="0"/>
        <pt x="648" y="249" on="1"/>
        <pt x="648" y="0" on="0"/>
        <pt x="438" y="0" on="1"/>
        <pt x="294" y="0" on="1"/>
        <pt x="150" y="0" on="0"/>
        <pt x="150" y="122" on="1"/>
        <pt x="150" y="877" on="1"/>
        <pt x="150" y="1200" on="0"/>
        <pt x="625" y="1200" on="1"/>
        <pt x="1100" y="1200" on="0"/>
        <pt x="1100" y="877" on="1"/>
        <pt x="1100" y="323" on="1"/>
        <pt x="1100" y="188" on="0"/>
        <pt x="1287" y="188" on="1"/>
        <pt x="1474" y="188" on="0"/>
        <pt x="1474" y="323" on="1"/>
        <pt x="1474" y="806" on="1"/>
        <pt x="1369" y="905" on="1"/>
        <pt x="1317" y="955" on="1"/>
        <pt x="1286" y="984" on="0"/>
        <pt x="1286" y="1012" on="1"/>
        <pt x="1286" y="1033" on="0"/>
        <pt x="1302" y="1053" on="1"/>
        <pt x="1339" y="1102" on="1"/>
        <pt x="1414" y="1200" on="1"/>
        <pt x="1762" y="1200" on="1"/>
        <pt x="1762" y="1012" on="1"/>
        <pt x="1464" y="1012" on="1"/>
        <pt x="1762" y="840" on="1"/>
        <pt x="1762" y="323" on="1"/>
        <pt x="1762" y="188" on="0"/>
        <pt x="1943" y="188" on="1"/>
        <pt x="2124" y="188" on="0"/>
        <pt x="2124" y="323" on="1"/>
      </contour>
    </TTGlyph>
    <TTGlyph name="uni1789" xMin="150" yMin="-500" xMax="1800" yMax="1200">
      <contour>
        <pt x="1400" y="-100" on="1"/>
        <pt x="1800" y="-100" on="1"/>
        <pt x="1800" y="-260" on="1"/>
        <pt x="1800" y="-500" on="0"/>
        <pt x="1422" y="-500" on="1"/>
        <pt x="1185" y="-500" on="0"/>
        <pt x="864" y="-300" on="0"/>
        <pt x="600" y="-300" on="1"/>
        <pt x="150" y="-300" on="1"/>
        <pt x="150" y="-130" on="1"/>
        <pt x="600" y="-130" on="1"/>
        <pt x="947" y="-130" on="0"/>
        <pt x="1281" y="-330" on="0"/>
        <pt x="1422" y="-330" on="1"/>
        <pt x="1512" y="-330" on="0"/>
        <pt x="1512" y="-260" on="1"/>
        <pt x="1512" y="-220" on="1"/>
        <pt x="1400" y="-220" on="1"/>
      </contour>
      <contour>
        <pt x="438" y="310" on="1"/>
        <pt x="438" y="138" on="1"/>
        <pt x="530" y="138" on="0"/>
        <pt x="530" y="249" on="1"/>
        <pt x="530" y="310" on="0"/>
      </contour>
      <contour>
        <pt x="1072" y="1112" on="1"/>
        <pt x="1163" y="1200" on="0"/>
        <pt x="1331" y="1200" on="1"/>
        <pt x="1800" y="1200" on="0"/>
        <pt x="1800" y="877" on="1"/>
        <pt x="1800" y="0" on="1"/>
        <pt x="1512" y="0" on="1"/>
        <pt x="1512" y="877" on="1"/>
        <pt x="1512" y="1012" on="0"/>
        <pt x="1331" y="1012" on="1"/>
        <pt x="1237" y="1012" on="0"/>
        <pt x="1199" y="966" on="1"/>
        <pt x="1172" y="934" on="0"/>
        <pt x="1150" y="881" on="1"/>
        <pt x="1150" y="0" on="1"/>
        <pt x="862" y="0" on="1"/>
        <pt x="862" y="923" on="1"/>
        <pt x="862" y="1000" on="0"/>
        <pt x="827" y="1000" on="1"/>
        <pt x="791" y="1000" on="0"/>
        <pt x="709" y="906" on="1"/>
        <pt x="682" y="875" on="0"/>
        <pt x="650" y="875" on="1"/>
        <pt x="618" y="875" on="0"/>
        <pt x="591" y="906" on="1"/>
        <pt x="510" y="1000" on="0"/>
        <pt x="474" y="1000" on="1"/>
        <pt x="438" y="1000" on="0"/>
        <pt x="438" y="923" on="1"/>
        <pt x="438" y="448" on="1"/>
        <pt x="648" y="448" on="0"/>
        <pt x="648" y="249" on="1"/>
        <pt x="648" y="0" on="0"/>
        <pt x="438" y="0" on="1"/>
        <pt x="294" y="0" on="1"/>
        <pt x="150" y="0" on="0"/>
        <pt x="150" y="122" on="1"/>
        <pt x="150" y="923" on="1"/>
        <pt x="150" y="1036" on="0"/>
        <pt x="320" y="1200" on="0"/>
        <pt x="415" y="1200" on="1"/>
        <pt x="539" y="1200" on="0"/>
        <pt x="650" y="1076" on="1"/>
        <pt x="762" y="1200" on="0"/>
        <pt x="887" y="1200" on="1"/>
        <pt x="981" y="1200" on="0"/>
        <pt x="1066" y="1118" on="1"/>
        <pt x="1069" y="1115" on="0"/>
      </contour>
    </TTGlyph>
    <TTGlyph name="uni1789.a" xMin="150" yMin="0" xMax="1800" yMax="1200">
      <contour>
        <pt x="438" y="310" on="1"/>
        <pt x="438" y="138" on="1"/>
        <pt x="530" y="138" on="0"/>
        <pt x="530" y="249" on="1"/>
        <pt x="530" y="310" on="0"/>
      </contour>
      <contour>
        <pt x="1072" y="1112" on="1"/>
        <pt x="1163" y="1200" on="0"/>
        <pt x="1331" y="1200" on="1"/>
        <pt x="1800" y="1200" on="0"/>
        <pt x="1800" y="877" on="1"/>
        <pt x="1800" y="0" on="1"/>
        <pt x="1512" y="0" on="1"/>
        <pt x="1512" y="877" on="1"/>
        <pt x="1512" y="1012" on="0"/>
        <pt x="1331" y="1012" on="1"/>
        <pt x="1237" y="1012" on="0"/>
        <pt x="1199" y="966" on="1"/>
        <pt x="1172" y="934" on="0"/>
        <pt x="1150" y="881" on="1"/>
        <pt x="1150" y="0" on="1"/>
        <pt x="862" y="0" on="1"/>
        <pt x="862" y="923" on="1"/>
        <pt x="862" y="1000" on="0"/>
        <pt x="827" y="1000" on="1"/>
        <pt x="791" y="1000" on="0"/>
        <pt x="709" y="906" on="1"/>
        <pt x="682" y="875" on="0"/>
        <pt x="650" y="875" on="1"/>
        <pt x="618" y="875" on="0"/>
        <pt x="591" y="906" on="1"/>
        <pt x="510" y="1000" on="0"/>
        <pt x="474" y="1000" on="1"/>
        <pt x="438" y="1000" on="0"/>
        <pt x="438" y="923" on="1"/>
        <pt x="438" y="448" on="1"/>
        <pt x="648" y="448" on="0"/>
        <pt x="648" y="249" on="1"/>
        <pt x="648" y="0" on="0"/>
        <pt x="438" y="0" on="1"/>
        <pt x="294" y="0" on="1"/>
        <pt x="150" y="0" on="0"/>
        <pt x="150" y="122" on="1"/>
        <pt x="150" y="923" on="1"/>
        <pt x="150" y="1036" on="0"/>
        <pt x="320" y="1200" on="0"/>
        <pt x="415" y="1200" on="1"/>
        <pt x="539" y="1200" on="0"/>
        <pt x="650" y="1076" on="1"/>
        <pt x="762" y="1200" on="0"/>
        <pt x="887" y="1200" on="1"/>
        <pt x="981" y="1200" on="0"/>
        <pt x="1066" y="1118" on="1"/>
        <pt x="1069" y="1115" on="0"/>
      </contour>
    </TTGlyph>
    <TTGlyph name="uni178917C917B617C6" xMin="150" yMin="-800" xMax="2388" yMax="1750">
      <contour>
        <pt x="1400" y="-100" on="1"/>
        <pt x="1800" y="-100" on="1"/>
        <pt x="1800" y="-260" on="1"/>
        <pt x="1800" y="-500" on="0"/>
        <pt x="1422" y="-500" on="1"/>
        <pt x="1185" y="-500" on="0"/>
        <pt x="864" y="-300" on="0"/>
        <pt x="600" y="-300" on="1"/>
        <pt x="150" y="-300" on="1"/>
        <pt x="150" y="-130" on="1"/>
        <pt x="600" y="-130" on="1"/>
        <pt x="947" y="-130" on="0"/>
        <pt x="1281" y="-330" on="0"/>
        <pt x="1422" y="-330" on="1"/>
        <pt x="1512" y="-330" on="0"/>
        <pt x="1512" y="-260" on="1"/>
        <pt x="1512" y="-220" on="1"/>
        <pt x="1400" y="-220" on="1"/>
      </contour>
      <contour>
        <pt x="1210" y="-500" on="1"/>
        <pt x="1210" y="-800" on="1"/>
        <pt x="922" y="-800" on="1"/>
        <pt x="922" y="-600" on="1"/>
        <pt x="837" y="-600" on="1"/>
        <pt x="837" y="-500" on="1"/>
      </contour>
      <contour>
        <pt x="2128" y="1480" on="1"/>
        <pt x="2134" y="1491" on="0"/>
        <pt x="2134" y="1506" on="1"/>
        <pt x="2134" y="1513" on="1"/>
        <pt x="2132" y="1533" on="0"/>
        <pt x="2102" y="1570" on="0"/>
        <pt x="2082" y="1581" on="1"/>
        <pt x="2063" y="1593" on="0"/>
        <pt x="2040" y="1596" on="1"/>
        <pt x="2032" y="1598" on="0"/>
        <pt x="2026" y="1598" on="1"/>
        <pt x="2011" y="1598" on="0"/>
        <pt x="1998" y="1592" on="1"/>
        <pt x="1980" y="1584" on="0"/>
        <pt x="1972" y="1570" on="1"/>
        <pt x="1966" y="1559" on="0"/>
        <pt x="1966" y="1544" on="1"/>
        <pt x="1966" y="1536" on="1"/>
        <pt x="1968" y="1517" on="0"/>
        <pt x="1998" y="1480" on="0"/>
        <pt x="2018" y="1469" on="1"/>
        <pt x="2037" y="1457" on="0"/>
        <pt x="2061" y="1453" on="1"/>
        <pt x="2068" y="1452" on="0"/>
        <pt x="2074" y="1452" on="1"/>
        <pt x="2089" y="1452" on="0"/>
        <pt x="2102" y="1458" on="1"/>
        <pt x="2120" y="1466" on="0"/>
      </contour>
      <contour>
        <pt x="2050" y="1750" on="1"/>
        <pt x="2113" y="1750" on="0"/>
        <pt x="2232" y="1692" on="0"/>
        <pt x="2300" y="1584" on="0"/>
        <pt x="2300" y="1525" on="1"/>
        <pt x="2300" y="1466" on="0"/>
        <pt x="2234" y="1359" on="0"/>
        <pt x="2116" y="1300" on="0"/>
        <pt x="2050" y="1300" on="1"/>
        <pt x="1986" y="1300" on="0"/>
        <pt x="1867" y="1359" on="0"/>
        <pt x="1800" y="1466" on="0"/>
        <pt x="1800" y="1525" on="1"/>
        <pt x="1800" y="1584" on="0"/>
        <pt x="1868" y="1692" on="0"/>
        <pt x="1987" y="1750" on="0"/>
      </contour>
      <contour>
        <pt x="438" y="310" on="1"/>
        <pt x="438" y="138" on="1"/>
        <pt x="530" y="138" on="0"/>
        <pt x="530" y="249" on="1"/>
        <pt x="530" y="310" on="0"/>
      </contour>
      <contour>
        <pt x="1774" y="1012" on="1"/>
        <pt x="1800" y="954" on="0"/>
        <pt x="1800" y="877" on="1"/>
        <pt x="1800" y="0" on="1"/>
        <pt x="1512" y="0" on="1"/>
        <pt x="1512" y="877" on="1"/>
        <pt x="1512" y="1012" on="0"/>
        <pt x="1331" y="1012" on="1"/>
        <pt x="1237" y="1012" on="0"/>
        <pt x="1199" y="966" on="1"/>
        <pt x="1172" y="934" on="0"/>
        <pt x="1150" y="881" on="1"/>
        <pt x="1150" y="0" on="1"/>
        <pt x="862" y="0" on="1"/>
        <pt x="862" y="923" on="1"/>
        <pt x="862" y="1000" on="0"/>
        <pt x="827" y="1000" on="1"/>
        <pt x="791" y="1000" on="0"/>
        <pt x="709" y="906" on="1"/>
        <pt x="682" y="875" on="0"/>
        <pt x="650" y="875" on="1"/>
        <pt x="618" y="875" on="0"/>
        <pt x="591" y="906" on="1"/>
        <pt x="510" y="1000" on="0"/>
        <pt x="474" y="1000" on="1"/>
        <pt x="438" y="1000" on="0"/>
        <pt x="438" y="923" on="1"/>
        <pt x="438" y="448" on="1"/>
        <pt x="648" y="448" on="0"/>
        <pt x="648" y="249" on="1"/>
        <pt x="648" y="0" on="0"/>
        <pt x="438" y="0" on="1"/>
        <pt x="294" y="0" on="1"/>
        <pt x="150" y="0" on="0"/>
        <pt x="150" y="122" on="1"/>
        <pt x="150" y="923" on="1"/>
        <pt x="150" y="1036" on="0"/>
        <pt x="320" y="1200" on="0"/>
        <pt x="415" y="1200" on="1"/>
        <pt x="539" y="1200" on="0"/>
        <pt x="650" y="1076" on="1"/>
        <pt x="762" y="1200" on="0"/>
        <pt x="887" y="1200" on="1"/>
        <pt x="981" y="1200" on="0"/>
        <pt x="1066" y="1118" on="1"/>
        <pt x="1069" y="1115" on="0"/>
        <pt x="1072" y="1112" on="1"/>
        <pt x="1163" y="1200" on="0"/>
        <pt x="1331" y="1200" on="1"/>
        <pt x="1647" y="1200" on="0"/>
        <pt x="1750" y="1053" on="1"/>
        <pt x="1750" y="1200" on="1"/>
        <pt x="2018" y="1200" on="1"/>
        <pt x="2186" y="1200" on="0"/>
        <pt x="2388" y="1068" on="0"/>
        <pt x="2388" y="937" on="1"/>
        <pt x="2388" y="0" on="1"/>
        <pt x="2100" y="0" on="1"/>
        <pt x="2100" y="887" on="1"/>
        <pt x="2100" y="959" on="0"/>
        <pt x="2043" y="1012" on="0"/>
        <pt x="1968" y="1012" on="1"/>
      </contour>
    </TTGlyph>
    <TTGlyph name="uni178A" xMin="150" yMin="0" xMax="1150" yMax="1400">
      <contour>
        <pt x="150" y="1250" on="1"/>
        <pt x="438" y="1250" on="1"/>
        <pt x="438" y="1120" on="1"/>
        <pt x="750" y="1120" on="1"/>
        <pt x="862" y="1120" on="0"/>
        <pt x="862" y="1170" on="1"/>
        <pt x="862" y="1400" on="1"/>
        <pt x="1150" y="1400" on="1"/>
        <pt x="1150" y="1170" on="1"/>
        <pt x="1150" y="932" on="0"/>
        <pt x="910" y="932" on="1"/>
        <pt x="150" y="932" on="1"/>
      </contour>
      <contour>
        <pt x="438" y="261" on="1"/>
        <pt x="651" y="455" on="1"/>
        <pt x="862" y="263" on="1"/>
        <pt x="862" y="823" on="1"/>
        <pt x="1150" y="823" on="1"/>
        <pt x="1150" y="0" on="1"/>
        <pt x="882" y="0" on="1"/>
        <pt x="651" y="210" on="1"/>
        <pt x="419" y="0" on="1"/>
        <pt x="150" y="0" on="1"/>
        <pt x="150" y="823" on="1"/>
        <pt x="438" y="823" on="1"/>
      </contour>
    </TTGlyph>
    <TTGlyph name="uni178B" xMin="50" yMin="0" xMax="1150" yMax="1400">
      <contour>
        <pt x="150" y="965" on="1"/>
        <pt x="150" y="1012" on="0"/>
        <pt x="50" y="1012" on="1"/>
        <pt x="50" y="1200" on="1"/>
        <pt x="238" y="1200" on="1"/>
        <pt x="438" y="1200" on="0"/>
        <pt x="438" y="1098" on="1"/>
        <pt x="438" y="323" on="1"/>
        <pt x="438" y="138" on="0"/>
        <pt x="650" y="138" on="1"/>
        <pt x="862" y="138" on="0"/>
        <pt x="862" y="323" on="1"/>
        <pt x="862" y="746" on="1"/>
        <pt x="645" y="955" on="1"/>
        <pt x="614" y="984" on="0"/>
        <pt x="614" y="1012" on="1"/>
        <pt x="614" y="1033" on="0"/>
        <pt x="630" y="1053" on="1"/>
        <pt x="667" y="1102" on="1"/>
        <pt x="742" y="1200" on="1"/>
        <pt x="812" y="1200" on="1"/>
        <pt x="862" y="1200" on="0"/>
        <pt x="862" y="1250" on="1"/>
        <pt x="862" y="1400" on="1"/>
        <pt x="1150" y="1400" on="1"/>
        <pt x="1150" y="1250" on="1"/>
        <pt x="1150" y="1012" on="0"/>
        <pt x="942" y="1012" on="1"/>
        <pt x="842" y="1012" on="1"/>
        <pt x="1150" y="840" on="1"/>
        <pt x="1150" y="323" on="1"/>
        <pt x="1150" y="0" on="0"/>
        <pt x="650" y="0" on="1"/>
        <pt x="150" y="0" on="0"/>
        <pt x="150" y="323" on="1"/>
      </contour>
    </TTGlyph>
    <TTGlyph name="uni178C" xMin="150" yMin="-50" xMax="1150" yMax="1200">
      <contour>
        <pt x="862" y="153" on="1"/>
        <pt x="660" y="0" on="0"/>
        <pt x="500" y="0" on="1"/>
        <pt x="340" y="0" on="0"/>
        <pt x="150" y="185" on="0"/>
        <pt x="150" y="323" on="1"/>
        <pt x="150" y="586" on="1"/>
        <pt x="556" y="656" on="1"/>
        <pt x="862" y="707" on="0"/>
        <pt x="862" y="877" on="1"/>
        <pt x="862" y="923" on="1"/>
        <pt x="862" y="1000" on="0"/>
        <pt x="827" y="1000" on="1"/>
        <pt x="791" y="1000" on="0"/>
        <pt x="709" y="906" on="1"/>
        <pt x="682" y="875" on="0"/>
        <pt x="650" y="875" on="1"/>
        <pt x="618" y="875" on="0"/>
        <pt x="591" y="906" on="1"/>
        <pt x="510" y="1000" on="0"/>
        <pt x="474" y="1000" on="1"/>
        <pt x="438" y="1000" on="0"/>
        <pt x="438" y="923" on="1"/>
        <pt x="438" y="897" on="1"/>
        <pt x="438" y="863" on="0"/>
        <pt x="488" y="863" on="1"/>
        <pt x="488" y="719" on="1"/>
        <pt x="388" y="719" on="1"/>
        <pt x="150" y="719" on="0"/>
        <pt x="150" y="863" on="1"/>
        <pt x="150" y="923" on="1"/>
        <pt x="150" y="1200" on="0"/>
        <pt x="445" y="1200" on="1"/>
        <pt x="539" y="1200" on="0"/>
        <pt x="650" y="1076" on="1"/>
        <pt x="762" y="1200" on="0"/>
        <pt x="857" y="1200" on="1"/>
        <pt x="1150" y="1200" on="0"/>
        <pt x="1150" y="923" on="1"/>
        <pt x="1150" y="877" on="1"/>
        <pt x="1150" y="575" on="0"/>
        <pt x="566" y="469" on="1"/>
        <pt x="438" y="443" on="1"/>
        <pt x="438" y="323" on="1"/>
        <pt x="438" y="188" on="0"/>
        <pt x="515" y="188" on="1"/>
        <pt x="585" y="188" on="0"/>
        <pt x="862" y="341" on="0"/>
        <pt x="862" y="403" on="1"/>
        <pt x="862" y="480" on="1"/>
        <pt x="1150" y="480" on="1"/>
        <pt x="1150" y="-50" on="1"/>
        <pt x="862" y="-50" on="1"/>
      </contour>
    </TTGlyph>
    <TTGlyph name="uni178D" xMin="150" yMin="0" xMax="1750" yMax="1200">
      <contour>
        <pt x="438" y="310" on="1"/>
        <pt x="438" y="138" on="1"/>
        <pt x="530" y="138" on="0"/>
        <pt x="530" y="249" on="1"/>
        <pt x="530" y="310" on="0"/>
      </contour>
      <contour>
        <pt x="1150" y="112" on="1"/>
        <pt x="1150" y="0" on="1"/>
        <pt x="862" y="0" on="1"/>
        <pt x="862" y="923" on="1"/>
        <pt x="862" y="1000" on="0"/>
        <pt x="827" y="1000" on="1"/>
        <pt x="791" y="1000" on="0"/>
        <pt x="709" y="906" on="1"/>
        <pt x="682" y="875" on="0"/>
        <pt x="650" y="875" on="1"/>
        <pt x="618" y="875" on="0"/>
        <pt x="591" y="906" on="1"/>
        <pt x="510" y="1000" on="0"/>
        <pt x="474" y="1000" on="1"/>
        <pt x="438" y="1000" on="0"/>
        <pt x="438" y="923" on="1"/>
        <pt x="438" y="448" on="1"/>
        <pt x="648" y="448" on="0"/>
        <pt x="648" y="249" on="1"/>
        <pt x="648" y="0" on="0"/>
        <pt x="438" y="0" on="1"/>
        <pt x="294" y="0" on="1"/>
        <pt x="150" y="0" on="0"/>
        <pt x="150" y="122" on="1"/>
        <pt x="150" y="923" on="1"/>
        <pt x="150" y="1036" on="0"/>
        <pt x="320" y="1200" on="0"/>
        <pt x="415" y="1200" on="1"/>
        <pt x="539" y="1200" on="0"/>
        <pt x="650" y="1076" on="1"/>
        <pt x="762" y="1200" on="0"/>
        <pt x="887" y="1200" on="1"/>
        <pt x="981" y="1200" on="0"/>
        <pt x="1150" y="1036" on="0"/>
        <pt x="1150" y="923" on="1"/>
        <pt x="1150" y="400" on="1"/>
        <pt x="1236" y="400" on="1"/>
        <pt x="1278" y="323" on="1"/>
        <pt x="1328" y="231" on="0"/>
        <pt x="1395" y="188" on="0"/>
        <pt x="1420" y="188" on="1"/>
        <pt x="1445" y="188" on="0"/>
        <pt x="1462" y="231" on="0"/>
        <pt x="1462" y="323" on="1"/>
        <pt x="1462" y="806" on="1"/>
        <pt x="1357" y="905" on="1"/>
        <pt x="1305" y="955" on="1"/>
        <pt x="1274" y="984" on="0"/>
        <pt x="1274" y="1012" on="1"/>
        <pt x="1274" y="1033" on="0"/>
        <pt x="1290" y="1053" on="1"/>
        <pt x="1327" y="1102" on="1"/>
        <pt x="1402" y="1200" on="1"/>
        <pt x="1750" y="1200" on="1"/>
        <pt x="1750" y="1012" on="1"/>
        <pt x="1452" y="1012" on="1"/>
        <pt x="1750" y="840" on="1"/>
        <pt x="1750" y="323" on="1"/>
        <pt x="1750" y="185" on="0"/>
        <pt x="1550" y="0" on="0"/>
        <pt x="1420" y="0" on="1"/>
        <pt x="1240" y="0" on="0"/>
        <pt x="1165" y="93" on="1"/>
        <pt x="1157" y="102" on="0"/>
      </contour>
    </TTGlyph>
    <TTGlyph name="uni178E" xMin="150" yMin="0" xMax="2388" yMax="1200">
      <contour>
        <pt x="438" y="310" on="1"/>
        <pt x="438" y="138" on="1"/>
        <pt x="530" y="138" on="0"/>
        <pt x="530" y="249" on="1"/>
        <pt x="530" y="310" on="0"/>
      </contour>
      <contour>
        <pt x="1450" y="263" on="1"/>
        <pt x="1450" y="877" on="1"/>
        <pt x="1450" y="1200" on="0"/>
        <pt x="1919" y="1200" on="1"/>
        <pt x="2388" y="1200" on="0"/>
        <pt x="2388" y="877" on="1"/>
        <pt x="2388" y="0" on="1"/>
        <pt x="2100" y="0" on="1"/>
        <pt x="2100" y="877" on="1"/>
        <pt x="2100" y="1012" on="0"/>
        <pt x="1919" y="1012" on="1"/>
        <pt x="1738" y="1012" on="0"/>
        <pt x="1738" y="877" on="1"/>
        <pt x="1738" y="0" on="1"/>
        <pt x="1470" y="0" on="1"/>
        <pt x="1270" y="182" on="1"/>
        <pt x="1069" y="0" on="1"/>
        <pt x="800" y="0" on="1"/>
        <pt x="800" y="877" on="1"/>
        <pt x="800" y="1012" on="0"/>
        <pt x="619" y="1012" on="1"/>
        <pt x="438" y="1012" on="0"/>
        <pt x="438" y="877" on="1"/>
        <pt x="438" y="448" on="1"/>
        <pt x="648" y="448" on="0"/>
        <pt x="648" y="249" on="1"/>
        <pt x="648" y="0" on="0"/>
        <pt x="438" y="0" on="1"/>
        <pt x="294" y="0" on="1"/>
        <pt x="150" y="0" on="0"/>
        <pt x="150" y="122" on="1"/>
        <pt x="150" y="877" on="1"/>
        <pt x="150" y="1200" on="0"/>
        <pt x="619" y="1200" on="1"/>
        <pt x="1088" y="1200" on="0"/>
        <pt x="1088" y="877" on="1"/>
        <pt x="1088" y="261" on="1"/>
        <pt x="1270" y="427" on="1"/>
      </contour>
    </TTGlyph>
    <TTGlyph name="uni178F" xMin="150" yMin="0" xMax="1150" yMax="1200">
      <contour>
        <pt x="1150" y="1200" on="1"/>
        <pt x="1150" y="1012" on="1"/>
        <pt x="150" y="1012" on="1"/>
        <pt x="150" y="1200" on="1"/>
      </contour>
      <contour>
        <pt x="438" y="448" on="1"/>
        <pt x="648" y="448" on="0"/>
        <pt x="648" y="249" on="1"/>
        <pt x="648" y="0" on="0"/>
        <pt x="438" y="0" on="1"/>
        <pt x="294" y="0" on="1"/>
        <pt x="150" y="0" on="0"/>
        <pt x="150" y="122" on="1"/>
        <pt x="150" y="570" on="1"/>
        <pt x="150" y="893" on="0"/>
        <pt x="650" y="893" on="1"/>
        <pt x="1150" y="893" on="0"/>
        <pt x="1150" y="570" on="1"/>
        <pt x="1150" y="0" on="1"/>
        <pt x="862" y="0" on="1"/>
        <pt x="862" y="570" on="1"/>
        <pt x="862" y="705" on="0"/>
        <pt x="650" y="705" on="1"/>
        <pt x="438" y="705" on="0"/>
        <pt x="438" y="570" on="1"/>
      </contour>
      <contour>
        <pt x="438" y="138" on="1"/>
        <pt x="530" y="138" on="0"/>
        <pt x="530" y="249" on="1"/>
        <pt x="530" y="310" on="0"/>
        <pt x="438" y="310" on="1"/>
      </contour>
    </TTGlyph>
    <TTGlyph name="uni1790" xMin="50" yMin="0" xMax="1150" yMax="1400">
      <contour>
        <pt x="862" y="610" on="1"/>
        <pt x="862" y="732" on="1"/>
        <pt x="800" y="732" on="0"/>
        <pt x="800" y="671" on="1"/>
        <pt x="800" y="610" on="0"/>
      </contour>
      <contour>
        <pt x="438" y="323" on="1"/>
        <pt x="438" y="138" on="0"/>
        <pt x="650" y="138" on="1"/>
        <pt x="862" y="138" on="0"/>
        <pt x="862" y="323" on="1"/>
        <pt x="862" y="472" on="1"/>
        <pt x="652" y="472" on="0"/>
        <pt x="652" y="671" on="1"/>
        <pt x="652" y="870" on="0"/>
        <pt x="912" y="870" on="1"/>
        <pt x="1150" y="870" on="0"/>
        <pt x="1150" y="748" on="1"/>
        <pt x="1150" y="323" on="1"/>
        <pt x="1150" y="0" on="0"/>
        <pt x="650" y="0" on="1"/>
        <pt x="150" y="0" on="0"/>
        <pt x="150" y="323" on="1"/>
        <pt x="150" y="786" on="1"/>
        <pt x="122" y="822" on="1"/>
        <pt x="50" y="914" on="0"/>
        <pt x="50" y="955" on="1"/>
        <pt x="50" y="992" on="0"/>
        <pt x="68" y="1017" on="1"/>
        <pt x="218" y="1200" on="1"/>
        <pt x="800" y="1200" on="1"/>
        <pt x="862" y="1200" on="0"/>
        <pt x="862" y="1250" on="1"/>
        <pt x="862" y="1400" on="1"/>
        <pt x="1150" y="1400" on="1"/>
        <pt x="1150" y="1250" on="1"/>
        <pt x="1150" y="1012" on="0"/>
        <pt x="930" y="1012" on="1"/>
        <pt x="263" y="1012" on="1"/>
        <pt x="242" y="987" on="1"/>
        <pt x="237" y="982" on="0"/>
        <pt x="237" y="974" on="1"/>
        <pt x="237" y="942" on="0"/>
        <pt x="438" y="820" on="1"/>
      </contour>
    </TTGlyph>
    <TTGlyph name="uni1791" xMin="150" yMin="0" xMax="1150" yMax="1200">
      <contour>
        <pt x="1088" y="447" on="1"/>
        <pt x="1088" y="323" on="1"/>
        <pt x="1088" y="0" on="0"/>
        <pt x="644" y="0" on="1"/>
        <pt x="200" y="0" on="0"/>
        <pt x="200" y="323" on="1"/>
        <pt x="200" y="460" on="1"/>
        <pt x="488" y="460" on="1"/>
        <pt x="488" y="323" on="1"/>
        <pt x="488" y="188" on="0"/>
        <pt x="644" y="188" on="1"/>
        <pt x="800" y="188" on="0"/>
        <pt x="800" y="323" on="1"/>
        <pt x="800" y="462" on="1"/>
        <pt x="150" y="555" on="0"/>
        <pt x="150" y="877" on="1"/>
        <pt x="150" y="1200" on="0"/>
        <pt x="650" y="1200" on="1"/>
        <pt x="1150" y="1200" on="0"/>
        <pt x="1150" y="897" on="1"/>
        <pt x="1150" y="847" on="1"/>
        <pt x="862" y="847" on="1"/>
        <pt x="862" y="897" on="1"/>
        <pt x="862" y="1012" on="0"/>
        <pt x="650" y="1012" on="1"/>
        <pt x="438" y="1012" on="0"/>
        <pt x="438" y="877" on="1"/>
        <pt x="438" y="727" on="0"/>
        <pt x="808" y="650" on="1"/>
        <pt x="817" y="674" on="0"/>
        <pt x="837" y="694" on="1"/>
        <pt x="873" y="730" on="0"/>
        <pt x="975" y="730" on="1"/>
        <pt x="1077" y="730" on="0"/>
        <pt x="1150" y="637" on="0"/>
        <pt x="1150" y="555" on="1"/>
        <pt x="1150" y="503" on="0"/>
        <pt x="1114" y="467" on="1"/>
        <pt x="1102" y="455" on="0"/>
      </contour>
    </TTGlyph>
    <TTGlyph name="uni1792" xMin="50" yMin="0" xMax="1150" yMax="1200">
      <contour>
        <pt x="862" y="472" on="1"/>
        <pt x="652" y="472" on="0"/>
        <pt x="652" y="671" on="1"/>
        <pt x="652" y="870" on="0"/>
        <pt x="912" y="870" on="1"/>
        <pt x="1150" y="870" on="0"/>
        <pt x="1150" y="748" on="1"/>
        <pt x="1150" y="0" on="1"/>
        <pt x="882" y="0" on="1"/>
        <pt x="651" y="210" on="1"/>
        <pt x="419" y="0" on="1"/>
        <pt x="150" y="0" on="1"/>
        <pt x="150" y="786" on="1"/>
        <pt x="122" y="822" on="1"/>
        <pt x="50" y="914" on="0"/>
        <pt x="50" y="955" on="1"/>
        <pt x="50" y="992" on="0"/>
        <pt x="68" y="1017" on="1"/>
        <pt x="218" y="1200" on="1"/>
        <pt x="1150" y="1200" on="1"/>
        <pt x="1150" y="1012" on="1"/>
        <pt x="263" y="1012" on="1"/>
        <pt x="242" y="987" on="1"/>
        <pt x="237" y="982" on="0"/>
        <pt x="237" y="974" on="1"/>
        <pt x="237" y="942" on="0"/>
        <pt x="438" y="820" on="1"/>
        <pt x="438" y="261" on="1"/>
        <pt x="651" y="455" on="1"/>
        <pt x="862" y="263" on="1"/>
      </contour>
      <contour>
        <pt x="862" y="732" on="1"/>
        <pt x="800" y="732" on="0"/>
        <pt x="800" y="671" on="1"/>
        <pt x="800" y="610" on="0"/>
        <pt x="862" y="610" on="1"/>
      </contour>
    </TTGlyph>
    <TTGlyph name="uni1793" xMin="150" yMin="0" xMax="1150" yMax="1200">
      <contour>
        <pt x="734" y="489" on="1"/>
        <pt x="150" y="605" on="0"/>
        <pt x="150" y="877" on="1"/>
        <pt x="150" y="1200" on="0"/>
        <pt x="650" y="1200" on="1"/>
        <pt x="1150" y="1200" on="0"/>
        <pt x="1150" y="917" on="1"/>
        <pt x="1150" y="883" on="1"/>
        <pt x="1150" y="739" on="0"/>
        <pt x="962" y="739" on="1"/>
        <pt x="782" y="739" on="1"/>
        <pt x="782" y="883" on="1"/>
        <pt x="862" y="883" on="0"/>
        <pt x="862" y="917" on="1"/>
        <pt x="862" y="1012" on="0"/>
        <pt x="650" y="1012" on="1"/>
        <pt x="438" y="1012" on="0"/>
        <pt x="438" y="877" on="1"/>
        <pt x="438" y="731" on="0"/>
        <pt x="778" y="666" on="1"/>
        <pt x="1150" y="590" on="0"/>
        <pt x="1150" y="363" on="1"/>
        <pt x="1150" y="283" on="1"/>
        <pt x="1150" y="0" on="0"/>
        <pt x="800" y="0" on="1"/>
        <pt x="690" y="0" on="0"/>
        <pt x="464" y="162" on="0"/>
        <pt x="438" y="162" on="1"/>
        <pt x="438" y="0" on="1"/>
        <pt x="150" y="0" on="1"/>
        <pt x="150" y="503" on="1"/>
        <pt x="438" y="503" on="1"/>
        <pt x="438" y="350" on="1"/>
        <pt x="566" y="350" on="0"/>
        <pt x="755" y="188" on="0"/>
        <pt x="800" y="188" on="1"/>
        <pt x="862" y="188" on="0"/>
        <pt x="862" y="273" on="1"/>
        <pt x="862" y="363" on="1"/>
        <pt x="862" y="463" on="0"/>
      </contour>
    </TTGlyph>
    <TTGlyph name="uni1794" xMin="39" yMin="0" xMax="1150" yMax="1200">
      <contour>
        <pt x="150" y="843" on="1"/>
        <pt x="100" y="905" on="1"/>
        <pt x="60" y="955" on="1"/>
        <pt x="39" y="980" on="0"/>
        <pt x="39" y="1005" on="1"/>
        <pt x="39" y="1029" on="0"/>
        <pt x="58" y="1053" on="1"/>
        <pt x="95" y="1102" on="1"/>
        <pt x="170" y="1200" on="1"/>
        <pt x="498" y="1200" on="1"/>
        <pt x="498" y="1012" on="1"/>
        <pt x="220" y="1012" on="1"/>
        <pt x="438" y="840" on="1"/>
        <pt x="438" y="323" on="1"/>
        <pt x="438" y="188" on="0"/>
        <pt x="650" y="188" on="1"/>
        <pt x="862" y="188" on="0"/>
        <pt x="862" y="323" on="1"/>
        <pt x="862" y="806" on="1"/>
        <pt x="757" y="905" on="1"/>
        <pt x="705" y="955" on="1"/>
        <pt x="674" y="984" on="0"/>
        <pt x="674" y="1012" on="1"/>
        <pt x="674" y="1033" on="0"/>
        <pt x="690" y="1053" on="1"/>
        <pt x="727" y="1102" on="1"/>
        <pt x="802" y="1200" on="1"/>
        <pt x="1150" y="1200" on="1"/>
        <pt x="1150" y="1012" on="1"/>
        <pt x="852" y="1012" on="1"/>
        <pt x="1150" y="840" on="1"/>
        <pt x="1150" y="323" on="1"/>
        <pt x="1150" y="0" on="0"/>
        <pt x="650" y="0" on="1"/>
        <pt x="150" y="0" on="0"/>
        <pt x="150" y="323" on="1"/>
      </contour>
    </TTGlyph>
    <TTGlyph name="uni1794.a" xMin="50" yMin="-120" xMax="1200" yMax="1200">
      <contour>
        <pt x="438" y="323" on="1"/>
        <pt x="438" y="188" on="0"/>
        <pt x="550" y="188" on="1"/>
        <pt x="645" y="188" on="0"/>
        <pt x="862" y="321" on="0"/>
        <pt x="862" y="413" on="1"/>
        <pt x="862" y="900" on="1"/>
        <pt x="1150" y="900" on="1"/>
        <pt x="1150" y="-120" on="1"/>
        <pt x="862" y="-120" on="1"/>
        <pt x="862" y="118" on="1"/>
        <pt x="743" y="0" on="0"/>
        <pt x="550" y="0" on="1"/>
        <pt x="150" y="0" on="0"/>
        <pt x="150" y="323" on="1"/>
        <pt x="150" y="786" on="1"/>
        <pt x="122" y="822" on="1"/>
        <pt x="50" y="914" on="0"/>
        <pt x="50" y="955" on="1"/>
        <pt x="50" y="992" on="0"/>
        <pt x="68" y="1017" on="1"/>
        <pt x="218" y="1200" on="1"/>
        <pt x="1200" y="1200" on="1"/>
        <pt x="1200" y="1012" on="1"/>
        <pt x="263" y="1012" on="1"/>
        <pt x="242" y="987" on="1"/>
        <pt x="237" y="982" on="0"/>
        <pt x="237" y="974" on="1"/>
        <pt x="237" y="942" on="0"/>
        <pt x="438" y="820" on="1"/>
      </contour>
    </TTGlyph>
    <TTGlyph name="uni179417C917B6" xMin="50" yMin="-120" xMax="1738" yMax="1700">
      <contour>
        <pt x="862" y="-120" on="1"/>
        <pt x="862" y="118" on="1"/>
        <pt x="743" y="0" on="0"/>
        <pt x="550" y="0" on="1"/>
        <pt x="150" y="0" on="0"/>
        <pt x="150" y="323" on="1"/>
        <pt x="150" y="786" on="1"/>
        <pt x="122" y="822" on="1"/>
        <pt x="50" y="914" on="0"/>
        <pt x="50" y="955" on="1"/>
        <pt x="50" y="992" on="0"/>
        <pt x="68" y="1017" on="1"/>
        <pt x="218" y="1200" on="1"/>
        <pt x="1368" y="1200" on="1"/>
        <pt x="1536" y="1200" on="0"/>
        <pt x="1738" y="1068" on="0"/>
        <pt x="1738" y="937" on="1"/>
        <pt x="1738" y="0" on="1"/>
        <pt x="1450" y="0" on="1"/>
        <pt x="1450" y="887" on="1"/>
        <pt x="1450" y="959" on="0"/>
        <pt x="1393" y="1012" on="0"/>
        <pt x="1318" y="1012" on="1"/>
        <pt x="263" y="1012" on="1"/>
        <pt x="242" y="987" on="1"/>
        <pt x="237" y="982" on="0"/>
        <pt x="237" y="974" on="1"/>
        <pt x="237" y="942" on="0"/>
        <pt x="438" y="820" on="1"/>
        <pt x="438" y="323" on="1"/>
        <pt x="438" y="188" on="0"/>
        <pt x="550" y="188" on="1"/>
        <pt x="645" y="188" on="0"/>
        <pt x="862" y="321" on="0"/>
        <pt x="862" y="413" on="1"/>
        <pt x="862" y="900" on="1"/>
        <pt x="1150" y="900" on="1"/>
        <pt x="1150" y="-120" on="1"/>
      </contour>
      <contour>
        <pt x="370" y="1300" on="1"/>
        <pt x="370" y="1700" on="1"/>
        <pt x="570" y="1700" on="1"/>
        <pt x="570" y="1300" on="1"/>
      </contour>
      <contour>
        <pt x="730" y="1300" on="1"/>
        <pt x="730" y="1700" on="1"/>
        <pt x="930" y="1700" on="1"/>
        <pt x="930" y="1300" on="1"/>
      </contour>
    </TTGlyph>
    <TTGlyph name="uni179417C917C5" xMin="50" yMin="-120" xMax="1738" yMax="1750">
      <contour>
        <pt x="862" y="-120" on="1"/>
        <pt x="862" y="118" on="1"/>
        <pt x="743" y="0" on="0"/>
        <pt x="550" y="0" on="1"/>
        <pt x="150" y="0" on="0"/>
        <pt x="150" y="323" on="1"/>
        <pt x="150" y="786" on="1"/>
        <pt x="122" y="822" on="1"/>
        <pt x="50" y="914" on="0"/>
        <pt x="50" y="955" on="1"/>
        <pt x="50" y="992" on="0"/>
        <pt x="68" y="1017" on="1"/>
        <pt x="218" y="1200" on="1"/>
        <pt x="1368" y="1200" on="1"/>
        <pt x="1536" y="1200" on="0"/>
        <pt x="1738" y="1068" on="0"/>
        <pt x="1738" y="937" on="1"/>
        <pt x="1738" y="0" on="1"/>
        <pt x="1450" y="0" on="1"/>
        <pt x="1450" y="887" on="1"/>
        <pt x="1450" y="959" on="0"/>
        <pt x="1393" y="1012" on="0"/>
        <pt x="1318" y="1012" on="1"/>
        <pt x="263" y="1012" on="1"/>
        <pt x="242" y="987" on="1"/>
        <pt x="237" y="982" on="0"/>
        <pt x="237" y="974" on="1"/>
        <pt x="237" y="942" on="0"/>
        <pt x="438" y="820" on="1"/>
        <pt x="438" y="323" on="1"/>
        <pt x="438" y="188" on="0"/>
        <pt x="550" y="188" on="1"/>
        <pt x="645" y="188" on="0"/>
        <pt x="862" y="321" on="0"/>
        <pt x="862" y="413" on="1"/>
        <pt x="862" y="900" on="1"/>
        <pt x="1150" y="900" on="1"/>
        <pt x="1150" y="-120" on="1"/>
      </contour>
      <contour>
        <pt x="370" y="1300" on="1"/>
        <pt x="370" y="1700" on="1"/>
        <pt x="570" y="1700" on="1"/>
        <pt x="570" y="1300" on="1"/>
      </contour>
      <contour>
        <pt x="730" y="1300" on="1"/>
        <pt x="730" y="1700" on="1"/>
        <pt x="930" y="1700" on="1"/>
        <pt x="930" y="1300" on="1"/>
      </contour>
      <contour>
        <pt x="1450" y="1487" on="1"/>
        <pt x="1450" y="1529" on="0"/>
        <pt x="1423" y="1562" on="0"/>
        <pt x="1378" y="1562" on="1"/>
        <pt x="1300" y="1562" on="1"/>
        <pt x="1300" y="1750" on="1"/>
        <pt x="1478" y="1750" on="1"/>
        <pt x="1636" y="1750" on="0"/>
        <pt x="1738" y="1638" on="0"/>
        <pt x="1738" y="1537" on="1"/>
        <pt x="1738" y="1237" on="1"/>
        <pt x="1450" y="1239" on="1"/>
      </contour>
    </TTGlyph>
    <TTGlyph name="uni179417D2178A17B6" xMin="50" yMin="-500" xMax="1738" yMax="1200">
      <contour>
        <pt x="1018" y="-120" on="1"/>
        <pt x="1110" y="-178" on="0"/>
        <pt x="1110" y="-283" on="1"/>
        <pt x="1110" y="-500" on="1"/>
        <pt x="843" y="-500" on="1"/>
        <pt x="843" y="-283" on="1"/>
        <pt x="843" y="-180" on="0"/>
        <pt x="660" y="-180" on="1"/>
        <pt x="477" y="-180" on="0"/>
        <pt x="477" y="-283" on="1"/>
        <pt x="477" y="-316" on="1"/>
        <pt x="477" y="-350" on="0"/>
        <pt x="531" y="-350" on="1"/>
        <pt x="614" y="-350" on="1"/>
        <pt x="614" y="-500" on="1"/>
        <pt x="343" y="-500" on="1"/>
        <pt x="210" y="-500" on="0"/>
        <pt x="210" y="-386" on="1"/>
        <pt x="210" y="-283" on="1"/>
        <pt x="210" y="-50" on="0"/>
        <pt x="660" y="-50" on="1"/>
        <pt x="776" y="-50" on="0"/>
        <pt x="862" y="-65" on="1"/>
        <pt x="862" y="118" on="1"/>
        <pt x="743" y="0" on="0"/>
        <pt x="550" y="0" on="1"/>
        <pt x="150" y="0" on="0"/>
        <pt x="150" y="323" on="1"/>
        <pt x="150" y="786" on="1"/>
        <pt x="122" y="822" on="1"/>
        <pt x="50" y="914" on="0"/>
        <pt x="50" y="955" on="1"/>
        <pt x="50" y="992" on="0"/>
        <pt x="68" y="1017" on="1"/>
        <pt x="218" y="1200" on="1"/>
        <pt x="1368" y="1200" on="1"/>
        <pt x="1536" y="1200" on="0"/>
        <pt x="1738" y="1068" on="0"/>
        <pt x="1738" y="937" on="1"/>
        <pt x="1738" y="0" on="1"/>
        <pt x="1450" y="0" on="1"/>
        <pt x="1450" y="887" on="1"/>
        <pt x="1450" y="959" on="0"/>
        <pt x="1393" y="1012" on="0"/>
        <pt x="1318" y="1012" on="1"/>
        <pt x="263" y="1012" on="1"/>
        <pt x="242" y="987" on="1"/>
        <pt x="237" y="982" on="0"/>
        <pt x="237" y="974" on="1"/>
        <pt x="237" y="942" on="0"/>
        <pt x="438" y="820" on="1"/>
        <pt x="438" y="323" on="1"/>
        <pt x="438" y="188" on="0"/>
        <pt x="550" y="188" on="1"/>
        <pt x="645" y="188" on="0"/>
        <pt x="862" y="321" on="0"/>
        <pt x="862" y="413" on="1"/>
        <pt x="862" y="900" on="1"/>
        <pt x="1150" y="900" on="1"/>
        <pt x="1150" y="-120" on="1"/>
      </contour>
    </TTGlyph>
    <TTGlyph name="uni1795" xMin="50" yMin="0" xMax="1150" yMax="1400">
      <contour>
        <pt x="862" y="610" on="1"/>
        <pt x="862" y="732" on="1"/>
        <pt x="800" y="732" on="0"/>
        <pt x="800" y="671" on="1"/>
        <pt x="800" y="610" on="0"/>
      </contour>
      <contour>
        <pt x="862" y="472" on="1"/>
        <pt x="652" y="472" on="0"/>
        <pt x="652" y="671" on="1"/>
        <pt x="652" y="870" on="0"/>
        <pt x="912" y="870" on="1"/>
        <pt x="1150" y="870" on="0"/>
        <pt x="1150" y="748" on="1"/>
        <pt x="1150" y="0" on="1"/>
        <pt x="882" y="0" on="1"/>
        <pt x="651" y="210" on="1"/>
        <pt x="419" y="0" on="1"/>
        <pt x="150" y="0" on="1"/>
        <pt x="150" y="786" on="1"/>
        <pt x="122" y="822" on="1"/>
        <pt x="50" y="914" on="0"/>
        <pt x="50" y="955" on="1"/>
        <pt x="50" y="992" on="0"/>
        <pt x="68" y="1017" on="1"/>
        <pt x="218" y="1200" on="1"/>
        <pt x="800" y="1200" on="1"/>
        <pt x="862" y="1200" on="0"/>
        <pt x="862" y="1250" on="1"/>
        <pt x="862" y="1400" on="1"/>
        <pt x="1150" y="1400" on="1"/>
        <pt x="1150" y="1250" on="1"/>
        <pt x="1150" y="1012" on="0"/>
        <pt x="930" y="1012" on="1"/>
        <pt x="263" y="1012" on="1"/>
        <pt x="242" y="987" on="1"/>
        <pt x="237" y="982" on="0"/>
        <pt x="237" y="974" on="1"/>
        <pt x="237" y="942" on="0"/>
        <pt x="438" y="820" on="1"/>
        <pt x="438" y="261" on="1"/>
        <pt x="651" y="455" on="1"/>
        <pt x="862" y="263" on="1"/>
      </contour>
    </TTGlyph>
    <TTGlyph name="uni1796" xMin="150" yMin="0" xMax="1150" yMax="1200">
      <contour>
        <pt x="438" y="310" on="1"/>
        <pt x="438" y="138" on="1"/>
        <pt x="530" y="138" on="0"/>
        <pt x="530" y="249" on="1"/>
        <pt x="530" y="310" on="0"/>
      </contour>
      <contour>
        <pt x="150" y="923" on="1"/>
        <pt x="150" y="1036" on="0"/>
        <pt x="320" y="1200" on="0"/>
        <pt x="415" y="1200" on="1"/>
        <pt x="539" y="1200" on="0"/>
        <pt x="650" y="1076" on="1"/>
        <pt x="762" y="1200" on="0"/>
        <pt x="887" y="1200" on="1"/>
        <pt x="981" y="1200" on="0"/>
        <pt x="1150" y="1036" on="0"/>
        <pt x="1150" y="923" on="1"/>
        <pt x="1150" y="0" on="1"/>
        <pt x="862" y="0" on="1"/>
        <pt x="862" y="923" on="1"/>
        <pt x="862" y="1000" on="0"/>
        <pt x="827" y="1000" on="1"/>
        <pt x="791" y="1000" on="0"/>
        <pt x="709" y="906" on="1"/>
        <pt x="682" y="875" on="0"/>
        <pt x="650" y="875" on="1"/>
        <pt x="618" y="875" on="0"/>
        <pt x="591" y="906" on="1"/>
        <pt x="510" y="1000" on="0"/>
        <pt x="474" y="1000" on="1"/>
        <pt x="438" y="1000" on="0"/>
        <pt x="438" y="923" on="1"/>
        <pt x="438" y="448" on="1"/>
        <pt x="648" y="448" on="0"/>
        <pt x="648" y="249" on="1"/>
        <pt x="648" y="0" on="0"/>
        <pt x="438" y="0" on="1"/>
        <pt x="294" y="0" on="1"/>
        <pt x="150" y="0" on="0"/>
        <pt x="150" y="122" on="1"/>
      </contour>
    </TTGlyph>
    <TTGlyph name="uni1797" xMin="30" yMin="0" xMax="1150" yMax="1200">
      <contour>
        <pt x="1150" y="1200" on="1"/>
        <pt x="1150" y="1012" on="1"/>
        <pt x="150" y="1012" on="1"/>
        <pt x="150" y="1200" on="1"/>
      </contour>
      <contour>
        <pt x="438" y="540" on="0"/>
        <pt x="508" y="348" on="0"/>
        <pt x="508" y="224" on="1"/>
        <pt x="508" y="0" on="0"/>
        <pt x="236" y="0" on="1"/>
        <pt x="70" y="0" on="0"/>
        <pt x="30" y="223" on="1"/>
        <pt x="147" y="264" on="1"/>
        <pt x="151" y="194" on="0"/>
        <pt x="186" y="194" on="1"/>
        <pt x="220" y="194" on="0"/>
        <pt x="220" y="224" on="1"/>
        <pt x="220" y="267" on="0"/>
        <pt x="150" y="507" on="0"/>
        <pt x="150" y="600" on="1"/>
        <pt x="150" y="893" on="0"/>
        <pt x="650" y="893" on="1"/>
        <pt x="1150" y="893" on="0"/>
        <pt x="1150" y="570" on="1"/>
        <pt x="1150" y="0" on="1"/>
        <pt x="862" y="0" on="1"/>
        <pt x="862" y="570" on="1"/>
        <pt x="862" y="705" on="0"/>
        <pt x="650" y="705" on="1"/>
        <pt x="438" y="705" on="0"/>
        <pt x="438" y="600" on="1"/>
      </contour>
    </TTGlyph>
    <TTGlyph name="uni1798" xMin="39" yMin="0" xMax="1150" yMax="1200">
      <contour>
        <pt x="862" y="694" on="1"/>
        <pt x="862" y="806" on="1"/>
        <pt x="757" y="905" on="1"/>
        <pt x="705" y="955" on="1"/>
        <pt x="674" y="984" on="0"/>
        <pt x="674" y="1012" on="1"/>
        <pt x="674" y="1033" on="0"/>
        <pt x="690" y="1053" on="1"/>
        <pt x="727" y="1102" on="1"/>
        <pt x="802" y="1200" on="1"/>
        <pt x="1150" y="1200" on="1"/>
        <pt x="1150" y="1012" on="1"/>
        <pt x="852" y="1012" on="1"/>
        <pt x="1150" y="840" on="1"/>
        <pt x="1150" y="323" on="1"/>
        <pt x="1150" y="0" on="0"/>
        <pt x="650" y="0" on="1"/>
        <pt x="150" y="0" on="0"/>
        <pt x="150" y="323" on="1"/>
        <pt x="150" y="843" on="1"/>
        <pt x="100" y="905" on="1"/>
        <pt x="60" y="955" on="1"/>
        <pt x="39" y="980" on="0"/>
        <pt x="39" y="1005" on="1"/>
        <pt x="39" y="1029" on="0"/>
        <pt x="58" y="1053" on="1"/>
        <pt x="95" y="1102" on="1"/>
        <pt x="170" y="1200" on="1"/>
        <pt x="498" y="1200" on="1"/>
        <pt x="498" y="1012" on="1"/>
        <pt x="220" y="1012" on="1"/>
        <pt x="438" y="840" on="1"/>
        <pt x="438" y="694" on="1"/>
      </contour>
      <contour>
        <pt x="862" y="506" on="1"/>
        <pt x="438" y="506" on="1"/>
        <pt x="438" y="323" on="1"/>
        <pt x="438" y="188" on="0"/>
        <pt x="650" y="188" on="1"/>
        <pt x="862" y="188" on="0"/>
        <pt x="862" y="323" on="1"/>
      </contour>
    </TTGlyph>
    <TTGlyph name="uni1799" xMin="150" yMin="0" xMax="1800" yMax="1200">
      <contour>
        <pt x="150" y="1098" on="1"/>
        <pt x="150" y="1200" on="0"/>
        <pt x="300" y="1200" on="1"/>
        <pt x="559" y="1200" on="1"/>
        <pt x="559" y="1012" on="1"/>
        <pt x="438" y="1012" on="0"/>
        <pt x="438" y="965" on="1"/>
        <pt x="438" y="323" on="1"/>
        <pt x="438" y="188" on="0"/>
        <pt x="650" y="188" on="1"/>
        <pt x="862" y="188" on="0"/>
        <pt x="862" y="323" on="1"/>
        <pt x="862" y="806" on="1"/>
        <pt x="757" y="905" on="1"/>
        <pt x="705" y="955" on="1"/>
        <pt x="674" y="984" on="0"/>
        <pt x="674" y="1012" on="1"/>
        <pt x="674" y="1033" on="0"/>
        <pt x="690" y="1053" on="1"/>
        <pt x="727" y="1102" on="1"/>
        <pt x="802" y="1200" on="1"/>
        <pt x="1150" y="1200" on="1"/>
        <pt x="1150" y="1012" on="1"/>
        <pt x="852" y="1012" on="1"/>
        <pt x="1150" y="840" on="1"/>
        <pt x="1150" y="323" on="1"/>
        <pt x="1150" y="188" on="0"/>
        <pt x="1331" y="188" on="1"/>
        <pt x="1512" y="188" on="0"/>
        <pt x="1512" y="323" on="1"/>
        <pt x="1512" y="806" on="1"/>
        <pt x="1407" y="905" on="1"/>
        <pt x="1355" y="955" on="1"/>
        <pt x="1324" y="984" on="0"/>
        <pt x="1324" y="1012" on="1"/>
        <pt x="1324" y="1033" on="0"/>
        <pt x="1340" y="1053" on="1"/>
        <pt x="1377" y="1102" on="1"/>
        <pt x="1452" y="1200" on="1"/>
        <pt x="1800" y="1200" on="1"/>
        <pt x="1800" y="1012" on="1"/>
        <pt x="1502" y="1012" on="1"/>
        <pt x="1800" y="840" on="1"/>
        <pt x="1800" y="323" on="1"/>
        <pt x="1800" y="0" on="0"/>
        <pt x="1331" y="0" on="1"/>
        <pt x="1112" y="0" on="0"/>
        <pt x="1006" y="98" on="1"/>
        <pt x="900" y="0" on="0"/>
        <pt x="650" y="0" on="1"/>
        <pt x="150" y="0" on="0"/>
        <pt x="150" y="323" on="1"/>
      </contour>
    </TTGlyph>
    <TTGlyph name="uni179A" xMin="39" yMin="0" xMax="438" yMax="1200">
      <contour>
        <pt x="184" y="310" on="1"/>
        <pt x="158" y="310" on="0"/>
        <pt x="158" y="249" on="1"/>
        <pt x="158" y="148" on="0"/>
        <pt x="184" y="148" on="1"/>
        <pt x="210" y="148" on="0"/>
        <pt x="210" y="229" on="1"/>
        <pt x="210" y="310" on="0"/>
      </contour>
      <contour>
        <pt x="150" y="843" on="1"/>
        <pt x="100" y="905" on="1"/>
        <pt x="60" y="955" on="1"/>
        <pt x="39" y="980" on="0"/>
        <pt x="39" y="1005" on="1"/>
        <pt x="39" y="1029" on="0"/>
        <pt x="58" y="1053" on="1"/>
        <pt x="95" y="1102" on="1"/>
        <pt x="170" y="1200" on="1"/>
        <pt x="438" y="1200" on="1"/>
        <pt x="438" y="1012" on="1"/>
        <pt x="220" y="1012" on="1"/>
        <pt x="438" y="840" on="1"/>
        <pt x="438" y="122" on="1"/>
        <pt x="438" y="0" on="0"/>
        <pt x="344" y="0" on="1"/>
        <pt x="200" y="0" on="1"/>
        <pt x="40" y="0" on="0"/>
        <pt x="40" y="249" on="1"/>
        <pt x="40" y="448" on="0"/>
        <pt x="150" y="448" on="1"/>
      </contour>
    </TTGlyph>
    <TTGlyph name="uni179A17C917B617C6" xMin="39" yMin="-500" xMax="1018" yMax="1750">
      <contour>
        <pt x="184" y="310" on="1"/>
        <pt x="158" y="310" on="0"/>
        <pt x="158" y="249" on="1"/>
        <pt x="158" y="148" on="0"/>
        <pt x="184" y="148" on="1"/>
        <pt x="210" y="148" on="0"/>
        <pt x="210" y="229" on="1"/>
        <pt x="210" y="310" on="0"/>
      </contour>
      <contour>
        <pt x="220" y="1012" on="1"/>
        <pt x="438" y="840" on="1"/>
        <pt x="438" y="122" on="1"/>
        <pt x="438" y="0" on="0"/>
        <pt x="344" y="0" on="1"/>
        <pt x="200" y="0" on="1"/>
        <pt x="40" y="0" on="0"/>
        <pt x="40" y="249" on="1"/>
        <pt x="40" y="448" on="0"/>
        <pt x="150" y="448" on="1"/>
        <pt x="150" y="843" on="1"/>
        <pt x="100" y="905" on="1"/>
        <pt x="60" y="955" on="1"/>
        <pt x="39" y="980" on="0"/>
        <pt x="39" y="1005" on="1"/>
        <pt x="39" y="1029" on="0"/>
        <pt x="58" y="1053" on="1"/>
        <pt x="95" y="1102" on="1"/>
        <pt x="170" y="1200" on="1"/>
        <pt x="648" y="1200" on="1"/>
        <pt x="816" y="1200" on="0"/>
        <pt x="1018" y="1068" on="0"/>
        <pt x="1018" y="937" on="1"/>
        <pt x="1018" y="0" on="1"/>
        <pt x="730" y="0" on="1"/>
        <pt x="730" y="887" on="1"/>
        <pt x="730" y="959" on="0"/>
        <pt x="673" y="1012" on="0"/>
        <pt x="598" y="1012" on="1"/>
      </contour>
      <contour>
        <pt x="430" y="-70" on="1"/>
        <pt x="430" y="-500" on="1"/>
        <pt x="142" y="-500" on="1"/>
        <pt x="142" y="-170" on="1"/>
        <pt x="57" y="-170" on="1"/>
        <pt x="57" y="-70" on="1"/>
      </contour>
      <contour>
        <pt x="738" y="1480" on="1"/>
        <pt x="744" y="1491" on="0"/>
        <pt x="744" y="1506" on="1"/>
        <pt x="744" y="1513" on="1"/>
        <pt x="742" y="1533" on="0"/>
        <pt x="712" y="1570" on="0"/>
        <pt x="692" y="1581" on="1"/>
        <pt x="673" y="1593" on="0"/>
        <pt x="650" y="1596" on="1"/>
        <pt x="642" y="1598" on="0"/>
        <pt x="636" y="1598" on="1"/>
        <pt x="621" y="1598" on="0"/>
        <pt x="608" y="1592" on="1"/>
        <pt x="590" y="1584" on="0"/>
        <pt x="582" y="1570" on="1"/>
        <pt x="576" y="1559" on="0"/>
        <pt x="576" y="1544" on="1"/>
        <pt x="576" y="1536" on="1"/>
        <pt x="578" y="1517" on="0"/>
        <pt x="608" y="1480" on="0"/>
        <pt x="628" y="1469" on="1"/>
        <pt x="647" y="1457" on="0"/>
        <pt x="671" y="1453" on="1"/>
        <pt x="678" y="1452" on="0"/>
        <pt x="684" y="1452" on="1"/>
        <pt x="699" y="1452" on="0"/>
        <pt x="712" y="1458" on="1"/>
        <pt x="730" y="1466" on="0"/>
      </contour>
      <contour>
        <pt x="660" y="1750" on="1"/>
        <pt x="723" y="1750" on="0"/>
        <pt x="842" y="1692" on="0"/>
        <pt x="910" y="1584" on="0"/>
        <pt x="910" y="1525" on="1"/>
        <pt x="910" y="1466" on="0"/>
        <pt x="844" y="1359" on="0"/>
        <pt x="726" y="1300" on="0"/>
        <pt x="660" y="1300" on="1"/>
        <pt x="596" y="1300" on="0"/>
        <pt x="477" y="1359" on="0"/>
        <pt x="410" y="1466" on="0"/>
        <pt x="410" y="1525" on="1"/>
        <pt x="410" y="1584" on="0"/>
        <pt x="478" y="1692" on="0"/>
        <pt x="597" y="1750" on="0"/>
      </contour>
    </TTGlyph>
    <TTGlyph name="uni179B" xMin="150" yMin="0" xMax="1750" yMax="1200">
      <contour>
        <pt x="438" y="310" on="1"/>
        <pt x="438" y="138" on="1"/>
        <pt x="530" y="138" on="0"/>
        <pt x="530" y="249" on="1"/>
        <pt x="530" y="310" on="0"/>
      </contour>
      <contour>
        <pt x="1750" y="323" on="1"/>
        <pt x="1750" y="0" on="0"/>
        <pt x="1281" y="0" on="1"/>
        <pt x="812" y="0" on="0"/>
        <pt x="812" y="323" on="1"/>
        <pt x="812" y="877" on="1"/>
        <pt x="812" y="1012" on="0"/>
        <pt x="625" y="1012" on="1"/>
        <pt x="438" y="1012" on="0"/>
        <pt x="438" y="877" on="1"/>
        <pt x="438" y="448" on="1"/>
        <pt x="648" y="448" on="0"/>
        <pt x="648" y="249" on="1"/>
        <pt x="648" y="0" on="0"/>
        <pt x="438" y="0" on="1"/>
        <pt x="294" y="0" on="1"/>
        <pt x="150" y="0" on="0"/>
        <pt x="150" y="122" on="1"/>
        <pt x="150" y="877" on="1"/>
        <pt x="150" y="1200" on="0"/>
        <pt x="625" y="1200" on="1"/>
        <pt x="1100" y="1200" on="0"/>
        <pt x="1100" y="877" on="1"/>
        <pt x="1100" y="323" on="1"/>
        <pt x="1100" y="188" on="0"/>
        <pt x="1281" y="188" on="1"/>
        <pt x="1462" y="188" on="0"/>
        <pt x="1462" y="323" on="1"/>
        <pt x="1462" y="806" on="1"/>
        <pt x="1357" y="905" on="1"/>
        <pt x="1305" y="955" on="1"/>
        <pt x="1274" y="984" on="0"/>
        <pt x="1274" y="1012" on="1"/>
        <pt x="1274" y="1033" on="0"/>
        <pt x="1290" y="1053" on="1"/>
        <pt x="1327" y="1102" on="1"/>
        <pt x="1402" y="1200" on="1"/>
        <pt x="1750" y="1200" on="1"/>
        <pt x="1750" y="1012" on="1"/>
        <pt x="1452" y="1012" on="1"/>
        <pt x="1750" y="840" on="1"/>
      </contour>
    </TTGlyph>
    <TTGlyph name="uni179C" xMin="12" yMin="0" xMax="550" yMax="1400">
      <contour>
        <pt x="184" y="310" on="1"/>
        <pt x="158" y="310" on="0"/>
        <pt x="158" y="249" on="1"/>
        <pt x="158" y="148" on="0"/>
        <pt x="184" y="148" on="1"/>
        <pt x="210" y="148" on="0"/>
        <pt x="210" y="229" on="1"/>
        <pt x="210" y="310" on="0"/>
      </contour>
      <contour>
        <pt x="150" y="806" on="1"/>
        <pt x="12" y="984" on="0"/>
        <pt x="12" y="1012" on="1"/>
        <pt x="12" y="1033" on="0"/>
        <pt x="28" y="1053" on="1"/>
        <pt x="65" y="1102" on="1"/>
        <pt x="140" y="1200" on="1"/>
        <pt x="220" y="1200" on="1"/>
        <pt x="262" y="1200" on="0"/>
        <pt x="262" y="1250" on="1"/>
        <pt x="262" y="1400" on="1"/>
        <pt x="550" y="1400" on="1"/>
        <pt x="550" y="1250" on="1"/>
        <pt x="550" y="1012" on="0"/>
        <pt x="340" y="1012" on="1"/>
        <pt x="190" y="1012" on="1"/>
        <pt x="438" y="840" on="1"/>
        <pt x="438" y="122" on="1"/>
        <pt x="438" y="0" on="0"/>
        <pt x="344" y="0" on="1"/>
        <pt x="200" y="0" on="1"/>
        <pt x="40" y="0" on="0"/>
        <pt x="40" y="249" on="1"/>
        <pt x="40" y="448" on="0"/>
        <pt x="150" y="448" on="1"/>
      </contour>
    </TTGlyph>
    <TTGlyph name="uni179D" xMin="150" yMin="0" xMax="1200" yMax="1200">
      <contour>
        <pt x="1150" y="1200" on="1"/>
        <pt x="1150" y="1012" on="1"/>
        <pt x="150" y="1012" on="1"/>
        <pt x="150" y="1200" on="1"/>
      </contour>
      <contour>
        <pt x="1150" y="450" on="1"/>
        <pt x="1200" y="450" on="1"/>
        <pt x="1200" y="262" on="1"/>
        <pt x="1150" y="262" on="1"/>
        <pt x="1150" y="0" on="1"/>
        <pt x="862" y="0" on="1"/>
        <pt x="862" y="262" on="1"/>
        <pt x="740" y="262" on="1"/>
        <pt x="740" y="450" on="1"/>
        <pt x="862" y="450" on="1"/>
        <pt x="862" y="570" on="1"/>
        <pt x="862" y="705" on="0"/>
        <pt x="650" y="705" on="1"/>
        <pt x="438" y="705" on="0"/>
        <pt x="438" y="570" on="1"/>
        <pt x="438" y="377" on="1"/>
        <pt x="495" y="450" on="0"/>
        <pt x="573" y="450" on="1"/>
        <pt x="700" y="450" on="1"/>
        <pt x="700" y="262" on="1"/>
        <pt x="596" y="262" on="1"/>
        <pt x="493" y="262" on="0"/>
        <pt x="451" y="197" on="1"/>
        <pt x="444" y="186" on="0"/>
        <pt x="438" y="176" on="1"/>
        <pt x="438" y="0" on="1"/>
        <pt x="150" y="0" on="1"/>
        <pt x="150" y="570" on="1"/>
        <pt x="150" y="893" on="0"/>
        <pt x="650" y="893" on="1"/>
        <pt x="1150" y="893" on="0"/>
        <pt x="1150" y="570" on="1"/>
      </contour>
    </TTGlyph>
    <TTGlyph name="uni179E" xMin="39" yMin="0" xMax="1200" yMax="1200">
      <contour>
        <pt x="1150" y="719" on="1"/>
        <pt x="1200" y="719" on="1"/>
        <pt x="1200" y="531" on="1"/>
        <pt x="1150" y="531" on="1"/>
        <pt x="1150" y="323" on="1"/>
        <pt x="1150" y="0" on="0"/>
        <pt x="650" y="0" on="1"/>
        <pt x="150" y="0" on="0"/>
        <pt x="150" y="323" on="1"/>
        <pt x="150" y="843" on="1"/>
        <pt x="100" y="905" on="1"/>
        <pt x="60" y="955" on="1"/>
        <pt x="39" y="980" on="0"/>
        <pt x="39" y="1005" on="1"/>
        <pt x="39" y="1029" on="0"/>
        <pt x="58" y="1053" on="1"/>
        <pt x="95" y="1102" on="1"/>
        <pt x="170" y="1200" on="1"/>
        <pt x="498" y="1200" on="1"/>
        <pt x="498" y="1012" on="1"/>
        <pt x="220" y="1012" on="1"/>
        <pt x="438" y="840" on="1"/>
        <pt x="438" y="323" on="1"/>
        <pt x="438" y="188" on="0"/>
        <pt x="650" y="188" on="1"/>
        <pt x="862" y="188" on="0"/>
        <pt x="862" y="323" on="1"/>
        <pt x="862" y="531" on="1"/>
        <pt x="740" y="531" on="1"/>
        <pt x="740" y="719" on="1"/>
        <pt x="862" y="719" on="1"/>
        <pt x="862" y="806" on="1"/>
        <pt x="757" y="905" on="1"/>
        <pt x="705" y="955" on="1"/>
        <pt x="674" y="984" on="0"/>
        <pt x="674" y="1012" on="1"/>
        <pt x="674" y="1033" on="0"/>
        <pt x="690" y="1053" on="1"/>
        <pt x="727" y="1102" on="1"/>
        <pt x="802" y="1200" on="1"/>
        <pt x="1150" y="1200" on="1"/>
        <pt x="1150" y="1012" on="1"/>
        <pt x="852" y="1012" on="1"/>
        <pt x="1150" y="840" on="1"/>
      </contour>
    </TTGlyph>
    <TTGlyph name="uni179F" xMin="150" yMin="0" xMax="1750" yMax="1200">
      <contour>
        <pt x="438" y="310" on="1"/>
        <pt x="438" y="138" on="1"/>
        <pt x="530" y="138" on="0"/>
        <pt x="530" y="249" on="1"/>
        <pt x="530" y="310" on="0"/>
      </contour>
      <contour>
        <pt x="303" y="849" on="1"/>
        <pt x="220" y="955" on="1"/>
        <pt x="199" y="980" on="0"/>
        <pt x="199" y="1005" on="1"/>
        <pt x="199" y="1029" on="0"/>
        <pt x="218" y="1053" on="1"/>
        <pt x="255" y="1102" on="1"/>
        <pt x="330" y="1200" on="1"/>
        <pt x="900" y="1200" on="1"/>
        <pt x="900" y="1012" on="1"/>
        <pt x="380" y="1012" on="1"/>
        <pt x="493" y="903" on="1"/>
        <pt x="553" y="910" on="0"/>
        <pt x="625" y="910" on="1"/>
        <pt x="1100" y="910" on="0"/>
        <pt x="1100" y="587" on="1"/>
        <pt x="1100" y="323" on="1"/>
        <pt x="1100" y="188" on="0"/>
        <pt x="1281" y="188" on="1"/>
        <pt x="1462" y="188" on="0"/>
        <pt x="1462" y="323" on="1"/>
        <pt x="1462" y="806" on="1"/>
        <pt x="1357" y="905" on="1"/>
        <pt x="1305" y="955" on="1"/>
        <pt x="1274" y="984" on="0"/>
        <pt x="1274" y="1012" on="1"/>
        <pt x="1274" y="1033" on="0"/>
        <pt x="1290" y="1053" on="1"/>
        <pt x="1327" y="1102" on="1"/>
        <pt x="1402" y="1200" on="1"/>
        <pt x="1750" y="1200" on="1"/>
        <pt x="1750" y="1012" on="1"/>
        <pt x="1452" y="1012" on="1"/>
        <pt x="1750" y="840" on="1"/>
        <pt x="1750" y="323" on="1"/>
        <pt x="1750" y="0" on="0"/>
        <pt x="1281" y="0" on="1"/>
        <pt x="812" y="0" on="0"/>
        <pt x="812" y="323" on="1"/>
        <pt x="812" y="587" on="1"/>
        <pt x="812" y="722" on="0"/>
        <pt x="625" y="722" on="1"/>
        <pt x="438" y="722" on="0"/>
        <pt x="438" y="587" on="1"/>
        <pt x="438" y="448" on="1"/>
        <pt x="648" y="448" on="0"/>
        <pt x="648" y="249" on="1"/>
        <pt x="648" y="0" on="0"/>
        <pt x="438" y="0" on="1"/>
        <pt x="294" y="0" on="1"/>
        <pt x="150" y="0" on="0"/>
        <pt x="150" y="122" on="1"/>
        <pt x="150" y="587" on="1"/>
        <pt x="150" y="770" on="0"/>
      </contour>
    </TTGlyph>
    <TTGlyph name="uni17A0" xMin="39" yMin="0" xMax="1750" yMax="1200">
      <contour>
        <pt x="438" y="323" on="1"/>
        <pt x="438" y="188" on="0"/>
        <pt x="625" y="188" on="1"/>
        <pt x="812" y="188" on="0"/>
        <pt x="812" y="323" on="1"/>
        <pt x="812" y="877" on="1"/>
        <pt x="812" y="1200" on="0"/>
        <pt x="1281" y="1200" on="1"/>
        <pt x="1750" y="1200" on="0"/>
        <pt x="1750" y="877" on="1"/>
        <pt x="1750" y="0" on="1"/>
        <pt x="1462" y="0" on="1"/>
        <pt x="1462" y="877" on="1"/>
        <pt x="1462" y="1012" on="0"/>
        <pt x="1281" y="1012" on="1"/>
        <pt x="1100" y="1012" on="0"/>
        <pt x="1100" y="877" on="1"/>
        <pt x="1100" y="323" on="1"/>
        <pt x="1100" y="0" on="0"/>
        <pt x="625" y="0" on="1"/>
        <pt x="150" y="0" on="0"/>
        <pt x="150" y="323" on="1"/>
        <pt x="150" y="843" on="1"/>
        <pt x="100" y="905" on="1"/>
        <pt x="60" y="955" on="1"/>
        <pt x="39" y="980" on="0"/>
        <pt x="39" y="1005" on="1"/>
        <pt x="39" y="1029" on="0"/>
        <pt x="58" y="1053" on="1"/>
        <pt x="95" y="1102" on="1"/>
        <pt x="170" y="1200" on="1"/>
        <pt x="498" y="1200" on="1"/>
        <pt x="498" y="1012" on="1"/>
        <pt x="220" y="1012" on="1"/>
        <pt x="438" y="840" on="1"/>
      </contour>
    </TTGlyph>
    <TTGlyph name="uni17A1" xMin="150" yMin="-490" xMax="1750" yMax="1200">
      <contour>
        <pt x="1088" y="447" on="1"/>
        <pt x="1088" y="323" on="1"/>
        <pt x="1088" y="0" on="0"/>
        <pt x="644" y="0" on="1"/>
        <pt x="200" y="0" on="0"/>
        <pt x="200" y="323" on="1"/>
        <pt x="200" y="460" on="1"/>
        <pt x="488" y="460" on="1"/>
        <pt x="488" y="323" on="1"/>
        <pt x="488" y="188" on="0"/>
        <pt x="644" y="188" on="1"/>
        <pt x="800" y="188" on="0"/>
        <pt x="800" y="323" on="1"/>
        <pt x="800" y="462" on="1"/>
        <pt x="150" y="555" on="0"/>
        <pt x="150" y="877" on="1"/>
        <pt x="150" y="1200" on="0"/>
        <pt x="650" y="1200" on="1"/>
        <pt x="1150" y="1200" on="0"/>
        <pt x="1150" y="897" on="1"/>
        <pt x="1150" y="847" on="1"/>
        <pt x="862" y="847" on="1"/>
        <pt x="862" y="897" on="1"/>
        <pt x="862" y="1012" on="0"/>
        <pt x="650" y="1012" on="1"/>
        <pt x="438" y="1012" on="0"/>
        <pt x="438" y="877" on="1"/>
        <pt x="438" y="727" on="0"/>
        <pt x="808" y="650" on="1"/>
        <pt x="817" y="674" on="0"/>
        <pt x="837" y="694" on="1"/>
        <pt x="873" y="730" on="0"/>
        <pt x="975" y="730" on="1"/>
        <pt x="1077" y="730" on="0"/>
        <pt x="1150" y="637" on="0"/>
        <pt x="1150" y="555" on="1"/>
        <pt x="1150" y="503" on="0"/>
        <pt x="1114" y="467" on="1"/>
        <pt x="1102" y="455" on="0"/>
      </contour>
      <contour>
        <pt x="1462" y="-277" on="1"/>
        <pt x="1462" y="806" on="1"/>
        <pt x="1357" y="905" on="1"/>
        <pt x="1305" y="955" on="1"/>
        <pt x="1274" y="984" on="0"/>
        <pt x="1274" y="1012" on="1"/>
        <pt x="1274" y="1033" on="0"/>
        <pt x="1290" y="1053" on="1"/>
        <pt x="1327" y="1102" on="1"/>
        <pt x="1402" y="1200" on="1"/>
        <pt x="1750" y="1200" on="1"/>
        <pt x="1750" y="1012" on="1"/>
        <pt x="1452" y="1012" on="1"/>
        <pt x="1750" y="840" on="1"/>
        <pt x="1750" y="-490" on="1"/>
        <pt x="1482" y="-490" on="1"/>
        <pt x="1276" y="-303" on="1"/>
        <pt x="1069" y="-490" on="1"/>
        <pt x="800" y="-490" on="1"/>
        <pt x="800" y="-235" on="1"/>
        <pt x="800" y="-194" on="0"/>
        <pt x="700" y="-194" on="1"/>
        <pt x="700" y="-50" on="1"/>
        <pt x="900" y="-50" on="1"/>
        <pt x="1088" y="-50" on="0"/>
        <pt x="1088" y="-194" on="1"/>
        <pt x="1088" y="-279" on="1"/>
        <pt x="1276" y="-108" on="1"/>
      </contour>
    </TTGlyph>
    <TTGlyph name="uni17A2" xMin="39" yMin="0" xMax="1150" yMax="1200">
      <contour>
        <pt x="862" y="694" on="1"/>
        <pt x="862" y="806" on="1"/>
        <pt x="757" y="905" on="1"/>
        <pt x="705" y="955" on="1"/>
        <pt x="674" y="984" on="0"/>
        <pt x="674" y="1012" on="1"/>
        <pt x="674" y="1033" on="0"/>
        <pt x="690" y="1053" on="1"/>
        <pt x="727" y="1102" on="1"/>
        <pt x="802" y="1200" on="1"/>
        <pt x="1150" y="1200" on="1"/>
        <pt x="1150" y="1012" on="1"/>
        <pt x="852" y="1012" on="1"/>
        <pt x="1150" y="840" on="1"/>
        <pt x="1150" y="102" on="1"/>
        <pt x="1150" y="0" on="0"/>
        <pt x="950" y="0" on="1"/>
        <pt x="751" y="0" on="1"/>
        <pt x="751" y="188" on="1"/>
        <pt x="862" y="188" on="0"/>
        <pt x="862" y="235" on="1"/>
        <pt x="862" y="506" on="1"/>
        <pt x="438" y="506" on="1"/>
        <pt x="438" y="102" on="1"/>
        <pt x="438" y="0" on="0"/>
        <pt x="238" y="0" on="1"/>
        <pt x="39" y="0" on="1"/>
        <pt x="39" y="188" on="1"/>
        <pt x="150" y="188" on="0"/>
        <pt x="150" y="235" on="1"/>
        <pt x="150" y="843" on="1"/>
        <pt x="100" y="905" on="1"/>
        <pt x="60" y="955" on="1"/>
        <pt x="39" y="980" on="0"/>
        <pt x="39" y="1005" on="1"/>
        <pt x="39" y="1029" on="0"/>
        <pt x="58" y="1053" on="1"/>
        <pt x="95" y="1102" on="1"/>
        <pt x="170" y="1200" on="1"/>
        <pt x="498" y="1200" on="1"/>
        <pt x="498" y="1012" on="1"/>
        <pt x="220" y="1012" on="1"/>
        <pt x="438" y="840" on="1"/>
        <pt x="438" y="694" on="1"/>
      </contour>
    </TTGlyph>
    <TTGlyph name="uni17A3" xMin="39" yMin="0" xMax="1150" yMax="1200">
      <contour>
        <pt x="862" y="694" on="1"/>
        <pt x="862" y="806" on="1"/>
        <pt x="757" y="905" on="1"/>
        <pt x="705" y="955" on="1"/>
        <pt x="674" y="984" on="0"/>
        <pt x="674" y="1012" on="1"/>
        <pt x="674" y="1033" on="0"/>
        <pt x="690" y="1053" on="1"/>
        <pt x="727" y="1102" on="1"/>
        <pt x="802" y="1200" on="1"/>
        <pt x="1150" y="1200" on="1"/>
        <pt x="1150" y="1012" on="1"/>
        <pt x="852" y="1012" on="1"/>
        <pt x="1150" y="840" on="1"/>
        <pt x="1150" y="102" on="1"/>
        <pt x="1150" y="0" on="0"/>
        <pt x="950" y="0" on="1"/>
        <pt x="751" y="0" on="1"/>
        <pt x="751" y="188" on="1"/>
        <pt x="862" y="188" on="0"/>
        <pt x="862" y="235" on="1"/>
        <pt x="862" y="506" on="1"/>
        <pt x="438" y="506" on="1"/>
        <pt x="438" y="102" on="1"/>
        <pt x="438" y="0" on="0"/>
        <pt x="238" y="0" on="1"/>
        <pt x="39" y="0" on="1"/>
        <pt x="39" y="188" on="1"/>
        <pt x="150" y="188" on="0"/>
        <pt x="150" y="235" on="1"/>
        <pt x="150" y="843" on="1"/>
        <pt x="100" y="905" on="1"/>
        <pt x="60" y="955" on="1"/>
        <pt x="39" y="980" on="0"/>
        <pt x="39" y="1005" on="1"/>
        <pt x="39" y="1029" on="0"/>
        <pt x="58" y="1053" on="1"/>
        <pt x="95" y="1102" on="1"/>
        <pt x="170" y="1200" on="1"/>
        <pt x="498" y="1200" on="1"/>
        <pt x="498" y="1012" on="1"/>
        <pt x="220" y="1012" on="1"/>
        <pt x="438" y="840" on="1"/>
        <pt x="438" y="694" on="1"/>
      </contour>
    </TTGlyph>
    <TTGlyph name="uni17A4" xMin="39" yMin="0" xMax="1750" yMax="1200">
      <contour>
        <pt x="852" y="1012" on="1"/>
        <pt x="1150" y="840" on="1"/>
        <pt x="1150" y="102" on="1"/>
        <pt x="1150" y="0" on="0"/>
        <pt x="950" y="0" on="1"/>
        <pt x="751" y="0" on="1"/>
        <pt x="751" y="188" on="1"/>
        <pt x="862" y="188" on="0"/>
        <pt x="862" y="235" on="1"/>
        <pt x="862" y="506" on="1"/>
        <pt x="438" y="506" on="1"/>
        <pt x="438" y="102" on="1"/>
        <pt x="438" y="0" on="0"/>
        <pt x="238" y="0" on="1"/>
        <pt x="39" y="0" on="1"/>
        <pt x="39" y="188" on="1"/>
        <pt x="150" y="188" on="0"/>
        <pt x="150" y="235" on="1"/>
        <pt x="150" y="843" on="1"/>
        <pt x="100" y="905" on="1"/>
        <pt x="60" y="955" on="1"/>
        <pt x="39" y="980" on="0"/>
        <pt x="39" y="1005" on="1"/>
        <pt x="39" y="1029" on="0"/>
        <pt x="58" y="1053" on="1"/>
        <pt x="95" y="1102" on="1"/>
        <pt x="170" y="1200" on="1"/>
        <pt x="498" y="1200" on="1"/>
        <pt x="498" y="1012" on="1"/>
        <pt x="220" y="1012" on="1"/>
        <pt x="438" y="840" on="1"/>
        <pt x="438" y="694" on="1"/>
        <pt x="862" y="694" on="1"/>
        <pt x="862" y="806" on="1"/>
        <pt x="757" y="905" on="1"/>
        <pt x="705" y="955" on="1"/>
        <pt x="674" y="984" on="0"/>
        <pt x="674" y="1012" on="1"/>
        <pt x="674" y="1033" on="0"/>
        <pt x="690" y="1053" on="1"/>
        <pt x="727" y="1102" on="1"/>
        <pt x="802" y="1200" on="1"/>
        <pt x="1380" y="1200" on="1"/>
        <pt x="1548" y="1200" on="0"/>
        <pt x="1750" y="1068" on="0"/>
        <pt x="1750" y="937" on="1"/>
        <pt x="1750" y="0" on="1"/>
        <pt x="1462" y="0" on="1"/>
        <pt x="1462" y="887" on="1"/>
        <pt x="1462" y="959" on="0"/>
        <pt x="1405" y="1012" on="0"/>
        <pt x="1330" y="1012" on="1"/>
      </contour>
    </TTGlyph>
    <TTGlyph name="uni17A5" xMin="100" yMin="0" xMax="1150" yMax="1400">
      <contour>
        <pt x="438" y="448" on="1"/>
        <pt x="648" y="448" on="0"/>
        <pt x="648" y="249" on="1"/>
        <pt x="648" y="0" on="0"/>
        <pt x="438" y="0" on="1"/>
        <pt x="294" y="0" on="1"/>
        <pt x="150" y="0" on="0"/>
        <pt x="150" y="122" on="1"/>
        <pt x="150" y="570" on="1"/>
        <pt x="150" y="893" on="0"/>
        <pt x="650" y="893" on="1"/>
        <pt x="1150" y="893" on="0"/>
        <pt x="1150" y="570" on="1"/>
        <pt x="1150" y="0" on="1"/>
        <pt x="862" y="0" on="1"/>
        <pt x="862" y="570" on="1"/>
        <pt x="862" y="705" on="0"/>
        <pt x="650" y="705" on="1"/>
        <pt x="438" y="705" on="0"/>
        <pt x="438" y="570" on="1"/>
      </contour>
      <contour>
        <pt x="438" y="138" on="1"/>
        <pt x="530" y="138" on="0"/>
        <pt x="530" y="249" on="1"/>
        <pt x="530" y="310" on="0"/>
        <pt x="438" y="310" on="1"/>
      </contour>
      <contour>
        <pt x="313" y="1012" on="1"/>
        <pt x="292" y="987" on="1"/>
        <pt x="287" y="982" on="0"/>
        <pt x="287" y="974" on="1"/>
        <pt x="287" y="942" on="0"/>
        <pt x="354" y="904" on="1"/>
        <pt x="178" y="814" on="1"/>
        <pt x="172" y="822" on="1"/>
        <pt x="100" y="914" on="0"/>
        <pt x="100" y="955" on="1"/>
        <pt x="100" y="992" on="0"/>
        <pt x="118" y="1017" on="1"/>
        <pt x="258" y="1200" on="1"/>
        <pt x="800" y="1200" on="1"/>
        <pt x="862" y="1200" on="0"/>
        <pt x="862" y="1250" on="1"/>
        <pt x="862" y="1400" on="1"/>
        <pt x="1150" y="1400" on="1"/>
        <pt x="1150" y="1250" on="1"/>
        <pt x="1150" y="1012" on="0"/>
        <pt x="930" y="1012" on="1"/>
      </contour>
    </TTGlyph>
    <TTGlyph name="uni17A6" xMin="150" yMin="-500" xMax="1750" yMax="1900">
      <contour>
        <pt x="833" y="-283" on="1"/>
        <pt x="833" y="-217" on="0"/>
        <pt x="779" y="-180" on="0"/>
        <pt x="650" y="-180" on="1"/>
        <pt x="521" y="-180" on="0"/>
        <pt x="467" y="-217" on="0"/>
        <pt x="467" y="-283" on="1"/>
        <pt x="467" y="-336" on="1"/>
        <pt x="467" y="-370" on="0"/>
        <pt x="574" y="-370" on="1"/>
        <pt x="574" y="-500" on="1"/>
        <pt x="383" y="-500" on="1"/>
        <pt x="200" y="-500" on="0"/>
        <pt x="200" y="-426" on="1"/>
        <pt x="200" y="-283" on="1"/>
        <pt x="200" y="-184" on="0"/>
        <pt x="428" y="-50" on="0"/>
        <pt x="650" y="-50" on="1"/>
        <pt x="872" y="-50" on="0"/>
        <pt x="1100" y="-184" on="0"/>
        <pt x="1100" y="-283" on="1"/>
        <pt x="1100" y="-330" on="0"/>
        <pt x="1312" y="-330" on="1"/>
        <pt x="1462" y="-330" on="0"/>
        <pt x="1462" y="-260" on="1"/>
        <pt x="1462" y="1250" on="1"/>
        <pt x="1462" y="1430" on="0"/>
        <pt x="1312" y="1430" on="1"/>
        <pt x="1162" y="1430" on="0"/>
        <pt x="1102" y="1350" on="1"/>
        <pt x="874" y="1350" on="1"/>
        <pt x="874" y="1900" on="1"/>
        <pt x="1162" y="1900" on="1"/>
        <pt x="1162" y="1552" on="1"/>
        <pt x="1237" y="1610" on="0"/>
        <pt x="1392" y="1610" on="1"/>
        <pt x="1750" y="1610" on="0"/>
        <pt x="1750" y="1250" on="1"/>
        <pt x="1750" y="-260" on="1"/>
        <pt x="1750" y="-500" on="0"/>
        <pt x="1312" y="-500" on="1"/>
        <pt x="833" y="-500" on="0"/>
      </contour>
      <contour>
        <pt x="438" y="310" on="1"/>
        <pt x="438" y="138" on="1"/>
        <pt x="530" y="138" on="0"/>
        <pt x="530" y="249" on="1"/>
        <pt x="530" y="310" on="0"/>
      </contour>
      <contour>
        <pt x="812" y="0" on="1"/>
        <pt x="812" y="877" on="1"/>
        <pt x="812" y="1012" on="0"/>
        <pt x="625" y="1012" on="1"/>
        <pt x="438" y="1012" on="0"/>
        <pt x="438" y="877" on="1"/>
        <pt x="438" y="448" on="1"/>
        <pt x="648" y="448" on="0"/>
        <pt x="648" y="249" on="1"/>
        <pt x="648" y="0" on="0"/>
        <pt x="438" y="0" on="1"/>
        <pt x="294" y="0" on="1"/>
        <pt x="150" y="0" on="0"/>
        <pt x="150" y="122" on="1"/>
        <pt x="150" y="877" on="1"/>
        <pt x="150" y="1200" on="0"/>
        <pt x="625" y="1200" on="1"/>
        <pt x="1100" y="1200" on="0"/>
        <pt x="1100" y="877" on="1"/>
        <pt x="1100" y="0" on="1"/>
      </contour>
    </TTGlyph>
    <TTGlyph name="uni17A7" xMin="150" yMin="-100" xMax="1150" yMax="1200">
      <contour>
        <pt x="438" y="323" on="1"/>
        <pt x="438" y="188" on="0"/>
        <pt x="520" y="188" on="1"/>
        <pt x="585" y="188" on="0"/>
        <pt x="862" y="341" on="0"/>
        <pt x="862" y="403" on="1"/>
        <pt x="862" y="480" on="1"/>
        <pt x="1150" y="480" on="1"/>
        <pt x="1150" y="-100" on="1"/>
        <pt x="862" y="-100" on="1"/>
        <pt x="862" y="153" on="1"/>
        <pt x="660" y="0" on="0"/>
        <pt x="520" y="0" on="1"/>
        <pt x="150" y="0" on="0"/>
        <pt x="150" y="323" on="1"/>
        <pt x="150" y="586" on="1"/>
        <pt x="556" y="656" on="1"/>
        <pt x="862" y="717" on="0"/>
        <pt x="862" y="877" on="1"/>
        <pt x="862" y="1012" on="0"/>
        <pt x="650" y="1012" on="1"/>
        <pt x="438" y="1012" on="0"/>
        <pt x="438" y="897" on="1"/>
        <pt x="438" y="863" on="0"/>
        <pt x="538" y="863" on="1"/>
        <pt x="538" y="719" on="1"/>
        <pt x="338" y="719" on="1"/>
        <pt x="150" y="719" on="0"/>
        <pt x="150" y="863" on="1"/>
        <pt x="150" y="897" on="1"/>
        <pt x="150" y="1200" on="0"/>
        <pt x="650" y="1200" on="1"/>
        <pt x="1150" y="1200" on="0"/>
        <pt x="1150" y="877" on="1"/>
        <pt x="1150" y="575" on="0"/>
        <pt x="566" y="479" on="1"/>
        <pt x="438" y="453" on="1"/>
      </contour>
    </TTGlyph>
    <TTGlyph name="uni17A8" xMin="150" yMin="-100" xMax="1150" yMax="1500">
      <contour>
        <pt x="1150" y="1500" on="1"/>
        <pt x="1150" y="1312" on="1"/>
        <pt x="150" y="1312" on="1"/>
        <pt x="150" y="1500" on="1"/>
      </contour>
      <contour>
        <pt x="438" y="323" on="1"/>
        <pt x="438" y="188" on="0"/>
        <pt x="520" y="188" on="1"/>
        <pt x="585" y="188" on="0"/>
        <pt x="862" y="341" on="0"/>
        <pt x="862" y="403" on="1"/>
        <pt x="862" y="480" on="1"/>
        <pt x="1150" y="480" on="1"/>
        <pt x="1150" y="-100" on="1"/>
        <pt x="862" y="-100" on="1"/>
        <pt x="862" y="153" on="1"/>
        <pt x="660" y="0" on="0"/>
        <pt x="520" y="0" on="1"/>
        <pt x="150" y="0" on="0"/>
        <pt x="150" y="323" on="1"/>
        <pt x="150" y="586" on="1"/>
        <pt x="556" y="656" on="1"/>
        <pt x="862" y="717" on="0"/>
        <pt x="862" y="877" on="1"/>
        <pt x="862" y="1012" on="0"/>
        <pt x="650" y="1012" on="1"/>
        <pt x="438" y="1012" on="0"/>
        <pt x="438" y="897" on="1"/>
        <pt x="438" y="863" on="0"/>
        <pt x="538" y="863" on="1"/>
        <pt x="538" y="719" on="1"/>
        <pt x="338" y="719" on="1"/>
        <pt x="150" y="719" on="0"/>
        <pt x="150" y="863" on="1"/>
        <pt x="150" y="897" on="1"/>
        <pt x="150" y="1200" on="0"/>
        <pt x="650" y="1200" on="1"/>
        <pt x="1150" y="1200" on="0"/>
        <pt x="1150" y="877" on="1"/>
        <pt x="1150" y="575" on="0"/>
        <pt x="566" y="479" on="1"/>
        <pt x="438" y="453" on="1"/>
      </contour>
    </TTGlyph>
    <TTGlyph name="uni17A9" xMin="150" yMin="-100" xMax="1400" yMax="1200">
      <contour>
        <pt x="1400" y="480" on="1"/>
        <pt x="1400" y="-100" on="1"/>
        <pt x="1212" y="-100" on="1"/>
        <pt x="1212" y="480" on="1"/>
      </contour>
      <contour>
        <pt x="438" y="323" on="1"/>
        <pt x="438" y="188" on="0"/>
        <pt x="520" y="188" on="1"/>
        <pt x="585" y="188" on="0"/>
        <pt x="862" y="341" on="0"/>
        <pt x="862" y="403" on="1"/>
        <pt x="862" y="480" on="1"/>
        <pt x="1150" y="480" on="1"/>
        <pt x="1150" y="-100" on="1"/>
        <pt x="862" y="-100" on="1"/>
        <pt x="862" y="153" on="1"/>
        <pt x="660" y="0" on="0"/>
        <pt x="520" y="0" on="1"/>
        <pt x="150" y="0" on="0"/>
        <pt x="150" y="323" on="1"/>
        <pt x="150" y="586" on="1"/>
        <pt x="556" y="656" on="1"/>
        <pt x="862" y="717" on="0"/>
        <pt x="862" y="877" on="1"/>
        <pt x="862" y="1012" on="0"/>
        <pt x="650" y="1012" on="1"/>
        <pt x="438" y="1012" on="0"/>
        <pt x="438" y="897" on="1"/>
        <pt x="438" y="863" on="0"/>
        <pt x="538" y="863" on="1"/>
        <pt x="538" y="719" on="1"/>
        <pt x="338" y="719" on="1"/>
        <pt x="150" y="719" on="0"/>
        <pt x="150" y="863" on="1"/>
        <pt x="150" y="897" on="1"/>
        <pt x="150" y="1200" on="0"/>
        <pt x="650" y="1200" on="1"/>
        <pt x="1150" y="1200" on="0"/>
        <pt x="1150" y="877" on="1"/>
        <pt x="1150" y="575" on="0"/>
        <pt x="566" y="479" on="1"/>
        <pt x="438" y="453" on="1"/>
      </contour>
    </TTGlyph>
    <TTGlyph name="uni17AA" xMin="100" yMin="-100" xMax="1150" yMax="1700">
      <contour>
        <pt x="438" y="323" on="1"/>
        <pt x="438" y="188" on="0"/>
        <pt x="520" y="188" on="1"/>
        <pt x="585" y="188" on="0"/>
        <pt x="862" y="341" on="0"/>
        <pt x="862" y="403" on="1"/>
        <pt x="862" y="480" on="1"/>
        <pt x="1150" y="480" on="1"/>
        <pt x="1150" y="-100" on="1"/>
        <pt x="862" y="-100" on="1"/>
        <pt x="862" y="153" on="1"/>
        <pt x="660" y="0" on="0"/>
        <pt x="520" y="0" on="1"/>
        <pt x="150" y="0" on="0"/>
        <pt x="150" y="323" on="1"/>
        <pt x="150" y="586" on="1"/>
        <pt x="556" y="656" on="1"/>
        <pt x="862" y="717" on="0"/>
        <pt x="862" y="877" on="1"/>
        <pt x="862" y="1012" on="0"/>
        <pt x="650" y="1012" on="1"/>
        <pt x="438" y="1012" on="0"/>
        <pt x="438" y="897" on="1"/>
        <pt x="438" y="863" on="0"/>
        <pt x="538" y="863" on="1"/>
        <pt x="538" y="719" on="1"/>
        <pt x="338" y="719" on="1"/>
        <pt x="150" y="719" on="0"/>
        <pt x="150" y="863" on="1"/>
        <pt x="150" y="897" on="1"/>
        <pt x="150" y="1200" on="0"/>
        <pt x="650" y="1200" on="1"/>
        <pt x="1150" y="1200" on="0"/>
        <pt x="1150" y="877" on="1"/>
        <pt x="1150" y="575" on="0"/>
        <pt x="566" y="479" on="1"/>
        <pt x="438" y="453" on="1"/>
      </contour>
      <contour>
        <pt x="313" y="1312" on="1"/>
        <pt x="292" y="1287" on="1"/>
        <pt x="287" y="1282" on="0"/>
        <pt x="287" y="1274" on="1"/>
        <pt x="287" y="1242" on="0"/>
        <pt x="354" y="1204" on="1"/>
        <pt x="178" y="1114" on="1"/>
        <pt x="172" y="1122" on="1"/>
        <pt x="100" y="1214" on="0"/>
        <pt x="100" y="1255" on="1"/>
        <pt x="100" y="1292" on="0"/>
        <pt x="118" y="1317" on="1"/>
        <pt x="258" y="1500" on="1"/>
        <pt x="800" y="1500" on="1"/>
        <pt x="862" y="1500" on="0"/>
        <pt x="862" y="1550" on="1"/>
        <pt x="862" y="1700" on="1"/>
        <pt x="1150" y="1700" on="1"/>
        <pt x="1150" y="1550" on="1"/>
        <pt x="1150" y="1312" on="0"/>
        <pt x="930" y="1312" on="1"/>
      </contour>
    </TTGlyph>
    <TTGlyph name="uni17AB" xMin="39" yMin="-500" xMax="1150" yMax="1200">
      <contour>
        <pt x="150" y="-330" on="1"/>
        <pt x="500" y="-330" on="1"/>
        <pt x="862" y="-330" on="0"/>
        <pt x="862" y="-210" on="1"/>
        <pt x="750" y="-210" on="1"/>
        <pt x="750" y="-50" on="1"/>
        <pt x="1150" y="-50" on="1"/>
        <pt x="1150" y="-180" on="1"/>
        <pt x="1150" y="-500" on="0"/>
        <pt x="500" y="-500" on="1"/>
        <pt x="150" y="-500" on="1"/>
      </contour>
      <contour>
        <pt x="150" y="843" on="1"/>
        <pt x="100" y="905" on="1"/>
        <pt x="60" y="955" on="1"/>
        <pt x="39" y="980" on="0"/>
        <pt x="39" y="1005" on="1"/>
        <pt x="39" y="1029" on="0"/>
        <pt x="58" y="1053" on="1"/>
        <pt x="95" y="1102" on="1"/>
        <pt x="170" y="1200" on="1"/>
        <pt x="498" y="1200" on="1"/>
        <pt x="498" y="1012" on="1"/>
        <pt x="220" y="1012" on="1"/>
        <pt x="438" y="840" on="1"/>
        <pt x="438" y="323" on="1"/>
        <pt x="438" y="138" on="0"/>
        <pt x="650" y="138" on="1"/>
        <pt x="862" y="138" on="0"/>
        <pt x="862" y="323" on="1"/>
        <pt x="862" y="806" on="1"/>
        <pt x="757" y="905" on="1"/>
        <pt x="705" y="955" on="1"/>
        <pt x="674" y="984" on="0"/>
        <pt x="674" y="1012" on="1"/>
        <pt x="674" y="1033" on="0"/>
        <pt x="690" y="1053" on="1"/>
        <pt x="727" y="1102" on="1"/>
        <pt x="802" y="1200" on="1"/>
        <pt x="1150" y="1200" on="1"/>
        <pt x="1150" y="1012" on="1"/>
        <pt x="852" y="1012" on="1"/>
        <pt x="1150" y="840" on="1"/>
        <pt x="1150" y="323" on="1"/>
        <pt x="1150" y="0" on="0"/>
        <pt x="650" y="0" on="1"/>
        <pt x="150" y="0" on="0"/>
        <pt x="150" y="323" on="1"/>
      </contour>
    </TTGlyph>
    <TTGlyph name="uni17AC" xMin="39" yMin="-500" xMax="1300" yMax="1200">
      <contour>
        <pt x="1130" y="-286" on="1"/>
        <pt x="1177" y="-350" on="0"/>
        <pt x="1220" y="-350" on="1"/>
        <pt x="1300" y="-350" on="1"/>
        <pt x="1300" y="-500" on="1"/>
        <pt x="1220" y="-500" on="1"/>
        <pt x="1124" y="-500" on="0"/>
        <pt x="1025" y="-406" on="1"/>
        <pt x="876" y="-500" on="0"/>
        <pt x="500" y="-500" on="1"/>
        <pt x="150" y="-500" on="1"/>
        <pt x="150" y="-330" on="1"/>
        <pt x="500" y="-330" on="1"/>
        <pt x="862" y="-330" on="0"/>
        <pt x="862" y="-210" on="1"/>
        <pt x="750" y="-210" on="1"/>
        <pt x="750" y="-50" on="1"/>
        <pt x="1150" y="-50" on="1"/>
        <pt x="1150" y="-180" on="1"/>
        <pt x="1150" y="-238" on="0"/>
      </contour>
      <contour>
        <pt x="150" y="843" on="1"/>
        <pt x="100" y="905" on="1"/>
        <pt x="60" y="955" on="1"/>
        <pt x="39" y="980" on="0"/>
        <pt x="39" y="1005" on="1"/>
        <pt x="39" y="1029" on="0"/>
        <pt x="58" y="1053" on="1"/>
        <pt x="95" y="1102" on="1"/>
        <pt x="170" y="1200" on="1"/>
        <pt x="498" y="1200" on="1"/>
        <pt x="498" y="1012" on="1"/>
        <pt x="220" y="1012" on="1"/>
        <pt x="438" y="840" on="1"/>
        <pt x="438" y="323" on="1"/>
        <pt x="438" y="138" on="0"/>
        <pt x="650" y="138" on="1"/>
        <pt x="862" y="138" on="0"/>
        <pt x="862" y="323" on="1"/>
        <pt x="862" y="806" on="1"/>
        <pt x="757" y="905" on="1"/>
        <pt x="705" y="955" on="1"/>
        <pt x="674" y="984" on="0"/>
        <pt x="674" y="1012" on="1"/>
        <pt x="674" y="1033" on="0"/>
        <pt x="690" y="1053" on="1"/>
        <pt x="727" y="1102" on="1"/>
        <pt x="802" y="1200" on="1"/>
        <pt x="1150" y="1200" on="1"/>
        <pt x="1150" y="1012" on="1"/>
        <pt x="852" y="1012" on="1"/>
        <pt x="1150" y="840" on="1"/>
        <pt x="1150" y="323" on="1"/>
        <pt x="1150" y="0" on="0"/>
        <pt x="650" y="0" on="1"/>
        <pt x="150" y="0" on="0"/>
        <pt x="150" y="323" on="1"/>
      </contour>
    </TTGlyph>
    <TTGlyph name="uni17AD" xMin="150" yMin="-500" xMax="1150" yMax="1200">
      <contour>
        <pt x="438" y="310" on="1"/>
        <pt x="438" y="138" on="1"/>
        <pt x="530" y="138" on="0"/>
        <pt x="530" y="249" on="1"/>
        <pt x="530" y="310" on="0"/>
      </contour>
      <contour>
        <pt x="150" y="923" on="1"/>
        <pt x="150" y="1036" on="0"/>
        <pt x="320" y="1200" on="0"/>
        <pt x="415" y="1200" on="1"/>
        <pt x="539" y="1200" on="0"/>
        <pt x="650" y="1076" on="1"/>
        <pt x="762" y="1200" on="0"/>
        <pt x="887" y="1200" on="1"/>
        <pt x="981" y="1200" on="0"/>
        <pt x="1150" y="1036" on="0"/>
        <pt x="1150" y="923" on="1"/>
        <pt x="1150" y="0" on="1"/>
        <pt x="862" y="0" on="1"/>
        <pt x="862" y="923" on="1"/>
        <pt x="862" y="1000" on="0"/>
        <pt x="827" y="1000" on="1"/>
        <pt x="791" y="1000" on="0"/>
        <pt x="709" y="906" on="1"/>
        <pt x="682" y="875" on="0"/>
        <pt x="650" y="875" on="1"/>
        <pt x="618" y="875" on="0"/>
        <pt x="591" y="906" on="1"/>
        <pt x="510" y="1000" on="0"/>
        <pt x="474" y="1000" on="1"/>
        <pt x="438" y="1000" on="0"/>
        <pt x="438" y="923" on="1"/>
        <pt x="438" y="448" on="1"/>
        <pt x="648" y="448" on="0"/>
        <pt x="648" y="249" on="1"/>
        <pt x="648" y="0" on="0"/>
        <pt x="438" y="0" on="1"/>
        <pt x="294" y="0" on="1"/>
        <pt x="150" y="0" on="0"/>
        <pt x="150" y="122" on="1"/>
      </contour>
      <contour>
        <pt x="150" y="-330" on="1"/>
        <pt x="500" y="-330" on="1"/>
        <pt x="862" y="-330" on="0"/>
        <pt x="862" y="-210" on="1"/>
        <pt x="750" y="-210" on="1"/>
        <pt x="750" y="-50" on="1"/>
        <pt x="1150" y="-50" on="1"/>
        <pt x="1150" y="-180" on="1"/>
        <pt x="1150" y="-500" on="0"/>
        <pt x="500" y="-500" on="1"/>
        <pt x="150" y="-500" on="1"/>
      </contour>
    </TTGlyph>
    <TTGlyph name="uni17AE" xMin="150" yMin="-500" xMax="1300" yMax="1200">
      <contour>
        <pt x="438" y="310" on="1"/>
        <pt x="438" y="138" on="1"/>
        <pt x="530" y="138" on="0"/>
        <pt x="530" y="249" on="1"/>
        <pt x="530" y="310" on="0"/>
      </contour>
      <contour>
        <pt x="150" y="923" on="1"/>
        <pt x="150" y="1036" on="0"/>
        <pt x="320" y="1200" on="0"/>
        <pt x="415" y="1200" on="1"/>
        <pt x="539" y="1200" on="0"/>
        <pt x="650" y="1076" on="1"/>
        <pt x="762" y="1200" on="0"/>
        <pt x="887" y="1200" on="1"/>
        <pt x="981" y="1200" on="0"/>
        <pt x="1150" y="1036" on="0"/>
        <pt x="1150" y="923" on="1"/>
        <pt x="1150" y="0" on="1"/>
        <pt x="862" y="0" on="1"/>
        <pt x="862" y="923" on="1"/>
        <pt x="862" y="1000" on="0"/>
        <pt x="827" y="1000" on="1"/>
        <pt x="791" y="1000" on="0"/>
        <pt x="709" y="906" on="1"/>
        <pt x="682" y="875" on="0"/>
        <pt x="650" y="875" on="1"/>
        <pt x="618" y="875" on="0"/>
        <pt x="591" y="906" on="1"/>
        <pt x="510" y="1000" on="0"/>
        <pt x="474" y="1000" on="1"/>
        <pt x="438" y="1000" on="0"/>
        <pt x="438" y="923" on="1"/>
        <pt x="438" y="448" on="1"/>
        <pt x="648" y="448" on="0"/>
        <pt x="648" y="249" on="1"/>
        <pt x="648" y="0" on="0"/>
        <pt x="438" y="0" on="1"/>
        <pt x="294" y="0" on="1"/>
        <pt x="150" y="0" on="0"/>
        <pt x="150" y="122" on="1"/>
      </contour>
      <contour>
        <pt x="1130" y="-286" on="1"/>
        <pt x="1177" y="-350" on="0"/>
        <pt x="1220" y="-350" on="1"/>
        <pt x="1300" y="-350" on="1"/>
        <pt x="1300" y="-500" on="1"/>
        <pt x="1220" y="-500" on="1"/>
        <pt x="1124" y="-500" on="0"/>
        <pt x="1025" y="-406" on="1"/>
        <pt x="876" y="-500" on="0"/>
        <pt x="500" y="-500" on="1"/>
        <pt x="150" y="-500" on="1"/>
        <pt x="150" y="-330" on="1"/>
        <pt x="500" y="-330" on="1"/>
        <pt x="862" y="-330" on="0"/>
        <pt x="862" y="-210" on="1"/>
        <pt x="750" y="-210" on="1"/>
        <pt x="750" y="-50" on="1"/>
        <pt x="1150" y="-50" on="1"/>
        <pt x="1150" y="-180" on="1"/>
        <pt x="1150" y="-238" on="0"/>
      </contour>
    </TTGlyph>
    <TTGlyph name="uni17AF" xMin="50" yMin="0" xMax="1150" yMax="1540">
      <contour>
        <pt x="150" y="732" on="1"/>
        <pt x="150" y="773" on="0"/>
        <pt x="50" y="773" on="1"/>
        <pt x="50" y="917" on="1"/>
        <pt x="250" y="917" on="1"/>
        <pt x="438" y="917" on="0"/>
        <pt x="438" y="773" on="1"/>
        <pt x="438" y="261" on="1"/>
        <pt x="651" y="455" on="1"/>
        <pt x="862" y="263" on="1"/>
        <pt x="862" y="897" on="1"/>
        <pt x="862" y="1012" on="0"/>
        <pt x="721" y="1012" on="1"/>
        <pt x="530" y="1012" on="1"/>
        <pt x="150" y="1012" on="0"/>
        <pt x="150" y="1316" on="1"/>
        <pt x="150" y="1540" on="1"/>
        <pt x="438" y="1540" on="1"/>
        <pt x="438" y="1316" on="1"/>
        <pt x="438" y="1200" on="0"/>
        <pt x="530" y="1200" on="1"/>
        <pt x="815" y="1200" on="1"/>
        <pt x="1150" y="1200" on="0"/>
        <pt x="1150" y="897" on="1"/>
        <pt x="1150" y="0" on="1"/>
        <pt x="882" y="0" on="1"/>
        <pt x="651" y="210" on="1"/>
        <pt x="419" y="0" on="1"/>
        <pt x="150" y="0" on="1"/>
      </contour>
    </TTGlyph>
    <TTGlyph name="uni17B0" xMin="150" yMin="-500" xMax="1150" yMax="1200">
      <contour>
        <pt x="670" y="-246" on="1"/>
        <pt x="862" y="-282" on="1"/>
        <pt x="862" y="-195" on="1"/>
      </contour>
      <contour>
        <pt x="438" y="310" on="1"/>
        <pt x="438" y="138" on="1"/>
        <pt x="530" y="138" on="0"/>
        <pt x="530" y="249" on="1"/>
        <pt x="530" y="310" on="0"/>
      </contour>
      <contour>
        <pt x="433" y="-316" on="1"/>
        <pt x="433" y="-356" on="1"/>
        <pt x="433" y="-395" on="0"/>
        <pt x="469" y="-395" on="1"/>
        <pt x="541" y="-395" on="0"/>
        <pt x="569" y="-372" on="1"/>
        <pt x="596" y="-351" on="0"/>
        <pt x="596" y="-321" on="1"/>
        <pt x="596" y="-265" on="1"/>
      </contour>
      <contour>
        <pt x="1150" y="-275" on="1"/>
        <pt x="1150" y="-332" on="0"/>
        <pt x="1031" y="-389" on="0"/>
        <pt x="816" y="-389" on="1"/>
        <pt x="706" y="-363" on="1"/>
        <pt x="706" y="-410" on="0"/>
        <pt x="650" y="-455" on="1"/>
        <pt x="596" y="-500" on="0"/>
        <pt x="466" y="-500" on="1"/>
        <pt x="150" y="-500" on="0"/>
        <pt x="150" y="-360" on="1"/>
        <pt x="150" y="-219" on="1"/>
        <pt x="486" y="-168" on="0"/>
        <pt x="862" y="-84" on="0"/>
        <pt x="862" y="-50" on="1"/>
        <pt x="862" y="923" on="1"/>
        <pt x="862" y="1000" on="0"/>
        <pt x="827" y="1000" on="1"/>
        <pt x="791" y="1000" on="0"/>
        <pt x="709" y="906" on="1"/>
        <pt x="682" y="875" on="0"/>
        <pt x="650" y="875" on="1"/>
        <pt x="618" y="875" on="0"/>
        <pt x="591" y="906" on="1"/>
        <pt x="510" y="1000" on="0"/>
        <pt x="474" y="1000" on="1"/>
        <pt x="438" y="1000" on="0"/>
        <pt x="438" y="923" on="1"/>
        <pt x="438" y="448" on="1"/>
        <pt x="648" y="448" on="0"/>
        <pt x="648" y="249" on="1"/>
        <pt x="648" y="0" on="0"/>
        <pt x="438" y="0" on="1"/>
        <pt x="294" y="0" on="1"/>
        <pt x="150" y="0" on="0"/>
        <pt x="150" y="122" on="1"/>
        <pt x="150" y="923" on="1"/>
        <pt x="150" y="1036" on="0"/>
        <pt x="320" y="1200" on="0"/>
        <pt x="415" y="1200" on="1"/>
        <pt x="539" y="1200" on="0"/>
        <pt x="650" y="1076" on="1"/>
        <pt x="762" y="1200" on="0"/>
        <pt x="887" y="1200" on="1"/>
        <pt x="981" y="1200" on="0"/>
        <pt x="1150" y="1036" on="0"/>
        <pt x="1150" y="923" on="1"/>
      </contour>
    </TTGlyph>
    <TTGlyph name="uni17B1" xMin="100" yMin="-100" xMax="1180" yMax="1550">
      <contour>
        <pt x="313" y="1362" on="1"/>
        <pt x="292" y="1337" on="1"/>
        <pt x="287" y="1332" on="0"/>
        <pt x="287" y="1324" on="1"/>
        <pt x="287" y="1292" on="0"/>
        <pt x="354" y="1216" on="1"/>
        <pt x="364" y="1204" on="1"/>
        <pt x="178" y="1114" on="1"/>
        <pt x="172" y="1122" on="1"/>
        <pt x="100" y="1214" on="0"/>
        <pt x="100" y="1255" on="1"/>
        <pt x="100" y="1292" on="0"/>
        <pt x="118" y="1317" on="1"/>
        <pt x="258" y="1550" on="1"/>
        <pt x="880" y="1550" on="1"/>
        <pt x="1130" y="1550" on="0"/>
        <pt x="1180" y="1222" on="1"/>
        <pt x="1042" y="1162" on="1"/>
        <pt x="942" y="1362" on="0"/>
        <pt x="830" y="1362" on="1"/>
      </contour>
      <contour>
        <pt x="438" y="323" on="1"/>
        <pt x="438" y="188" on="0"/>
        <pt x="520" y="188" on="1"/>
        <pt x="585" y="188" on="0"/>
        <pt x="862" y="341" on="0"/>
        <pt x="862" y="403" on="1"/>
        <pt x="862" y="480" on="1"/>
        <pt x="1150" y="480" on="1"/>
        <pt x="1150" y="-100" on="1"/>
        <pt x="862" y="-100" on="1"/>
        <pt x="862" y="153" on="1"/>
        <pt x="660" y="0" on="0"/>
        <pt x="520" y="0" on="1"/>
        <pt x="150" y="0" on="0"/>
        <pt x="150" y="323" on="1"/>
        <pt x="150" y="586" on="1"/>
        <pt x="556" y="656" on="1"/>
        <pt x="862" y="717" on="0"/>
        <pt x="862" y="877" on="1"/>
        <pt x="862" y="1012" on="0"/>
        <pt x="650" y="1012" on="1"/>
        <pt x="438" y="1012" on="0"/>
        <pt x="438" y="897" on="1"/>
        <pt x="438" y="863" on="0"/>
        <pt x="538" y="863" on="1"/>
        <pt x="538" y="719" on="1"/>
        <pt x="338" y="719" on="1"/>
        <pt x="150" y="719" on="0"/>
        <pt x="150" y="863" on="1"/>
        <pt x="150" y="897" on="1"/>
        <pt x="150" y="1200" on="0"/>
        <pt x="650" y="1200" on="1"/>
        <pt x="1150" y="1200" on="0"/>
        <pt x="1150" y="877" on="1"/>
        <pt x="1150" y="575" on="0"/>
        <pt x="566" y="479" on="1"/>
        <pt x="438" y="453" on="1"/>
      </contour>
    </TTGlyph>
    <TTGlyph name="uni17B2" xMin="150" yMin="0" xMax="1150" yMax="1200">
      <contour>
        <pt x="150" y="877" on="1"/>
        <pt x="150" y="1200" on="0"/>
        <pt x="625" y="1200" on="1"/>
        <pt x="910" y="1200" on="0"/>
        <pt x="1050" y="1108" on="1"/>
        <pt x="974" y="936" on="1"/>
        <pt x="855" y="1012" on="0"/>
        <pt x="625" y="1012" on="1"/>
        <pt x="438" y="1012" on="0"/>
        <pt x="438" y="877" on="1"/>
        <pt x="438" y="323" on="1"/>
        <pt x="438" y="138" on="0"/>
        <pt x="650" y="138" on="1"/>
        <pt x="862" y="138" on="0"/>
        <pt x="862" y="323" on="1"/>
        <pt x="862" y="360" on="1"/>
        <pt x="862" y="389" on="0"/>
        <pt x="856" y="413" on="1"/>
        <pt x="750" y="320" on="1"/>
        <pt x="637" y="425" on="1"/>
        <pt x="922" y="672" on="1"/>
        <pt x="644" y="672" on="1"/>
        <pt x="644" y="860" on="1"/>
        <pt x="1022" y="860" on="1"/>
        <pt x="1097" y="762" on="1"/>
        <pt x="1134" y="713" on="1"/>
        <pt x="1150" y="693" on="0"/>
        <pt x="1150" y="672" on="1"/>
        <pt x="1150" y="644" on="0"/>
        <pt x="1119" y="615" on="1"/>
        <pt x="1067" y="565" on="1"/>
        <pt x="1043" y="542" on="1"/>
        <pt x="1150" y="464" on="0"/>
        <pt x="1150" y="360" on="1"/>
        <pt x="1150" y="323" on="1"/>
        <pt x="1150" y="0" on="0"/>
        <pt x="650" y="0" on="1"/>
        <pt x="150" y="0" on="0"/>
        <pt x="150" y="323" on="1"/>
      </contour>
    </TTGlyph>
    <TTGlyph name="uni17B3" xMin="100" yMin="-100" xMax="1180" yMax="1890">
      <contour>
        <pt x="875" y="1362" on="1"/>
        <pt x="313" y="1362" on="1"/>
        <pt x="292" y="1337" on="1"/>
        <pt x="287" y="1332" on="0"/>
        <pt x="287" y="1324" on="1"/>
        <pt x="287" y="1292" on="0"/>
        <pt x="354" y="1216" on="1"/>
        <pt x="364" y="1204" on="1"/>
        <pt x="178" y="1114" on="1"/>
        <pt x="172" y="1122" on="1"/>
        <pt x="100" y="1214" on="0"/>
        <pt x="100" y="1255" on="1"/>
        <pt x="100" y="1292" on="0"/>
        <pt x="118" y="1317" on="1"/>
        <pt x="258" y="1550" on="1"/>
        <pt x="711" y="1550" on="1"/>
        <pt x="650" y="1632" on="0"/>
        <pt x="650" y="1718" on="1"/>
        <pt x="650" y="1775" on="0"/>
        <pt x="746" y="1890" on="1"/>
        <pt x="930" y="1823" on="1"/>
        <pt x="854" y="1768" on="0"/>
        <pt x="854" y="1695" on="1"/>
        <pt x="854" y="1652" on="0"/>
        <pt x="881" y="1620" on="1"/>
        <pt x="944" y="1545" on="1"/>
        <pt x="1137" y="1513" on="0"/>
        <pt x="1180" y="1222" on="1"/>
        <pt x="1054" y="1147" on="1"/>
      </contour>
      <contour>
        <pt x="438" y="323" on="1"/>
        <pt x="438" y="188" on="0"/>
        <pt x="520" y="188" on="1"/>
        <pt x="585" y="188" on="0"/>
        <pt x="862" y="341" on="0"/>
        <pt x="862" y="403" on="1"/>
        <pt x="862" y="480" on="1"/>
        <pt x="1150" y="480" on="1"/>
        <pt x="1150" y="-100" on="1"/>
        <pt x="862" y="-100" on="1"/>
        <pt x="862" y="153" on="1"/>
        <pt x="660" y="0" on="0"/>
        <pt x="520" y="0" on="1"/>
        <pt x="150" y="0" on="0"/>
        <pt x="150" y="323" on="1"/>
        <pt x="150" y="586" on="1"/>
        <pt x="556" y="656" on="1"/>
        <pt x="862" y="717" on="0"/>
        <pt x="862" y="877" on="1"/>
        <pt x="862" y="1012" on="0"/>
        <pt x="650" y="1012" on="1"/>
        <pt x="438" y="1012" on="0"/>
        <pt x="438" y="897" on="1"/>
        <pt x="438" y="863" on="0"/>
        <pt x="538" y="863" on="1"/>
        <pt x="538" y="719" on="1"/>
        <pt x="338" y="719" on="1"/>
        <pt x="150" y="719" on="0"/>
        <pt x="150" y="863" on="1"/>
        <pt x="150" y="897" on="1"/>
        <pt x="150" y="1200" on="0"/>
        <pt x="650" y="1200" on="1"/>
        <pt x="1150" y="1200" on="0"/>
        <pt x="1150" y="877" on="1"/>
        <pt x="1150" y="575" on="0"/>
        <pt x="566" y="479" on="1"/>
        <pt x="438" y="453" on="1"/>
      </contour>
    </TTGlyph>
    <TTGlyph name="uni17B6" xMin="-200" yMin="0" xMax="438" yMax="1200">
      <contour>
        <pt x="68" y="1200" on="1"/>
        <pt x="236" y="1200" on="0"/>
        <pt x="438" y="1068" on="0"/>
        <pt x="438" y="937" on="1"/>
        <pt x="438" y="0" on="1"/>
        <pt x="150" y="0" on="1"/>
        <pt x="150" y="887" on="1"/>
        <pt x="150" y="959" on="0"/>
        <pt x="93" y="1012" on="0"/>
        <pt x="18" y="1012" on="1"/>
        <pt x="-200" y="1012" on="1"/>
        <pt x="-200" y="1200" on="1"/>
      </contour>
    </TTGlyph>
    <TTGlyph name="uni17B7" xMin="-1100" yMin="1400" xMax="-200" yMax="1800">
      <contour>
        <pt x="-1100" y="1550" on="1"/>
        <pt x="-1100" y="1800" on="0"/>
        <pt x="-740" y="1800" on="1"/>
        <pt x="-591" y="1800" on="0"/>
        <pt x="-450" y="1725" on="1"/>
        <pt x="-310" y="1650" on="0"/>
        <pt x="-200" y="1550" on="1"/>
        <pt x="-200" y="1400" on="1"/>
        <pt x="-1000" y="1400" on="1"/>
        <pt x="-1100" y="1400" on="0"/>
      </contour>
      <contour>
        <pt x="-850" y="1620" on="0"/>
        <pt x="-850" y="1530" on="1"/>
        <pt x="-442" y="1530" on="1"/>
        <pt x="-554" y="1620" on="0"/>
        <pt x="-740" y="1620" on="1"/>
      </contour>
    </TTGlyph>
    <TTGlyph name="uni17B7.a" xMin="-1100" yMin="1500" xMax="-200" yMax="1900">
      <contour>
        <pt x="-1100" y="1650" on="1"/>
        <pt x="-1100" y="1900" on="0"/>
        <pt x="-740" y="1900" on="1"/>
        <pt x="-591" y="1900" on="0"/>
        <pt x="-450" y="1825" on="1"/>
        <pt x="-310" y="1750" on="0"/>
        <pt x="-200" y="1650" on="1"/>
        <pt x="-200" y="1500" on="1"/>
        <pt x="-1000" y="1500" on="1"/>
        <pt x="-1100" y="1500" on="0"/>
      </contour>
      <contour>
        <pt x="-850" y="1720" on="0"/>
        <pt x="-850" y="1630" on="1"/>
        <pt x="-442" y="1630" on="1"/>
        <pt x="-554" y="1720" on="0"/>
        <pt x="-740" y="1720" on="1"/>
      </contour>
    </TTGlyph>
    <TTGlyph name="uni17B7.r" xMin="-750" yMin="1400" xMax="0" yMax="1800">
      <contour>
        <pt x="-750" y="1550" on="1"/>
        <pt x="-750" y="1800" on="0"/>
        <pt x="-450" y="1800" on="1"/>
        <pt x="-326" y="1800" on="0"/>
        <pt x="-208" y="1725" on="1"/>
        <pt x="-92" y="1650" on="0"/>
        <pt x="0" y="1550" on="1"/>
        <pt x="0" y="1400" on="1"/>
        <pt x="-667" y="1400" on="1"/>
        <pt x="-750" y="1400" on="0"/>
      </contour>
      <contour>
        <pt x="-542" y="1620" on="0"/>
        <pt x="-542" y="1530" on="1"/>
        <pt x="-202" y="1530" on="1"/>
        <pt x="-295" y="1620" on="0"/>
        <pt x="-450" y="1620" on="1"/>
      </contour>
    </TTGlyph>
    <TTGlyph name="uni17B717CD" xMin="-1100" yMin="1400" xMax="-100" yMax="1900">
      <contour>
        <pt x="-330" y="1519" on="1"/>
        <pt x="-282" y="1510" on="0"/>
        <pt x="-197" y="1510" on="1"/>
        <pt x="-197" y="1400" on="1"/>
        <pt x="-1000" y="1400" on="1"/>
        <pt x="-1100" y="1400" on="0"/>
        <pt x="-1100" y="1550" on="1"/>
        <pt x="-1100" y="1800" on="0"/>
        <pt x="-790" y="1800" on="1"/>
        <pt x="-691" y="1800" on="0"/>
        <pt x="-565" y="1725" on="1"/>
        <pt x="-534" y="1706" on="0"/>
        <pt x="-504" y="1686" on="1"/>
        <pt x="-456" y="1800" on="0"/>
        <pt x="-343" y="1800" on="1"/>
        <pt x="-297" y="1800" on="0"/>
        <pt x="-297" y="1900" on="1"/>
        <pt x="-100" y="1900" on="1"/>
        <pt x="-100" y="1850" on="1"/>
        <pt x="-100" y="1620" on="0"/>
        <pt x="-343" y="1620" on="1"/>
        <pt x="-372" y="1620" on="0"/>
        <pt x="-384" y="1597" on="1"/>
        <pt x="-357" y="1574" on="0"/>
        <pt x="-330" y="1550" on="1"/>
      </contour>
      <contour>
        <pt x="-578" y="1530" on="1"/>
        <pt x="-579" y="1536" on="0"/>
        <pt x="-579" y="1542" on="1"/>
        <pt x="-730" y="1640" on="0"/>
        <pt x="-790" y="1640" on="1"/>
        <pt x="-850" y="1640" on="0"/>
        <pt x="-850" y="1530" on="1"/>
      </contour>
    </TTGlyph>
    <TTGlyph name="uni17B717CD.r" xMin="-700" yMin="1400" xMax="100" yMax="1900">
      <contour>
        <pt x="-84" y="1519" on="1"/>
        <pt x="-46" y="1510" on="0"/>
        <pt x="22" y="1510" on="1"/>
        <pt x="22" y="1400" on="1"/>
        <pt x="-620" y="1400" on="1"/>
        <pt x="-700" y="1400" on="0"/>
        <pt x="-700" y="1550" on="1"/>
        <pt x="-700" y="1800" on="0"/>
        <pt x="-452" y="1800" on="1"/>
        <pt x="-373" y="1800" on="0"/>
        <pt x="-272" y="1725" on="1"/>
        <pt x="-247" y="1706" on="0"/>
        <pt x="-223" y="1686" on="1"/>
        <pt x="-185" y="1800" on="0"/>
        <pt x="-94" y="1800" on="1"/>
        <pt x="-58" y="1800" on="0"/>
        <pt x="-58" y="1900" on="1"/>
        <pt x="100" y="1900" on="1"/>
        <pt x="100" y="1850" on="1"/>
        <pt x="100" y="1620" on="0"/>
        <pt x="-94" y="1620" on="1"/>
        <pt x="-118" y="1620" on="0"/>
        <pt x="-127" y="1597" on="1"/>
        <pt x="-106" y="1574" on="0"/>
        <pt x="-84" y="1550" on="1"/>
      </contour>
      <contour>
        <pt x="-282" y="1530" on="1"/>
        <pt x="-283" y="1536" on="0"/>
        <pt x="-283" y="1542" on="1"/>
        <pt x="-404" y="1640" on="0"/>
        <pt x="-452" y="1640" on="1"/>
        <pt x="-500" y="1640" on="0"/>
        <pt x="-500" y="1530" on="1"/>
      </contour>
    </TTGlyph>
    <TTGlyph name="uni17B8" xMin="-1100" yMin="1400" xMax="-200" yMax="1850">
      <contour>
        <pt x="-850" y="1530" on="1"/>
        <pt x="-442" y="1530" on="1"/>
        <pt x="-554" y="1620" on="0"/>
        <pt x="-740" y="1620" on="1"/>
        <pt x="-850" y="1620" on="0"/>
      </contour>
      <contour>
        <pt x="-388" y="1690" on="1"/>
        <pt x="-388" y="1850" on="1"/>
        <pt x="-200" y="1850" on="1"/>
        <pt x="-200" y="1400" on="1"/>
        <pt x="-950" y="1400" on="1"/>
        <pt x="-1100" y="1400" on="0"/>
        <pt x="-1100" y="1550" on="1"/>
        <pt x="-1100" y="1800" on="0"/>
        <pt x="-740" y="1800" on="1"/>
        <pt x="-591" y="1800" on="0"/>
        <pt x="-450" y="1725" on="1"/>
        <pt x="-418" y="1708" on="0"/>
      </contour>
    </TTGlyph>
    <TTGlyph name="uni17B8.a" xMin="-1100" yMin="1500" xMax="-200" yMax="1908">
      <contour>
        <pt x="-850" y="1618" on="1"/>
        <pt x="-442" y="1618" on="1"/>
        <pt x="-554" y="1699" on="0"/>
        <pt x="-740" y="1699" on="1"/>
        <pt x="-850" y="1699" on="0"/>
      </contour>
      <contour>
        <pt x="-388" y="1763" on="1"/>
        <pt x="-388" y="1908" on="1"/>
        <pt x="-200" y="1908" on="1"/>
        <pt x="-200" y="1500" on="1"/>
        <pt x="-950" y="1500" on="1"/>
        <pt x="-1100" y="1500" on="0"/>
        <pt x="-1100" y="1636" on="1"/>
        <pt x="-1100" y="1863" on="0"/>
        <pt x="-740" y="1863" on="1"/>
        <pt x="-591" y="1863" on="0"/>
        <pt x="-450" y="1795" on="1"/>
        <pt x="-418" y="1779" on="0"/>
      </contour>
    </TTGlyph>
    <TTGlyph name="uni17B8.r" xMin="-750" yMin="1400" xMax="0" yMax="1850">
      <contour>
        <pt x="-542" y="1530" on="1"/>
        <pt x="-202" y="1530" on="1"/>
        <pt x="-295" y="1620" on="0"/>
        <pt x="-450" y="1620" on="1"/>
        <pt x="-542" y="1620" on="0"/>
      </contour>
      <contour>
        <pt x="-187" y="1711" on="1"/>
        <pt x="-187" y="1850" on="1"/>
        <pt x="0" y="1850" on="1"/>
        <pt x="0" y="1400" on="1"/>
        <pt x="-625" y="1400" on="1"/>
        <pt x="-750" y="1400" on="0"/>
        <pt x="-750" y="1550" on="1"/>
        <pt x="-750" y="1800" on="0"/>
        <pt x="-450" y="1800" on="1"/>
        <pt x="-326" y="1800" on="0"/>
        <pt x="-208" y="1725" on="1"/>
        <pt x="-197" y="1718" on="0"/>
      </contour>
    </TTGlyph>
    <TTGlyph name="uni17B9" xMin="-1100" yMin="1400" xMax="-200" yMax="1900">
      <contour>
        <pt x="-238" y="1583" on="1"/>
        <pt x="-218" y="1567" on="0"/>
        <pt x="-200" y="1550" on="1"/>
        <pt x="-200" y="1400" on="1"/>
        <pt x="-950" y="1400" on="1"/>
        <pt x="-1100" y="1400" on="0"/>
        <pt x="-1100" y="1550" on="1"/>
        <pt x="-1100" y="1800" on="0"/>
        <pt x="-740" y="1800" on="1"/>
        <pt x="-662" y="1800" on="0"/>
        <pt x="-587" y="1780" on="1"/>
        <pt x="-582" y="1790" on="0"/>
        <pt x="-576" y="1801" on="1"/>
        <pt x="-549" y="1849" on="0"/>
        <pt x="-453" y="1900" on="0"/>
        <pt x="-402" y="1900" on="1"/>
        <pt x="-351" y="1900" on="0"/>
        <pt x="-255" y="1849" on="0"/>
        <pt x="-200" y="1752" on="0"/>
        <pt x="-200" y="1700" on="1"/>
        <pt x="-200" y="1648" on="0"/>
        <pt x="-226" y="1601" on="1"/>
        <pt x="-232" y="1591" on="0"/>
      </contour>
      <contour>
        <pt x="-329" y="1651" on="1"/>
        <pt x="-327" y="1654" on="0"/>
        <pt x="-325" y="1657" on="1"/>
        <pt x="-314" y="1677" on="0"/>
        <pt x="-314" y="1700" on="1"/>
        <pt x="-314" y="1723" on="0"/>
        <pt x="-338" y="1764" on="0"/>
        <pt x="-379" y="1787" on="0"/>
        <pt x="-402" y="1787" on="1"/>
        <pt x="-424" y="1787" on="0"/>
        <pt x="-466" y="1764" on="0"/>
        <pt x="-478" y="1744" on="1"/>
        <pt x="-479" y="1742" on="0"/>
        <pt x="-480" y="1740" on="1"/>
        <pt x="-465" y="1733" on="0"/>
        <pt x="-450" y="1725" on="1"/>
        <pt x="-386" y="1691" on="0"/>
      </contour>
      <contour>
        <pt x="-850" y="1620" on="0"/>
        <pt x="-850" y="1530" on="1"/>
        <pt x="-442" y="1530" on="1"/>
        <pt x="-554" y="1620" on="0"/>
        <pt x="-740" y="1620" on="1"/>
      </contour>
    </TTGlyph>
    <TTGlyph name="uni17B9.a" xMin="-1100" yMin="1500" xMax="-200" yMax="1899">
      <contour>
        <pt x="-238" y="1646" on="1"/>
        <pt x="-218" y="1633" on="0"/>
        <pt x="-200" y="1620" on="1"/>
        <pt x="-200" y="1500" on="1"/>
        <pt x="-950" y="1500" on="1"/>
        <pt x="-1100" y="1500" on="0"/>
        <pt x="-1100" y="1620" on="1"/>
        <pt x="-1100" y="1819" on="0"/>
        <pt x="-740" y="1819" on="1"/>
        <pt x="-662" y="1819" on="0"/>
        <pt x="-587" y="1803" on="1"/>
        <pt x="-582" y="1811" on="0"/>
        <pt x="-576" y="1820" on="1"/>
        <pt x="-549" y="1858" on="0"/>
        <pt x="-453" y="1899" on="0"/>
        <pt x="-402" y="1899" on="1"/>
        <pt x="-351" y="1899" on="0"/>
        <pt x="-255" y="1858" on="0"/>
        <pt x="-200" y="1781" on="0"/>
        <pt x="-200" y="1739" on="1"/>
        <pt x="-200" y="1698" on="0"/>
        <pt x="-226" y="1660" on="1"/>
        <pt x="-232" y="1652" on="0"/>
      </contour>
      <contour>
        <pt x="-329" y="1700" on="1"/>
        <pt x="-327" y="1703" on="0"/>
        <pt x="-325" y="1705" on="1"/>
        <pt x="-314" y="1721" on="0"/>
        <pt x="-314" y="1739" on="1"/>
        <pt x="-314" y="1758" on="0"/>
        <pt x="-338" y="1790" on="0"/>
        <pt x="-379" y="1809" on="0"/>
        <pt x="-402" y="1809" on="1"/>
        <pt x="-424" y="1809" on="0"/>
        <pt x="-466" y="1790" on="0"/>
        <pt x="-478" y="1775" on="1"/>
        <pt x="-479" y="1773" on="0"/>
        <pt x="-480" y="1771" on="1"/>
        <pt x="-465" y="1766" on="0"/>
        <pt x="-450" y="1759" on="1"/>
        <pt x="-386" y="1732" on="0"/>
      </contour>
      <contour>
        <pt x="-850" y="1676" on="0"/>
        <pt x="-850" y="1604" on="1"/>
        <pt x="-442" y="1604" on="1"/>
        <pt x="-554" y="1676" on="0"/>
        <pt x="-740" y="1676" on="1"/>
      </contour>
    </TTGlyph>
    <TTGlyph name="uni17B9.r" xMin="-750" yMin="1400" xMax="0" yMax="1900">
      <contour>
        <pt x="-32" y="1583" on="1"/>
        <pt x="-15" y="1567" on="0"/>
        <pt x="0" y="1550" on="1"/>
        <pt x="0" y="1400" on="1"/>
        <pt x="-625" y="1400" on="1"/>
        <pt x="-750" y="1400" on="0"/>
        <pt x="-750" y="1550" on="1"/>
        <pt x="-750" y="1800" on="0"/>
        <pt x="-450" y="1800" on="1"/>
        <pt x="-385" y="1800" on="0"/>
        <pt x="-322" y="1780" on="1"/>
        <pt x="-318" y="1790" on="0"/>
        <pt x="-313" y="1801" on="1"/>
        <pt x="-291" y="1849" on="0"/>
        <pt x="-211" y="1900" on="0"/>
        <pt x="-168" y="1900" on="1"/>
        <pt x="-126" y="1900" on="0"/>
        <pt x="-46" y="1849" on="0"/>
        <pt x="0" y="1752" on="0"/>
        <pt x="0" y="1700" on="1"/>
        <pt x="0" y="1648" on="0"/>
        <pt x="-22" y="1601" on="1"/>
        <pt x="-27" y="1591" on="0"/>
      </contour>
      <contour>
        <pt x="-107" y="1651" on="1"/>
        <pt x="-106" y="1654" on="0"/>
        <pt x="-104" y="1657" on="1"/>
        <pt x="-95" y="1677" on="0"/>
        <pt x="-95" y="1700" on="1"/>
        <pt x="-95" y="1723" on="0"/>
        <pt x="-115" y="1764" on="0"/>
        <pt x="-149" y="1787" on="0"/>
        <pt x="-168" y="1787" on="1"/>
        <pt x="-187" y="1787" on="0"/>
        <pt x="-222" y="1764" on="0"/>
        <pt x="-232" y="1744" on="1"/>
        <pt x="-232" y="1742" on="0"/>
        <pt x="-233" y="1740" on="1"/>
        <pt x="-221" y="1733" on="0"/>
        <pt x="-208" y="1725" on="1"/>
        <pt x="-155" y="1691" on="0"/>
      </contour>
      <contour>
        <pt x="-542" y="1620" on="0"/>
        <pt x="-542" y="1530" on="1"/>
        <pt x="-202" y="1530" on="1"/>
        <pt x="-295" y="1620" on="0"/>
        <pt x="-450" y="1620" on="1"/>
      </contour>
    </TTGlyph>
    <TTGlyph name="uni17BA" xMin="-1100" yMin="1400" xMax="-200" yMax="1900">
      <contour>
        <pt x="-558" y="1771" on="1"/>
        <pt x="-558" y="1900" on="1"/>
        <pt x="-420" y="1900" on="1"/>
        <pt x="-420" y="1708" on="1"/>
        <pt x="-378" y="1684" on="0"/>
        <pt x="-338" y="1658" on="1"/>
        <pt x="-338" y="1850" on="1"/>
        <pt x="-200" y="1850" on="1"/>
        <pt x="-200" y="1400" on="1"/>
        <pt x="-950" y="1400" on="1"/>
        <pt x="-1100" y="1400" on="0"/>
        <pt x="-1100" y="1550" on="1"/>
        <pt x="-1100" y="1800" on="0"/>
        <pt x="-740" y="1800" on="1"/>
        <pt x="-647" y="1800" on="0"/>
      </contour>
      <contour>
        <pt x="-850" y="1620" on="0"/>
        <pt x="-850" y="1530" on="1"/>
        <pt x="-442" y="1530" on="1"/>
        <pt x="-554" y="1620" on="0"/>
        <pt x="-740" y="1620" on="1"/>
      </contour>
    </TTGlyph>
    <TTGlyph name="uni17BA.a" xMin="-1100" yMin="1500" xMax="-200" yMax="1899">
      <contour>
        <pt x="-558" y="1796" on="1"/>
        <pt x="-558" y="1899" on="1"/>
        <pt x="-420" y="1899" on="1"/>
        <pt x="-420" y="1746" on="1"/>
        <pt x="-378" y="1727" on="0"/>
        <pt x="-338" y="1706" on="1"/>
        <pt x="-338" y="1859" on="1"/>
        <pt x="-200" y="1859" on="1"/>
        <pt x="-200" y="1500" on="1"/>
        <pt x="-950" y="1500" on="1"/>
        <pt x="-1100" y="1500" on="0"/>
        <pt x="-1100" y="1620" on="1"/>
        <pt x="-1100" y="1819" on="0"/>
        <pt x="-740" y="1819" on="1"/>
        <pt x="-647" y="1819" on="0"/>
      </contour>
      <contour>
        <pt x="-850" y="1676" on="0"/>
        <pt x="-850" y="1604" on="1"/>
        <pt x="-442" y="1604" on="1"/>
        <pt x="-554" y="1676" on="0"/>
        <pt x="-740" y="1676" on="1"/>
      </contour>
    </TTGlyph>
    <TTGlyph name="uni17BA.r" xMin="-750" yMin="1400" xMax="0" yMax="1900">
      <contour>
        <pt x="-298" y="1771" on="1"/>
        <pt x="-298" y="1900" on="1"/>
        <pt x="-183" y="1900" on="1"/>
        <pt x="-183" y="1708" on="1"/>
        <pt x="-148" y="1684" on="0"/>
        <pt x="-115" y="1658" on="1"/>
        <pt x="-115" y="1850" on="1"/>
        <pt x="0" y="1850" on="1"/>
        <pt x="0" y="1400" on="1"/>
        <pt x="-625" y="1400" on="1"/>
        <pt x="-750" y="1400" on="0"/>
        <pt x="-750" y="1550" on="1"/>
        <pt x="-750" y="1800" on="0"/>
        <pt x="-450" y="1800" on="1"/>
        <pt x="-372" y="1800" on="0"/>
      </contour>
      <contour>
        <pt x="-542" y="1620" on="0"/>
        <pt x="-542" y="1530" on="1"/>
        <pt x="-202" y="1530" on="1"/>
        <pt x="-295" y="1620" on="0"/>
        <pt x="-450" y="1620" on="1"/>
      </contour>
    </TTGlyph>
    <TTGlyph name="uni17BB" xMin="-523" yMin="-500" xMax="-150" yMax="-70">
      <contour>
        <pt x="-150" y="-70" on="1"/>
        <pt x="-150" y="-500" on="1"/>
        <pt x="-438" y="-500" on="1"/>
        <pt x="-438" y="-170" on="1"/>
        <pt x="-523" y="-170" on="1"/>
        <pt x="-523" y="-70" on="1"/>
      </contour>
    </TTGlyph>
    <TTGlyph name="uni17BB.b" xMin="-573" yMin="-800" xMax="-200" yMax="-500">
      <contour>
        <pt x="-200" y="-500" on="1"/>
        <pt x="-200" y="-800" on="1"/>
        <pt x="-488" y="-800" on="1"/>
        <pt x="-488" y="-600" on="1"/>
        <pt x="-573" y="-600" on="1"/>
        <pt x="-573" y="-500" on="1"/>
      </contour>
    </TTGlyph>
    <TTGlyph name="uni17BB.n" xMin="-1193" yMin="-500" xMax="-800" yMax="-70">
      <contour>
        <pt x="-800" y="-70" on="1"/>
        <pt x="-800" y="-500" on="1"/>
        <pt x="-1088" y="-500" on="1"/>
        <pt x="-1088" y="-170" on="1"/>
        <pt x="-1193" y="-170" on="1"/>
        <pt x="-1193" y="-70" on="1"/>
      </contour>
    </TTGlyph>
    <TTGlyph name="uni17BB.n2" xMin="-1213" yMin="-800" xMax="-820" yMax="-500">
      <contour>
        <pt x="-820" y="-500" on="1"/>
        <pt x="-820" y="-800" on="1"/>
        <pt x="-1108" y="-800" on="1"/>
        <pt x="-1108" y="-570" on="1"/>
        <pt x="-1213" y="-570" on="1"/>
        <pt x="-1213" y="-500" on="1"/>
      </contour>
    </TTGlyph>
    <TTGlyph name="uni17BC" xMin="-790" yMin="-500" xMax="-150" yMax="-70">
      <contour>
        <pt x="-790" y="-70" on="1"/>
        <pt x="-562" y="-70" on="1"/>
        <pt x="-562" y="-290" on="1"/>
        <pt x="-562" y="-380" on="0"/>
        <pt x="-470" y="-380" on="1"/>
        <pt x="-378" y="-380" on="0"/>
        <pt x="-378" y="-290" on="1"/>
        <pt x="-378" y="-70" on="1"/>
        <pt x="-150" y="-70" on="1"/>
        <pt x="-150" y="-290" on="1"/>
        <pt x="-150" y="-500" on="0"/>
        <pt x="-470" y="-500" on="1"/>
        <pt x="-790" y="-500" on="0"/>
        <pt x="-790" y="-290" on="1"/>
      </contour>
    </TTGlyph>
    <TTGlyph name="uni17BC.b" xMin="-850" yMin="-800" xMax="-150" yMax="-500">
      <contour>
        <pt x="-850" y="-500" on="1"/>
        <pt x="-592" y="-500" on="1"/>
        <pt x="-592" y="-660" on="1"/>
        <pt x="-592" y="-720" on="0"/>
        <pt x="-500" y="-720" on="1"/>
        <pt x="-408" y="-720" on="0"/>
        <pt x="-408" y="-660" on="1"/>
        <pt x="-408" y="-500" on="1"/>
        <pt x="-150" y="-500" on="1"/>
        <pt x="-150" y="-660" on="1"/>
        <pt x="-150" y="-800" on="0"/>
        <pt x="-500" y="-800" on="1"/>
        <pt x="-850" y="-800" on="0"/>
        <pt x="-850" y="-660" on="1"/>
      </contour>
    </TTGlyph>
    <TTGlyph name="uni17BC.n" xMin="-1500" yMin="-500" xMax="-800" yMax="-70">
      <contour>
        <pt x="-1500" y="-70" on="1"/>
        <pt x="-1242" y="-70" on="1"/>
        <pt x="-1242" y="-290" on="1"/>
        <pt x="-1242" y="-380" on="0"/>
        <pt x="-1150" y="-380" on="1"/>
        <pt x="-1058" y="-380" on="0"/>
        <pt x="-1058" y="-290" on="1"/>
        <pt x="-1058" y="-70" on="1"/>
        <pt x="-800" y="-70" on="1"/>
        <pt x="-800" y="-290" on="1"/>
        <pt x="-800" y="-500" on="0"/>
        <pt x="-1150" y="-500" on="1"/>
        <pt x="-1500" y="-500" on="0"/>
        <pt x="-1500" y="-290" on="1"/>
      </contour>
    </TTGlyph>
    <TTGlyph name="uni17BC.n2" xMin="-1500" yMin="-800" xMax="-800" yMax="-500">
      <contour>
        <pt x="-1500" y="-500" on="1"/>
        <pt x="-1242" y="-500" on="1"/>
        <pt x="-1242" y="-623" on="1"/>
        <pt x="-1242" y="-686" on="0"/>
        <pt x="-1150" y="-686" on="1"/>
        <pt x="-1058" y="-686" on="0"/>
        <pt x="-1058" y="-623" on="1"/>
        <pt x="-1058" y="-500" on="1"/>
        <pt x="-800" y="-500" on="1"/>
        <pt x="-800" y="-653" on="1"/>
        <pt x="-800" y="-800" on="0"/>
        <pt x="-1150" y="-800" on="1"/>
        <pt x="-1500" y="-800" on="0"/>
        <pt x="-1500" y="-653" on="1"/>
      </contour>
    </TTGlyph>
    <TTGlyph name="uni17BD" xMin="-840" yMin="-500" xMax="-150" yMax="-70">
      <contour>
        <pt x="-378" y="-333" on="1"/>
        <pt x="-378" y="-70" on="1"/>
        <pt x="-150" y="-70" on="1"/>
        <pt x="-150" y="-500" on="1"/>
        <pt x="-370" y="-500" on="1"/>
        <pt x="-495" y="-370" on="1"/>
        <pt x="-620" y="-500" on="1"/>
        <pt x="-840" y="-500" on="1"/>
        <pt x="-840" y="-70" on="1"/>
        <pt x="-612" y="-70" on="1"/>
        <pt x="-612" y="-333" on="1"/>
        <pt x="-495" y="-230" on="1"/>
      </contour>
    </TTGlyph>
    <TTGlyph name="uni17BD.b" xMin="-900" yMin="-800" xMax="-150" yMax="-500">
      <contour>
        <pt x="-900" y="-500" on="1"/>
        <pt x="-642" y="-500" on="1"/>
        <pt x="-642" y="-677" on="1"/>
        <pt x="-525" y="-590" on="1"/>
        <pt x="-408" y="-677" on="1"/>
        <pt x="-408" y="-500" on="1"/>
        <pt x="-150" y="-500" on="1"/>
        <pt x="-150" y="-800" on="1"/>
        <pt x="-430" y="-800" on="1"/>
        <pt x="-525" y="-713" on="1"/>
        <pt x="-620" y="-800" on="1"/>
        <pt x="-900" y="-800" on="1"/>
      </contour>
    </TTGlyph>
    <TTGlyph name="uni17BD.n" xMin="-1550" yMin="-500" xMax="-800" yMax="-70">
      <contour>
        <pt x="-1550" y="-70" on="1"/>
        <pt x="-1292" y="-70" on="1"/>
        <pt x="-1292" y="-330" on="1"/>
        <pt x="-1175" y="-200" on="1"/>
        <pt x="-1058" y="-330" on="1"/>
        <pt x="-1058" y="-70" on="1"/>
        <pt x="-800" y="-70" on="1"/>
        <pt x="-800" y="-500" on="1"/>
        <pt x="-1080" y="-500" on="1"/>
        <pt x="-1175" y="-370" on="1"/>
        <pt x="-1270" y="-500" on="1"/>
        <pt x="-1550" y="-500" on="1"/>
      </contour>
    </TTGlyph>
    <TTGlyph name="uni17BD.n2" xMin="-1550" yMin="-800" xMax="-800" yMax="-500">
      <contour>
        <pt x="-1550" y="-500" on="1"/>
        <pt x="-1292" y="-500" on="1"/>
        <pt x="-1292" y="-672" on="1"/>
        <pt x="-1175" y="-582" on="1"/>
        <pt x="-1058" y="-672" on="1"/>
        <pt x="-1058" y="-500" on="1"/>
        <pt x="-800" y="-500" on="1"/>
        <pt x="-800" y="-800" on="1"/>
        <pt x="-1080" y="-800" on="1"/>
        <pt x="-1175" y="-709" on="1"/>
        <pt x="-1270" y="-800" on="1"/>
        <pt x="-1550" y="-800" on="1"/>
      </contour>
    </TTGlyph>
    <TTGlyph name="uni17BE" xMin="-1100" yMin="1400" xMax="-200" yMax="1850">
      <contour>
        <pt x="-850" y="1530" on="1"/>
        <pt x="-442" y="1530" on="1"/>
        <pt x="-554" y="1620" on="0"/>
        <pt x="-740" y="1620" on="1"/>
        <pt x="-850" y="1620" on="0"/>
      </contour>
      <contour>
        <pt x="-388" y="1690" on="1"/>
        <pt x="-388" y="1850" on="1"/>
        <pt x="-200" y="1850" on="1"/>
        <pt x="-200" y="1400" on="1"/>
        <pt x="-950" y="1400" on="1"/>
        <pt x="-1100" y="1400" on="0"/>
        <pt x="-1100" y="1550" on="1"/>
        <pt x="-1100" y="1800" on="0"/>
        <pt x="-740" y="1800" on="1"/>
        <pt x="-591" y="1800" on="0"/>
        <pt x="-450" y="1725" on="1"/>
        <pt x="-418" y="1708" on="0"/>
      </contour>
    </TTGlyph>
    <TTGlyph name="uni17BF" xMin="-520" yMin="-500" xMax="438" yMax="1900">
      <contour>
        <pt x="-270" y="1530" on="1"/>
        <pt x="8" y="1530" on="1"/>
        <pt x="-104" y="1610" on="0"/>
        <pt x="-180" y="1620" on="0"/>
        <pt x="-210" y="1620" on="1"/>
        <pt x="-250" y="1620" on="0"/>
        <pt x="-270" y="1560" on="0"/>
      </contour>
      <contour>
        <pt x="200" y="1550" on="1"/>
        <pt x="438" y="1383" on="0"/>
        <pt x="438" y="1210" on="1"/>
        <pt x="438" y="-260" on="1"/>
        <pt x="438" y="-500" on="0"/>
        <pt x="0" y="-500" on="1"/>
        <pt x="-438" y="-500" on="0"/>
        <pt x="-438" y="-260" on="1"/>
        <pt x="-438" y="-50" on="1"/>
        <pt x="-100" y="-50" on="1"/>
        <pt x="-100" y="-160" on="1"/>
        <pt x="-150" y="-160" on="1"/>
        <pt x="-150" y="-260" on="1"/>
        <pt x="-150" y="-330" on="0"/>
        <pt x="0" y="-330" on="1"/>
        <pt x="150" y="-330" on="0"/>
        <pt x="150" y="-260" on="1"/>
        <pt x="150" y="1210" on="1"/>
        <pt x="150" y="1350" on="0"/>
        <pt x="0" y="1350" on="1"/>
        <pt x="-420" y="1350" on="1"/>
        <pt x="-520" y="1350" on="0"/>
        <pt x="-520" y="1550" on="1"/>
        <pt x="-520" y="1650" on="0"/>
        <pt x="-410" y="1800" on="0"/>
        <pt x="-310" y="1800" on="1"/>
        <pt x="-247" y="1800" on="0"/>
        <pt x="-158" y="1771" on="1"/>
        <pt x="-158" y="1900" on="1"/>
        <pt x="-20" y="1900" on="1"/>
        <pt x="-20" y="1708" on="1"/>
        <pt x="22" y="1684" on="0"/>
        <pt x="62" y="1658" on="1"/>
        <pt x="62" y="1850" on="1"/>
        <pt x="200" y="1850" on="1"/>
      </contour>
    </TTGlyph>
    <TTGlyph name="uni17BF.b" xMin="-520" yMin="-800" xMax="438" yMax="1900">
      <contour>
        <pt x="-270" y="1530" on="1"/>
        <pt x="8" y="1530" on="1"/>
        <pt x="-104" y="1610" on="0"/>
        <pt x="-180" y="1620" on="0"/>
        <pt x="-210" y="1620" on="1"/>
        <pt x="-250" y="1620" on="0"/>
        <pt x="-270" y="1560" on="0"/>
      </contour>
      <contour>
        <pt x="438" y="-560" on="1"/>
        <pt x="438" y="-800" on="0"/>
        <pt x="0" y="-800" on="1"/>
        <pt x="-438" y="-800" on="0"/>
        <pt x="-438" y="-560" on="1"/>
        <pt x="-438" y="-500" on="1"/>
        <pt x="-150" y="-500" on="1"/>
        <pt x="-150" y="-560" on="1"/>
        <pt x="-150" y="-660" on="0"/>
        <pt x="0" y="-660" on="1"/>
        <pt x="150" y="-660" on="0"/>
        <pt x="150" y="-560" on="1"/>
        <pt x="150" y="1210" on="1"/>
        <pt x="150" y="1350" on="0"/>
        <pt x="0" y="1350" on="1"/>
        <pt x="-420" y="1350" on="1"/>
        <pt x="-520" y="1350" on="0"/>
        <pt x="-520" y="1550" on="1"/>
        <pt x="-520" y="1650" on="0"/>
        <pt x="-410" y="1800" on="0"/>
        <pt x="-310" y="1800" on="1"/>
        <pt x="-247" y="1800" on="0"/>
        <pt x="-158" y="1771" on="1"/>
        <pt x="-158" y="1900" on="1"/>
        <pt x="-20" y="1900" on="1"/>
        <pt x="-20" y="1708" on="1"/>
        <pt x="22" y="1684" on="0"/>
        <pt x="62" y="1658" on="1"/>
        <pt x="62" y="1850" on="1"/>
        <pt x="200" y="1850" on="1"/>
        <pt x="200" y="1550" on="1"/>
        <pt x="438" y="1383" on="0"/>
        <pt x="438" y="1210" on="1"/>
      </contour>
    </TTGlyph>
    <TTGlyph name="uni17BF.right" xMin="-520" yMin="-500" xMax="438" yMax="1900">
      <contour>
        <pt x="-270" y="1530" on="1"/>
        <pt x="8" y="1530" on="1"/>
        <pt x="-104" y="1610" on="0"/>
        <pt x="-180" y="1620" on="0"/>
        <pt x="-210" y="1620" on="1"/>
        <pt x="-250" y="1620" on="0"/>
        <pt x="-270" y="1560" on="0"/>
      </contour>
      <contour>
        <pt x="200" y="1550" on="1"/>
        <pt x="438" y="1383" on="0"/>
        <pt x="438" y="1210" on="1"/>
        <pt x="438" y="-260" on="1"/>
        <pt x="438" y="-500" on="0"/>
        <pt x="0" y="-500" on="1"/>
        <pt x="-438" y="-500" on="0"/>
        <pt x="-438" y="-260" on="1"/>
        <pt x="-438" y="-50" on="1"/>
        <pt x="-100" y="-50" on="1"/>
        <pt x="-100" y="-160" on="1"/>
        <pt x="-150" y="-160" on="1"/>
        <pt x="-150" y="-260" on="1"/>
        <pt x="-150" y="-330" on="0"/>
        <pt x="0" y="-330" on="1"/>
        <pt x="150" y="-330" on="0"/>
        <pt x="150" y="-260" on="1"/>
        <pt x="150" y="1210" on="1"/>
        <pt x="150" y="1350" on="0"/>
        <pt x="0" y="1350" on="1"/>
        <pt x="-420" y="1350" on="1"/>
        <pt x="-520" y="1350" on="0"/>
        <pt x="-520" y="1550" on="1"/>
        <pt x="-520" y="1650" on="0"/>
        <pt x="-410" y="1800" on="0"/>
        <pt x="-310" y="1800" on="1"/>
        <pt x="-247" y="1800" on="0"/>
        <pt x="-158" y="1771" on="1"/>
        <pt x="-158" y="1900" on="1"/>
        <pt x="-20" y="1900" on="1"/>
        <pt x="-20" y="1708" on="1"/>
        <pt x="22" y="1684" on="0"/>
        <pt x="62" y="1658" on="1"/>
        <pt x="62" y="1850" on="1"/>
        <pt x="200" y="1850" on="1"/>
      </contour>
    </TTGlyph>
    <TTGlyph name="uni17C0" xMin="-438" yMin="-500" xMax="438" yMax="1900">
      <contour>
        <pt x="150" y="1250" on="1"/>
        <pt x="150" y="1430" on="0"/>
        <pt x="0" y="1430" on="1"/>
        <pt x="-150" y="1430" on="0"/>
        <pt x="-210" y="1400" on="1"/>
        <pt x="-438" y="1400" on="1"/>
        <pt x="-438" y="1900" on="1"/>
        <pt x="-150" y="1900" on="1"/>
        <pt x="-150" y="1552" on="1"/>
        <pt x="-75" y="1610" on="0"/>
        <pt x="70" y="1610" on="1"/>
        <pt x="438" y="1610" on="0"/>
        <pt x="438" y="1250" on="1"/>
        <pt x="438" y="-260" on="1"/>
        <pt x="438" y="-500" on="0"/>
        <pt x="0" y="-500" on="1"/>
        <pt x="-438" y="-500" on="0"/>
        <pt x="-438" y="-260" on="1"/>
        <pt x="-438" y="-50" on="1"/>
        <pt x="-100" y="-50" on="1"/>
        <pt x="-100" y="-160" on="1"/>
        <pt x="-150" y="-160" on="1"/>
        <pt x="-150" y="-260" on="1"/>
        <pt x="-150" y="-330" on="0"/>
        <pt x="0" y="-330" on="1"/>
        <pt x="150" y="-330" on="0"/>
        <pt x="150" y="-260" on="1"/>
      </contour>
    </TTGlyph>
    <TTGlyph name="uni17C0.b" xMin="-438" yMin="-800" xMax="438" yMax="1900">
      <contour>
        <pt x="438" y="-560" on="1"/>
        <pt x="438" y="-800" on="0"/>
        <pt x="0" y="-800" on="1"/>
        <pt x="-438" y="-800" on="0"/>
        <pt x="-438" y="-560" on="1"/>
        <pt x="-438" y="-500" on="1"/>
        <pt x="-150" y="-500" on="1"/>
        <pt x="-150" y="-560" on="1"/>
        <pt x="-150" y="-660" on="0"/>
        <pt x="0" y="-660" on="1"/>
        <pt x="150" y="-660" on="0"/>
        <pt x="150" y="-560" on="1"/>
        <pt x="150" y="1250" on="1"/>
        <pt x="150" y="1430" on="0"/>
        <pt x="0" y="1430" on="1"/>
        <pt x="-150" y="1430" on="0"/>
        <pt x="-210" y="1400" on="1"/>
        <pt x="-438" y="1400" on="1"/>
        <pt x="-438" y="1900" on="1"/>
        <pt x="-150" y="1900" on="1"/>
        <pt x="-150" y="1552" on="1"/>
        <pt x="-75" y="1610" on="0"/>
        <pt x="70" y="1610" on="1"/>
        <pt x="438" y="1610" on="0"/>
        <pt x="438" y="1250" on="1"/>
      </contour>
    </TTGlyph>
    <TTGlyph name="uni17C0.right" xMin="-438" yMin="-500" xMax="438" yMax="1900">
      <contour>
        <pt x="150" y="1250" on="1"/>
        <pt x="150" y="1430" on="0"/>
        <pt x="0" y="1430" on="1"/>
        <pt x="-150" y="1430" on="0"/>
        <pt x="-210" y="1400" on="1"/>
        <pt x="-438" y="1400" on="1"/>
        <pt x="-438" y="1900" on="1"/>
        <pt x="-150" y="1900" on="1"/>
        <pt x="-150" y="1552" on="1"/>
        <pt x="-75" y="1610" on="0"/>
        <pt x="70" y="1610" on="1"/>
        <pt x="438" y="1610" on="0"/>
        <pt x="438" y="1250" on="1"/>
        <pt x="438" y="-260" on="1"/>
        <pt x="438" y="-500" on="0"/>
        <pt x="0" y="-500" on="1"/>
        <pt x="-438" y="-500" on="0"/>
        <pt x="-438" y="-260" on="1"/>
        <pt x="-438" y="-50" on="1"/>
        <pt x="-100" y="-50" on="1"/>
        <pt x="-100" y="-160" on="1"/>
        <pt x="-150" y="-160" on="1"/>
        <pt x="-150" y="-260" on="1"/>
        <pt x="-150" y="-330" on="0"/>
        <pt x="0" y="-330" on="1"/>
        <pt x="150" y="-330" on="0"/>
        <pt x="150" y="-260" on="1"/>
      </contour>
    </TTGlyph>
    <TTGlyph name="uni17C1" xMin="39" yMin="0" xMax="548" yMax="1200">
      <contour>
        <pt x="438" y="235" on="1"/>
        <pt x="438" y="188" on="0"/>
        <pt x="483" y="188" on="1"/>
        <pt x="548" y="188" on="1"/>
        <pt x="548" y="0" on="1"/>
        <pt x="300" y="0" on="1"/>
        <pt x="150" y="0" on="0"/>
        <pt x="150" y="102" on="1"/>
        <pt x="150" y="843" on="1"/>
        <pt x="100" y="905" on="1"/>
        <pt x="60" y="955" on="1"/>
        <pt x="39" y="980" on="0"/>
        <pt x="39" y="1005" on="1"/>
        <pt x="39" y="1029" on="0"/>
        <pt x="58" y="1053" on="1"/>
        <pt x="95" y="1102" on="1"/>
        <pt x="170" y="1200" on="1"/>
        <pt x="498" y="1200" on="1"/>
        <pt x="498" y="1012" on="1"/>
        <pt x="220" y="1012" on="1"/>
        <pt x="438" y="840" on="1"/>
      </contour>
    </TTGlyph>
    <TTGlyph name="uni17C2" xMin="0" yMin="0" xMax="610" yMax="1750">
      <contour>
        <pt x="0" y="1490" on="1"/>
        <pt x="0" y="1670" on="0"/>
        <pt x="297" y="1670" on="1"/>
        <pt x="297" y="1540" on="1"/>
        <pt x="250" y="1540" on="0"/>
        <pt x="250" y="1490" on="1"/>
        <pt x="250" y="1460" on="0"/>
        <pt x="311" y="1460" on="1"/>
        <pt x="410" y="1460" on="0"/>
        <pt x="410" y="1750" on="1"/>
        <pt x="610" y="1750" on="1"/>
        <pt x="610" y="1300" on="0"/>
        <pt x="261" y="1300" on="1"/>
        <pt x="0" y="1300" on="0"/>
      </contour>
      <contour>
        <pt x="438" y="235" on="1"/>
        <pt x="438" y="188" on="0"/>
        <pt x="483" y="188" on="1"/>
        <pt x="548" y="188" on="1"/>
        <pt x="548" y="0" on="1"/>
        <pt x="300" y="0" on="1"/>
        <pt x="150" y="0" on="0"/>
        <pt x="150" y="102" on="1"/>
        <pt x="150" y="843" on="1"/>
        <pt x="100" y="905" on="1"/>
        <pt x="60" y="955" on="1"/>
        <pt x="39" y="980" on="0"/>
        <pt x="39" y="1005" on="1"/>
        <pt x="39" y="1029" on="0"/>
        <pt x="58" y="1053" on="1"/>
        <pt x="95" y="1102" on="1"/>
        <pt x="170" y="1200" on="1"/>
        <pt x="498" y="1200" on="1"/>
        <pt x="498" y="1012" on="1"/>
        <pt x="220" y="1012" on="1"/>
        <pt x="438" y="840" on="1"/>
      </contour>
    </TTGlyph>
    <TTGlyph name="uni17C3" xMin="-30" yMin="0" xMax="590" yMax="1900">
      <contour>
        <pt x="380" y="1460" on="0"/>
        <pt x="380" y="1505" on="1"/>
        <pt x="380" y="1560" on="0"/>
        <pt x="315" y="1560" on="1"/>
        <pt x="250" y="1560" on="0"/>
        <pt x="250" y="1530" on="1"/>
        <pt x="20" y="1530" on="1"/>
        <pt x="20" y="1700" on="1"/>
        <pt x="20" y="1750" on="0"/>
        <pt x="-30" y="1750" on="1"/>
        <pt x="-30" y="1900" on="1"/>
        <pt x="250" y="1900" on="0"/>
        <pt x="250" y="1750" on="1"/>
        <pt x="250" y="1670" on="1"/>
        <pt x="305" y="1700" on="0"/>
        <pt x="360" y="1700" on="1"/>
        <pt x="590" y="1700" on="0"/>
        <pt x="590" y="1505" on="1"/>
        <pt x="590" y="1300" on="0"/>
        <pt x="320" y="1300" on="1"/>
        <pt x="20" y="1300" on="1"/>
        <pt x="20" y="1460" on="1"/>
        <pt x="320" y="1460" on="1"/>
      </contour>
      <contour>
        <pt x="438" y="235" on="1"/>
        <pt x="438" y="188" on="0"/>
        <pt x="483" y="188" on="1"/>
        <pt x="548" y="188" on="1"/>
        <pt x="548" y="0" on="1"/>
        <pt x="300" y="0" on="1"/>
        <pt x="150" y="0" on="0"/>
        <pt x="150" y="102" on="1"/>
        <pt x="150" y="843" on="1"/>
        <pt x="100" y="905" on="1"/>
        <pt x="60" y="955" on="1"/>
        <pt x="39" y="980" on="0"/>
        <pt x="39" y="1005" on="1"/>
        <pt x="39" y="1029" on="0"/>
        <pt x="58" y="1053" on="1"/>
        <pt x="95" y="1102" on="1"/>
        <pt x="170" y="1200" on="1"/>
        <pt x="498" y="1200" on="1"/>
        <pt x="498" y="1012" on="1"/>
        <pt x="220" y="1012" on="1"/>
        <pt x="438" y="840" on="1"/>
      </contour>
    </TTGlyph>
</ttFont>
